{
.appVersion = "3149";
.formatVersion = 3;
DisplayStrings = (
"/_ear.Q/_part.flopper/_part.wagger/_part.wagger.flopped",
"nononon
nananan
HOHOHO
HAHAHA",
"รฐ"
);
axes = (
{
name = Italic;
tag = ital;
},
{
name = flop;
tag = FLOP;
}
);
classes = (
{
automatic = 1;
code = "A Aacute Abreve Abreveacute Abrevedotbelow Abrevegrave Abrevehookabove Abrevetilde Acaron Acircumflex Acircumflexacute Acircumflexdotbelow Acircumflexgrave Acircumflexhookabove Acircumflextilde Adieresis Adotbelow Agrave Ahookabove Amacron Aogonek Aring Atilde AE B C Cacute Ccaron Ccedilla Cdotaccent D Eth Dcaron Dcroat E Eacute Ecaron Ecircumflex Ecircumflexacute Ecircumflexdotbelow Ecircumflexgrave Ecircumflexhookabove Ecircumflextilde Edieresis Edotaccent Edotbelow Egrave Ehookabove Emacron Eogonek Etilde F G Gbreve Gcommaaccent Gdotaccent H Hbar I IJ Iacute Icaron Icircumflex Idieresis Idotaccent Idotbelow Igrave Ihookabove Imacron Iogonek Itilde J K Kcommaaccent L Lacute Lcaron Lcommaaccent Ldot Lslash M N Nacute Ncaron Ncommaaccent Eng Ntilde O Oacute Ocaron Ocircumflex Ocircumflexacute Ocircumflexdotbelow Ocircumflexgrave Ocircumflexhookabove Ocircumflextilde Odieresis Odotbelow Ograve Ohookabove Ohorn Ohornacute Ohorndotbelow Ohorngrave Ohornhookabove Ohorntilde Ohungarumlaut Omacron Oslash Otilde OE P Thorn Q R Racute Rcaron Rcommaaccent S Sacute Scaron Scedilla Scommaaccent T Tbar Tcaron Tcedilla Tcommaaccent U Uacute Ucaron Ucircumflex Udieresis Udieresisacute Udieresiscaron Udieresisgrave Udieresismacron Udotbelow Ugrave Uhookabove Uhorn Uhornacute Uhorndotbelow Uhorngrave Uhornhookabove Uhorntilde Uhungarumlaut Umacron Uogonek Uring Utilde V W Wacute Wcircumflex Wdieresis Wgrave X Y Yacute Ycircumflex Ydieresis Ydotbelow Ygrave Yhookabove Ytilde Z Zacute Zcaron Zdotaccent A-cy Ve-cy Gje-cy Ie-cy Io-cy Em-cy En-cy O-cy Er-cy Es-cy Te-cy Ha-cy Dze-cy I-cy Yi-cy Je-cy Palochka-cy";
name = Uppercase;
}
);
customParameters = (
{
name = "Virtual Master";
value = (
{
Axis = Italic;

glyphs = (
{
color = 4;
glyphname = A;
lastChange = "2021-09-30 17:26:17 +0000";
layers = (
{
anchors = (
{
name = bottom;
pos = (292,0);
},
{
name = ogonek;
pos = (544,50);
},
{
name = top;
pos = (261,700);
}
);
layerId = "24C63A81-7FC6-4EE9-AF2B-C1140AFD6C4B";
shapes = (
{
closed = 1;
nodes = (
(555,69,o),
(533,135,o),
(484,263,c),
(498,271,o),
(506,286,o),
(504,303,c),
(500,326,o),
(479,341,o),
(456,337,c),
(401,478,o),
(344,622,o),
(334,643,cs),
(317,676,o),
(300,700,o),
(261,700,cs),
(232,700,o),
(208,680,o),
(192,641,cs),
(171,587,o),
(25,103,o),
(22,50,cs),
(21,34,o),
(30,7,o),
(51,1,cs),
(67,-4,o),
(93,5,o),
(100,30,cs),
(148,198,l),
(403,246,l),
(446,134,o),
(482,38,o),
(484,27,cs),
(487,12,o),
(502,0,o),
(522,0,cs),
(547,0,o),
(562,20,o),
(562,40,cs),
(562,44,o),
(561,49,o),
(560,53,c)
);
},
{
closed = 1;
nodes = (
(173,284,l),
(202,389,o),
(234,500,o),
(254,579,cs),
(259,598,o),
(270,598,o),
(277,580,cs),
(297,519,o),
(336,420,o),
(374,321,c)
);
}
);
width = 584;
},
{
anchors = (
{
name = bottom;
pos = (256,0);
},
{
name = ogonek;
pos = (513,50);
},
{
name = top;
pos = (298,700);
}
);
layerId = m002;
shapes = (
{
closed = 1;
nodes = (
(526,69,o),
(511,135,o),
(475,263,c),
(492,272,o),
(500,288,o),
(500,303,c),
(498,326,o),
(478,341,o),
(455,337,c),
(404,516,o),
(373,622,o),
(365,643,cs),
(352,676,o),
(338,700,o),
(298,700,cs),
(270,700,o),
(243,680,o),
(223,641,cs),
(198,591,o),
(0,103,o),
(-9,50,cs),
(-12,34,o),
(-5,7,o),
(15,1,cs),
(31,-4,o),
(57,5,o),
(67,30,cs),
(133,198,l),
(393,246,l),
(424,132,o),
(450,38,o),
(451,27,cs),
(452,12,o),
(465,0,o),
(486,0,cs),
(509,0,o),
(530,20,o),
(530,43,cs),
(530,47,o),
(530,50,o),
(529,53,c)
);
},
{
closed = 1;
nodes = (
(167,284,l),
(207,389,o),
(249,496,o),
(279,580,cs),
(285,597,o),
(297,598,o),
(301,581,cs),
(313,529,o),
(351,395,o),
(371,321,c)
);
}
);
width = 580;
}
);
unicode = 65;
},
{
color = 1;
glyphname = B;
lastChange = "2021-09-30 17:22:40 +0000";
layers = (
{
layerId = "24C63A81-7FC6-4EE9-AF2B-C1140AFD6C4B";
shapes = (
{
closed = 1;
nodes = (
(84,670,o),
(44,656,o),
(44,625,cs),
(44,607,o),
(60,596,o),
(84,596,c),
(84,40,ls),
(84,17,o),
(101,0,o),
(124,0,cs),
(125,0,ls),
(241,0,o),
(531,50,o),
(531,229,cs),
(531,330,o),
(446,397,o),
(292,397,c),
(386,426,o),
(463,467,o),
(463,567,cs),
(463,672,o),
(379,700,o),
(286,700,cs),
(225,700,o),
(160,688,o),
(113,677,cs)
);
},
{
closed = 1;
nodes = (
(164,610,l),
(205,618,o),
(257,628,o),
(296,628,cs),
(348,628,o),
(383,611,o),
(383,567,cs),
(383,472,o),
(220,434,o),
(164,423,c)
);
},
{
closed = 1;
nodes = (
(164,341,l),
(180,342,o),
(201,343,o),
(225,343,cs),
(319,343,o),
(451,317,o),
(451,227,cs),
(451,116,o),
(247,91,o),
(164,83,c)
);
}
);
width = 575;
},
{
layerId = m002;
shapes = (
{
closed = 1;
nodes = (
(111,668,o),
(75,651,o),
(75,622,cs),
(75,606,o),
(90,596,o),
(112,596,c),
(54,40,ls),
(52,16,o),
(67,0,o),
(90,0,cs),
(91,0,ls),
(206,0,o),
(522,52,o),
(522,247,cs),
(522,338,o),
(444,397,o),
(300,397,c),
(394,425,o),
(489,470,o),
(489,586,cs),
(489,675,o),
(413,700,o),
(325,700,cs),
(264,700,o),
(198,688,o),
(150,677,cs)
);
},
{
closed = 1;
nodes = (
(194,610,l),
(236,618,o),
(289,628,o),
(328,628,cs),
(376,628,o),
(409,613,o),
(409,575,cs),
(409,505,o),
(319,451,o),
(174,423,c)
);
},
{
closed = 1;
nodes = (
(166,341,l),
(182,342,o),
(203,343,o),
(227,343,cs),
(317,343,o),
(441,319,o),
(441,236,cs),
(441,118,o),
(224,91,o),
(139,83,c)
);
}
);
width = 576;
}
);
unicode = 66;
},
{
color = 7;
glyphname = C;
kernLeft = upRounded;
lastChange = "2021-09-30 18:42:32 +0000";
layers = (
{
anchors = (
{
name = bottom;
pos = (321,10);
},
{
name = top;
pos = (331,700);
}
);
layerId = "24C63A81-7FC6-4EE9-AF2B-C1140AFD6C4B";
shapes = (
{
closed = 1;
nodes = (
(168,697,o),
(42,570,o),
(42,341,cs),
(42,116,o),
(154,3,o),
(326,3,cs),
(469,3,o),
(579,78,o),
(579,177,cs),
(579,197,o),
(564,216,o),
(540,216,cs),
(524,216,o),
(508,206,o),
(502,191,cs),
(475,125,o),
(423,85,o),
(332,85,cs),
(201,85,o),
(121,169,o),
(121,335,cs),
(121,492,o),
(191,616,o),
(341,616,cs),
(415,616,o),
(474,585,o),
(497,530,c),
(502,514,o),
(518,503,o),
(534,503,cs),
(552,503,o),
(574,518,o),
(574,543,cs),
(574,548,o),
(573,553,o),
(572,557,cs),
(538,651,o),
(449,697,o),
(342,697,cs)
);
}
);
width = 623;
},
{
anchors = (
{
name = bottom;
pos = (282,10);
},
{
name = top;
pos = (364,700);
}
);
layerId = m002;
shapes = (
{
closed = 1;
nodes = (
(173,697,o),
(34,526,o),
(34,278,cs),
(34,95,o),
(131,3,o),
(286,3,cs),
(430,3,o),
(557,86,o),
(557,181,cs),
(557,199,o),
(545,216,o),
(522,216,cs),
(505,216,o),
(488,204,o),
(482,192,cs),
(448,125,o),
(392,85,o),
(301,85,cs),
(183,85,o),
(113,153,o),
(113,288,cs),
(113,482,o),
(217,616,o),
(365,616,cs),
(439,616,o),
(495,585,o),
(512,530,c),
(516,514,o),
(530,503,o),
(546,503,cs),
(564,503,o),
(591,519,o),
(591,548,cs),
(591,551,o),
(591,553,o),
(590,557,cs),
(566,651,o),
(482,697,o),
(375,697,cs)
);
}
);
width = 635;
}
);
metricLeft = O;
unicode = 67;
},
{
color = 1;
glyphname = D;
kernRight = upRounded;
lastChange = "2023-10-12 21:28:47 +0000";
layers = (
{
anchors = (
{
name = bottom;
pos = (318,0);
},
{
name = hyphen;
pos = (135,350);
},
{
name = top;
pos = (318,700);
}
);
layerId = "24C63A81-7FC6-4EE9-AF2B-C1140AFD6C4B";
shapes = (
{
closed = 1;
nodes = (
(79,683,o),
(44,678,o),
(44,641,cs),
(44,622,o),
(58,604,o),
(89,604,c),
(89,77,ls),
(89,22,o),
(119,0,o),
(182,0,cs),
(425,0,o),
(592,159,o),
(592,394,cs),
(592,606,o),
(460,722,o),
(167,692,cs)
);
},
{
closed = 1;
nodes = (
(169,611,l),
(313,631,o),
(511,625,o),
(511,394,cs),
(511,147,o),
(289,76,o),
(169,83,c)
);
}
);
width = 624;
},
{
anchors = (
{
name = bottom;
pos = (212,0);
},
{
name = hyphen;
pos = (125,350);
},
{
name = top;
pos = (358,700);
}
);
layerId = m002;
shapes = (
{
closed = 1;
nodes = (
(94,683,o),
(58,676,o),
(58,637,cs),
(58,620,o),
(70,604,o),
(99,604,c),
(44,77,ls),
(38,22,o),
(67,0,o),
(129,0,cs),
(390,0,o),
(583,187,o),
(583,442,cs),
(583,622,o),
(460,720,o),
(187,692,cs)
);
},
{
closed = 1;
nodes = (
(180,611,l),
(318,630,o),
(501,625,o),
(501,431,cs),
(501,163,o),
(253,75,o),
(125,83,c)
);
}
);
width = 608;
}
);
metricRight = "=O-10";
unicode = 68;
},
{
color = 1;
glyphname = E;
lastChange = "2021-09-30 18:28:14 +0000";
layers = (
{
anchors = (
{
name = bottom;
pos = (292,0);
},
{
name = ogonek;
pos = (525,50);
},
{
name = top;
pos = (292,700);
},
{
name = topleft;
pos = (20,700);
}
);
layerId = "24C63A81-7FC6-4EE9-AF2B-C1140AFD6C4B";
shapes = (
{
closed = 1;
nodes = (
(257,-4,o),
(358,-7,o),
(502,6,cs),
(525,8,o),
(540,29,o),
(539,51,cs),
(538,73,o),
(519,87,o),
(496,86,cs),
(159,76,l),
(152,326,ls),
(413,334,ls),
(445,335,o),
(460,357,o),
(457,379,c),
(455,401,o),
(435,415,o),
(411,414,cs),
(152,407,ls),
(159,617,ls),
(171,618,o),
(190,619,o),
(213,619,cs),
(307,619,o),
(467,614,o),
(486,612,cs),
(519,609,o),
(537,626,o),
(538,648,c),
(540,670,o),
(525,689,o),
(492,692,cs),
(450,696,o),
(250,700,o),
(189,698,cs),
(113,698,o),
(81,700,o),
(79,633,cs),
(72,401,l),
(60,399,o),
(44,386,o),
(44,363,cs),
(44,340,o),
(61,328,o),
(72,325,c),
(72,98,o),
(74,27,o),
(99,9,cs),
(113,-1,o),
(141,-4,o),
(192,-4,cs)
);
}
);
width = 583;
},
{
anchors = (
{
name = bottom;
pos = (264,0);
},
{
name = ogonek;
pos = (502,50);
},
{
name = top;
pos = (338,700);
},
{
name = topleft;
pos = (66,700);
}
);
layerId = m002;
shapes = (
{
closed = 1;
nodes = (
(233,-4,o),
(334,-7,o),
(479,6,cs),
(502,8,o),
(519,29,o),
(521,51,cs),
(522,73,o),
(505,87,o),
(481,86,cs),
(143,76,l),
(163,326,ls),
(425,334,ls),
(457,335,o),
(474,357,o),
(473,379,c),
(474,401,o),
(455,415,o),
(431,414,cs),
(171,407,ls),
(200,617,ls),
(212,618,o),
(231,619,o),
(254,619,cs),
(348,619,o),
(508,614,o),
(527,612,cs),
(559,609,o),
(579,626,o),
(583,648,c),
(587,670,o),
(574,689,o),
(541,692,cs),
(500,696,o),
(300,700,o),
(239,698,cs),
(163,698,o),
(131,700,o),
(122,633,cs),
(91,401,l),
(78,399,o),
(61,386,o),
(59,363,cs),
(56,340,o),
(72,328,o),
(83,325,c),
(59,98,o),
(53,27,o),
(76,9,cs),
(89,-1,o),
(117,-4,o),
(168,-4,cs)
);
}
);
width = 592;
}
);
unicode = 69;
},
{
color = 1;
glyphname = F;
lastChange = "2021-09-30 16:51:50 +0000";
layers = (
{
layerId = "24C63A81-7FC6-4EE9-AF2B-C1140AFD6C4B";
shapes = (
{
closed = 1;
nodes = (
(444,706,o),
(379,704,o),
(300,704,cs),
(144,704,o),
(114,693,o),
(99,683,cs),
(75,668,o),
(68,637,o),
(65,560,cs),
(63,504,o),
(64,450,o),
(66,384,c),
(52,376,o),
(42,360,o),
(45,344,cs),
(47,331,o),
(57,318,o),
(68,312,c),
(72,172,o),
(78,69,o),
(78,42,cs),
(78,16,o),
(98,-1,o),
(119,0,cs),
(145,1,o),
(160,18,o),
(160,42,cs),
(160,64,o),
(152,176,o),
(147,315,c),
(386,326,ls),
(419,328,o),
(433,351,o),
(430,372,cs),
(427,395,o),
(405,407,o),
(383,406,cs),
(145,395,l),
(144,443,o),
(143,490,o),
(144,534,cs),
(145,582,o),
(148,604,o),
(150,617,c),
(167,620,o),
(210,624,o),
(308,624,cs),
(382,624,o),
(441,621,o),
(462,621,cs),
(484,621,o),
(503,638,o),
(503,660,cs),
(504,682,o),
(487,706,o),
(455,706,cs)
);
}
);
width = 503;
},
{
layerId = m002;
shapes = (
{
closed = 1;
nodes = (
(482,706,o),
(417,704,o),
(338,704,cs),
(181,704,o),
(151,693,o),
(135,683,cs),
(109,667,o),
(99,639,o),
(88,562,cs),
(80,504,o),
(76,464,o),
(70,384,c),
(54,375,o),
(44,360,o),
(45,344,cs),
(46,330,o),
(54,318,o),
(65,312,c),
(63,290,o),
(46,42,o),
(46,37,cs),
(46,14,o),
(63,-1,o),
(83,0,cs),
(109,1,o),
(126,19,o),
(128,40,cs),
(131,65,o),
(134,176,o),
(144,315,c),
(384,326,ls),
(418,328,o),
(433,351,o),
(433,372,cs),
(433,394,o),
(413,407,o),
(390,406,cs),
(150,395,l),
(154,443,o),
(160,504,o),
(164,534,cs),
(170,582,o),
(175,603,o),
(179,617,c),
(196,620,o),
(240,624,o),
(337,624,cs),
(411,624,o),
(470,621,o),
(491,621,cs),
(512,621,o),
(533,636,o),
(536,660,cs),
(539,682,o),
(526,706,o),
(493,706,cs)
);
}
);
width = 536;
}
);
unicode = 70;
},
{
color = 7;
glyphname = G;
kernLeft = upRounded;
lastChange = "2021-09-30 18:42:32 +0000";
layers = (
{
anchors = (
{
name = bottom;
pos = (333,0);
},
{
name = top;
pos = (333,700);
}
);
layerId = "24C63A81-7FC6-4EE9-AF2B-C1140AFD6C4B";
shapes = (
{
closed = 1;
nodes = (
(621,351,o),
(601,363,o),
(577,362,cs),
(326,349,ls),
(304,348,o),
(289,329,o),
(291,310,cs),
(293,291,o),
(310,278,o),
(331,279,cs),
(505,288,l),
(505,279,o),
(504,261,o),
(503,249,cs),
(495,163,o),
(457,111,o),
(386,90,cs),
(226,42,o),
(122,175,o),
(122,346,cs),
(122,500,o),
(206,625,o),
(335,625,cs),
(407,625,o),
(459,572,o),
(475,527,cs),
(486,497,o),
(507,479,o),
(534,487,cs),
(559,494,o),
(567,513,o),
(563,535,cs),
(544,642,o),
(436,705,o),
(333,705,cs),
(138,705,o),
(42,524,o),
(42,347,cs),
(42,139,o),
(157,0,o),
(326,0,cs),
(441,0,o),
(565,61,o),
(583,233,cs),
(585,260,o),
(586,279,o),
(586,291,c),
(612,294,o),
(627,312,o),
(624,332,cs)
);
}
);
width = 628;
},
{
anchors = (
{
name = bottom;
pos = (292,0);
},
{
name = top;
pos = (365,700);
}
);
layerId = m002;
shapes = (
{
closed = 1;
nodes = (
(616,350,o),
(598,363,o),
(574,362,cs),
(321,349,ls),
(299,348,o),
(282,328,o),
(282,310,cs),
(282,291,o),
(298,278,o),
(319,279,cs),
(494,288,l),
(493,279,o),
(488,251,o),
(488,249,cs),
(471,163,o),
(426,111,o),
(354,90,cs),
(203,46,o),
(115,154,o),
(115,304,cs),
(115,481,o),
(224,625,o),
(359,625,cs),
(431,625,o),
(478,572,o),
(489,527,cs),
(497,497,o),
(515,479,o),
(544,487,cs),
(571,495,o),
(579,515,o),
(578,534,cs),
(570,642,o),
(469,705,o),
(366,705,cs),
(179,705,o),
(34,524,o),
(34,292,cs),
(34,115,o),
(131,0,o),
(285,0,cs),
(400,0,o),
(530,61,o),
(566,234,cs),
(571,258,o),
(575,288,o),
(575,291,c),
(601,295,o),
(618,308,o),
(617,335,cs)
);
}
);
width = 617;
}
);
metricLeft = O;
unicode = 71;
},
{
color = 1;
glyphname = H;
lastChange = "2023-10-12 21:17:44 +0000";
layers = (
{
anchors = (
{
name = hbardash;
pos = (292,548);
}
);
layerId = "24C63A81-7FC6-4EE9-AF2B-C1140AFD6C4B";
shapes = (
{
closed = 1;
nodes = (
(448,703,o),
(430,685,o),
(430,663,cs),
(429,401,l),
(328,401,o),
(270,385,o),
(125,385,c),
(124,663,ls),
(124,685,o),
(106,703,o),
(84,703,cs),
(61,703,o),
(44,685,o),
(44,663,cs),
(44,343,l),
(44,40,ls),
(44,18,o),
(61,0,o),
(84,0,cs),
(106,0,o),
(124,18,o),
(124,40,cs),
(124,314,l),
(243,314,o),
(333,327,o),
(430,327,c),
(430,40,ls),
(430,18,o),
(448,0,o),
(470,0,cs),
(492,0,o),
(510,18,o),
(510,40,cs),
(510,663,ls),
(510,685,o),
(492,703,o),
(470,703,cs)
);
}
);
width = 554;
},
{
anchors = (
{
name = hbardash;
pos = (342,545);
}
);
layerId = m002;
shapes = (
{
closed = 1;
nodes = (
(508,703,o),
(487,685,o),
(485,663,cs),
(457,401,l),
(356,401,o),
(296,385,o),
(151,385,c),
(179,663,ls),
(181,685,o),
(166,703,o),
(144,703,cs),
(121,703,o),
(101,685,o),
(99,663,cs),
(66,343,l),
(34,40,ls),
(31,16,o),
(48,0,o),
(70,0,cs),
(91,0,o),
(112,18,o),
(114,40,cs),
(143,314,l),
(262,314,o),
(353,327,o),
(450,327,c),
(420,40,ls),
(418,18,o),
(434,0,o),
(456,0,cs),
(477,0,o),
(498,18,o),
(500,40,cs),
(565,663,ls),
(567,685,o),
(552,703,o),
(530,703,cs)
);
}
);
width = 599;
}
);
unicode = 72;
},
{
color = 1;
glyphname = I;
lastChange = "2021-09-30 18:27:02 +0000";
layers = (
{
anchors = (
{
name = bottom;
pos = (147,0);
},
{
name = ogonek;
pos = (208,61);
},
{
name = top;
pos = (147,700);
}
);
layerId = "24C63A81-7FC6-4EE9-AF2B-C1140AFD6C4B";
shapes = (
{
closed = 1;
nodes = (
(186,78,l),
(186,627,l),
(190,628,ls),
(208,633,o),
(219,647,o),
(217,666,cs),
(215,687,o),
(199,700,o),
(177,699,cs),
(115,697,ls),
(83,696,o),
(70,676,o),
(72,656,cs),
(74,637,o),
(88,624,o),
(105,624,cs),
(106,624,l),
(106,76,l),
(101,74,ls),
(83,67,o),
(71,53,o),
(72,33,cs),
(73,13,o),
(87,-2,o),
(114,-1,cs),
(185,2,ls),
(208,3,o),
(225,18,o),
(223,41,cs),
(222,59,o),
(211,70,o),
(189,77,cs)
);
}
);
width = 294;
},
{
anchors = (
{
name = bottom;
pos = (114,0);
},
{
name = ogonek;
pos = (181,61);
},
{
name = top;
pos = (187,700);
}
);
layerId = m002;
shapes = (
{
closed = 1;
nodes = (
(161,78,l),
(218,627,l),
(223,628,ls),
(240,631,o),
(254,646,o),
(254,666,cs),
(254,686,o),
(240,700,o),
(217,699,cs),
(155,697,ls),
(123,696,o),
(108,676,o),
(108,656,cs),
(108,637,o),
(121,624,o),
(137,624,cs),
(138,624,l),
(81,76,l),
(75,74,ls),
(55,67,o),
(42,51,o),
(42,31,cs),
(42,14,o),
(52,-2,o),
(80,-1,cs),
(152,2,ls),
(176,3,o),
(194,19,o),
(194,43,cs),
(194,59,o),
(185,70,o),
(164,77,cs)
);
}
);
width = 295;
}
);
unicode = 73;
},
{
glyphname = IJ;
lastChange = "2021-09-30 18:15:31 +0000";
layers = (
{
layerId = "24C63A81-7FC6-4EE9-AF2B-C1140AFD6C4B";
shapes = (
{
closed = 1;
nodes = (
(216,619,l),
(244,621,ls),
(266,623,o),
(282,643,o),
(280,665,cs),
(278,687,o),
(259,703,o),
(237,701,cs),
(110,689,ls),
(88,687,o),
(72,668,o),
(74,646,c),
(75,625,o),
(93,610,o),
(113,610,cs),
(117,610,l),
(136,612,l),
(136,80,l),
(110,78,ls),
(88,76,o),
(72,56,o),
(74,34,c),
(75,14,o),
(93,-2,o),
(113,-2,cs),
(117,-2,l),
(244,10,ls),
(266,12,o),
(282,31,o),
(280,53,cs),
(278,75,o),
(259,91,o),
(237,89,cs),
(216,87,l)
);
},
{
closed = 1;
nodes = (
(662,699,l),
(500,688,ls),
(478,687,o),
(462,666,o),
(464,644,cs),
(466,623,o),
(484,608,o),
(504,608,cs),
(508,608,l),
(626,616,l),
(626,140,ls),
(626,95,o),
(580,67,o),
(537,67,cs),
(454,67,o),
(452,141,o),
(452,141,c),
(448,173,o),
(435,198,o),
(411,198,cs),
(380,198,o),
(373,171,o),
(377,145,cs),
(392,49,o),
(437,2,o),
(536,0,cs),
(542,0,ls),
(632,0,o),
(706,45,o),
(706,140,cs),
(706,659,ls),
(706,681,o),
(689,699,o),
(666,699,cs)
);
}
);
width = 766;
},
{
layerId = m002;
shapes = (
{
closed = 1;
nodes = (
(287,619,l),
(316,621,ls),
(340,623,o),
(356,645,o),
(356,666,cs),
(356,687,o),
(339,703,o),
(317,701,cs),
(189,689,ls),
(167,687,o),
(149,668,o),
(148,646,c),
(147,625,o),
(164,610,o),
(184,610,cs),
(188,610,l),
(207,612,l),
(151,80,l),
(125,78,ls),
(102,76,o),
(84,56,o),
(84,34,c),
(83,14,o),
(99,-2,o),
(119,-2,cs),
(123,-2,l),
(251,10,ls),
(274,12,o),
(292,32,o),
(292,54,cs),
(292,75,o),
(275,91,o),
(253,89,cs),
(232,87,l)
);
},
{
closed = 1;
nodes = (
(742,699,l),
(579,688,ls),
(555,686,o),
(538,664,o),
(538,644,cs),
(538,623,o),
(555,608,o),
(574,608,cs),
(578,608,l),
(697,616,l),
(647,140,ls),
(642,95,o),
(593,67,o),
(550,67,cs),
(467,67,o),
(473,141,o),
(473,141,c),
(473,173,o),
(462,198,o),
(438,198,cs),
(406,198,o),
(397,171,o),
(399,140,cs),
(404,49,o),
(445,1,o),
(542,0,cs),
(548,0,ls),
(639,0,o),
(717,45,o),
(727,140,cs),
(782,659,ls),
(784,681,o),
(769,699,o),
(746,699,cs)
);
}
);
width = 862;
}
);
unicode = 306;
},
{
color = 1;
glyphname = J;
lastChange = "2021-09-30 17:27:08 +0000";
layers = (
{
layerId = "24C63A81-7FC6-4EE9-AF2B-C1140AFD6C4B";
shapes = (
{
closed = 1;
nodes = (
(154,691,ls),
(132,690,o),
(116,671,o),
(118,650,cs),
(120,631,o),
(137,616,o),
(158,617,cs),
(280,624,l),
(280,190,ls),
(280,95,o),
(234,72,o),
(192,72,cs),
(133,72,o),
(108,110,o),
(108,148,cs),
(108,174,o),
(93,189,o),
(71,189,cs),
(48,189,o),
(33,171,o),
(34,141,cs),
(36,79,o),
(81,0,o),
(194,0,cs),
(292,0,o),
(360,59,o),
(360,190,cs),
(360,664,ls),
(360,684,o),
(343,702,o),
(320,701,cs)
);
}
);
width = 412;
},
{
layerId = m002;
shapes = (
{
closed = 1;
nodes = (
(186,691,ls),
(164,690,o),
(146,670,o),
(146,650,cs),
(146,631,o),
(161,616,o),
(182,617,cs),
(305,624,l),
(260,190,ls),
(250,95,o),
(201,72,o),
(159,72,cs),
(104,72,o),
(83,95,o),
(83,154,cs),
(83,176,o),
(71,189,o),
(50,189,cs),
(26,189,o),
(8,169,o),
(8,131,cs),
(8,71,o),
(47,0,o),
(154,0,cs),
(249,0,o),
(326,56,o),
(340,190,cs),
(389,664,ls),
(391,684,o),
(376,702,o),
(353,701,cs)
);
}
);
width = 393;
}
);
unicode = 74;
},
{
color = 1;
glyphname = K;
lastChange = "2021-09-30 17:27:27 +0000";
layers = (
{
anchors = (
{
name = bottom;
pos = (289,0);
},
{
name = top;
pos = (289,700);
}
);
layerId = "24C63A81-7FC6-4EE9-AF2B-C1140AFD6C4B";
shapes = (
{
closed = 1;
nodes = (
(405,258,o),
(329,305,o),
(241,327,c),
(277,354,o),
(402,509,o),
(505,634,cs),
(519,651,o),
(517,676,o),
(499,690,cs),
(482,704,o),
(457,701,o),
(443,684,cs),
(260,462,o),
(240,433,o),
(144,327,c),
(144,656,ls),
(144,678,o),
(127,696,o),
(104,696,cs),
(82,696,o),
(64,678,o),
(64,656,cs),
(64,40,ls),
(64,18,o),
(82,0,o),
(104,0,cs),
(127,0,o),
(144,18,o),
(144,40,cs),
(144,250,l),
(248,283,o),
(337,216,o),
(387,129,cs),
(414,82,o),
(424,38,o),
(428,27,cs),
(434,10,o),
(449,0,o),
(466,0,cs),
(494,0,o),
(514,27,o),
(501,62,cs),
(494,80,o),
(486,117,o),
(453,174,cs)
);
}
);
width = 568;
},
{
anchors = (
{
name = bottom;
pos = (255,0);
},
{
name = top;
pos = (328,700);
}
);
layerId = m002;
shapes = (
{
closed = 1;
nodes = (
(398,258,o),
(327,305,o),
(241,327,c),
(284,357,o),
(422,510,o),
(537,634,cs),
(553,651,o),
(555,674,o),
(537,690,cs),
(519,706,o),
(495,699,o),
(481,684,cs),
(229,412,o),
(211,393,o),
(144,327,c),
(179,656,ls),
(181,678,o),
(166,696,o),
(143,696,cs),
(122,696,o),
(101,678,o),
(99,656,cs),
(34,40,ls),
(32,16,o),
(49,0,o),
(70,0,cs),
(92,0,o),
(112,18,o),
(114,40,cs),
(136,250,l),
(238,282,o),
(323,221,o),
(366,130,cs),
(388,82,o),
(397,28,o),
(397,26,cs),
(401,10,o),
(415,0,o),
(432,0,cs),
(460,0,o),
(483,27,o),
(473,62,cs),
(468,79,o),
(467,110,o),
(437,174,cs)
);
}
);
width = 550;
}
);
unicode = 75;
},
{
color = 1;
glyphname = L;
lastChange = "2021-09-30 18:30:07 +0000";
layers = (
{
anchors = (
{
name = bottom;
pos = (252,0);
},
{
name = center;
pos = (252,350);
},
{
name = top;
pos = (105,700);
},
{
name = topright;
pos = (463,700);
}
);
layerId = "24C63A81-7FC6-4EE9-AF2B-C1140AFD6C4B";
shapes = (
{
closed = 1;
nodes = (
(82,697,o),
(64,680,o),
(64,657,cs),
(64,38,ls),
(64,16,o),
(82,0,o),
(104,0,cs),
(437,7,ls),
(459,7,o),
(474,29,o),
(471,50,cs),
(468,71,o),
(448,82,o),
(426,82,cs),
(154,81,ls),
(148,81,o),
(144,85,o),
(144,91,cs),
(144,657,ls),
(144,680,o),
(126,697,o),
(104,697,cs)
);
}
);
width = 499;
},
{
anchors = (
{
name = bottom;
pos = (211,0);
},
{
name = center;
pos = (248,350);
},
{
name = top;
pos = (138,700);
},
{
name = topright;
pos = (496,700);
}
);
layerId = m002;
shapes = (
{
closed = 1;
nodes = (
(114,697,o),
(94,680,o),
(92,657,cs),
(27,38,ls),
(25,16,o),
(41,0,o),
(63,0,cs),
(397,7,ls),
(417,7,o),
(436,26,o),
(435,53,cs),
(434,68,o),
(419,82,o),
(394,82,cs),
(122,82,ls),
(116,82,o),
(112,85,o),
(113,91,cs),
(172,657,ls),
(174,681,o),
(158,697,o),
(136,697,cs)
);
}
);
width = 445;
}
);
unicode = 76;
},
{
glyphname = Ldot;
lastChange = "2021-09-30 18:13:53 +0000";
layers = (
{
layerId = "24C63A81-7FC6-4EE9-AF2B-C1140AFD6C4B";
shapes = (
{
closed = 1;
nodes = (
(114,697,o),
(96,680,o),
(96,657,cs),
(96,40,ls),
(96,28,o),
(101,17,o),
(110,10,c),
(117,3,o),
(126,0,o),
(136,0,cs),
(142,0,l),
(469,21,ls),
(491,22,o),
(506,44,o),
(503,66,cs),
(500,88,o),
(480,101,o),
(458,100,cs),
(176,86,l),
(176,657,ls),
(176,680,o),
(158,697,o),
(136,697,cs)
);
},
{
closed = 1;
nodes = (
(286,362,o),
(261,337,o),
(261,307,cs),
(261,277,o),
(286,252,o),
(317,252,cs),
(348,252,o),
(372,277,o),
(372,307,cs),
(372,337,o),
(348,362,o),
(317,362,cs)
);
}
);
width = 547;
},
{
layerId = m002;
shapes = (
{
closed = 1;
nodes = (
(184,697,o),
(163,680,o),
(161,657,cs),
(96,40,ls),
(95,28,o),
(98,17,o),
(107,10,c),
(113,3,o),
(122,0,o),
(132,0,cs),
(138,0,l),
(469,21,ls),
(493,23,o),
(508,46,o),
(508,66,cs),
(508,87,o),
(489,101,o),
(466,100,cs),
(181,86,l),
(241,657,ls),
(243,680,o),
(227,697,o),
(205,697,cs)
);
},
{
closed = 1;
nodes = (
(318,362,o),
(289,333,o),
(289,301,cs),
(289,274,o),
(311,252,o),
(339,252,cs),
(372,252,o),
(400,281,o),
(400,313,cs),
(400,340,o),
(380,362,o),
(351,362,cs)
);
}
);
width = 552;
}
);
unicode = 319;
},
{
color = 1;
glyphname = M;
lastChange = "2021-09-30 17:29:38 +0000";
layers = (
{
layerId = "24C63A81-7FC6-4EE9-AF2B-C1140AFD6C4B";
shapes = (
{
closed = 1;
nodes = (
(112,714,o),
(44,714,o),
(44,638,cs),
(44,39,l),
(45,14,o),
(66,-1,o),
(86,1,cs),
(105,3,o),
(125,21,o),
(125,41,cs),
(126,163,o),
(126,438,o),
(126,570,c),
(161,522,o),
(265,332,o),
(304,332,cs),
(345,332,o),
(457,509,o),
(486,556,c),
(484,443,o),
(482,154,o),
(485,41,cs),
(486,16,o),
(510,4,o),
(527,4,cs),
(545,4,o),
(566,18,o),
(566,43,cs),
(568,150,o),
(569,512,o),
(566,654,cs),
(565,715,o),
(501,711,o),
(477,670,cs),
(429,588,o),
(364,517,o),
(314,434,cs),
(310,427,o),
(304,427,o),
(300,434,cs),
(255,519,o),
(191,616,o),
(139,681,cs)
);
}
);
width = 612;
},
{
layerId = m002;
shapes = (
{
closed = 1;
nodes = (
(173,715,o),
(105,714,o),
(97,638,cs),
(34,39,l),
(32,14,o),
(52,-1,o),
(72,1,cs),
(92,3,o),
(113,21,o),
(115,41,cs),
(131,180,o),
(156,422,o),
(172,570,c),
(202,522,o),
(286,332,o),
(325,332,cs),
(366,332,o),
(496,509,o),
(530,556,c),
(511,399,o),
(475,63,o),
(475,38,cs),
(475,15,o),
(498,4,o),
(513,4,cs),
(529,4,o),
(553,14,o),
(557,46,cs),
(574,185,o),
(621,637,o),
(621,661,cs),
(621,715,o),
(560,709,o),
(534,671,cs),
(476,587,o),
(407,520,o),
(347,436,cs),
(340,426,o),
(334,427,o),
(331,435,cs),
(295,519,o),
(244,613,o),
(197,680,cs)
);
}
);
width = 647;
}
);
unicode = 77;
},
{
color = 1;
glyphname = N;
lastChange = "2021-09-30 18:14:57 +0000";
layers = (
{
anchors = (
{
name = bottom;
pos = (294,0);
},
{
name = top;
pos = (294,700);
}
);
layerId = "24C63A81-7FC6-4EE9-AF2B-C1140AFD6C4B";
shapes = (
{
closed = 1;
nodes = (
(472,699,o),
(454,681,o),
(454,649,cs),
(456,192,ls),
(456,183,o),
(449,179,o),
(444,188,cs),
(131,680,ls),
(122,695,o),
(101,703,o),
(83,698,cs),
(66,693,o),
(54,677,o),
(54,655,cs),
(56,55,ls),
(56,23,o),
(74,5,o),
(96,5,cs),
(118,5,o),
(136,23,o),
(136,55,c),
(134,510,l),
(134,519,o),
(141,523,o),
(146,514,c),
(460,13,ls),
(468,0,o),
(480,-7,o),
(494,-7,cs),
(518,-7,o),
(534,12,o),
(534,33,cs),
(534,649,ls),
(534,681,o),
(516,699,o),
(494,699,cs)
);
}
);
width = 588;
},
{
anchors = (
{
name = bottom;
pos = (284,0);
},
{
name = top;
pos = (284,700);
}
);
associatedMasterId = "24C63A81-7FC6-4EE9-AF2B-C1140AFD6C4B";
layerId = "432C97B5-A344-444F-A438-467C1042B904";
name = "Jun 12 19, 00:13";
shapes = (
{
closed = 1;
nodes = (
(462,699,o),
(444,681,o),
(444,649,cs),
(446,159,l),
(121,680,ls),
(111,695,o),
(91,703,o),
(73,698,cs),
(56,693,o),
(44,677,o),
(44,655,cs),
(46,55,ls),
(46,23,o),
(64,5,o),
(86,5,cs),
(108,5,o),
(126,23,o),
(126,55,cs),
(124,533,l),
(450,13,ls),
(459,0,o),
(470,-7,o),
(484,-7,cs),
(508,-7,o),
(524,12,o),
(524,33,cs),
(524,649,ls),
(524,681,o),
(506,699,o),
(484,699,cs)
);
}
);
width = 568;
},
{
anchors = (
{
name = bottom;
pos = (276,0);
},
{
name = top;
pos = (350,700);
}
);
layerId = m002;
shapes = (
{
closed = 1;
nodes = (
(528,699,o),
(507,681,o),
(504,649,cs),
(458,192,ls),
(457,183,o),
(451,179,o),
(446,188,cs),
(185,680,ls),
(177,695,o),
(157,703,o),
(139,698,cs),
(121,693,o),
(107,677,o),
(105,655,cs),
(44,55,ls),
(41,25,o),
(55,5,o),
(79,5,cs),
(100,5,o),
(121,23,o),
(124,55,c),
(170,510,l),
(171,519,o),
(178,523,o),
(182,514,c),
(444,13,ls),
(450,1,o),
(461,-7,o),
(475,-7,cs),
(500,-7,o),
(518,12,o),
(520,33,cs),
(584,649,ls),
(587,680,o),
(573,699,o),
(550,699,cs)
);
}
);
width = 628;
},
{
anchors = (
{
name = bottom;
pos = (284,0);
},
{
name = top;
pos = (284,700);
}
);
associatedMasterId = m002;
layerId = "04BF4D68-954D-4B02-B69D-B2F03DFF255A";
name = "Jun 12 19, 00:13";
shapes = (
{
closed = 1;
nodes = (
(462,699,o),
(444,681,o),
(444,649,cs),
(446,159,l),
(121,680,ls),
(111,695,o),
(91,703,o),
(73,698,cs),
(56,693,o),
(44,677,o),
(44,655,cs),
(46,55,ls),
(46,23,o),
(64,5,o),
(86,5,cs),
(108,5,o),
(126,23,o),
(126,55,cs),
(124,533,l),
(450,13,ls),
(459,0,o),
(470,-7,o),
(484,-7,cs),
(508,-7,o),
(524,12,o),
(524,33,cs),
(524,649,ls),
(524,681,o),
(506,699,o),
(484,699,cs)
);
}
);
width = 568;
}
);
unicode = 78;
},
{
color = 7;
glyphname = O;
kernLeft = upRounded;
kernRight = upRounded;
lastChange = "2021-09-30 18:32:25 +0000";
layers = (
{
anchors = (
{
name = bottom;
pos = (344,0);
},
{
name = center;
pos = (344,350);
},
{
name = ogonek;
pos = (620,10);
},
{
name = top;
pos = (344,700);
},
{
name = topleft;
pos = (18,700);
},
{
name = topright;
pos = (628,750);
},
{
name = wagger;
pos = (522,92);
}
);
layerId = "24C63A81-7FC6-4EE9-AF2B-C1140AFD6C4B";
shapes = (
{
closed = 1;
nodes = (
(161,707,o),
(42,572,o),
(42,348,cs),
(42,140,o),
(147,-2,o),
(344,-2,cs),
(564,-2,o),
(645,174,o),
(645,351,cs),
(645,569,o),
(523,707,o),
(344,707,cs)
);
},
{
closed = 1;
nodes = (
(480,629,o),
(565,514,o),
(565,348,cs),
(565,179,o),
(478,78,o),
(344,78,cs),
(206,78,o),
(123,179,o),
(123,348,cs),
(123,518,o),
(206,629,o),
(344,629,cs)
);
}
);
width = 687;
},
{
associatedMasterId = "24C63A81-7FC6-4EE9-AF2B-C1140AFD6C4B";
layerId = "AB693263-3AC4-46D7-B75F-7F180A7E0565";
name = "Dec 24 18, 15:49";
shapes = (
{
closed = 1;
nodes = (
(185,707,o),
(40,552,o),
(40,338,cs),
(40,160,o),
(172,-2,o),
(342,-2,cs),
(535,-2,o),
(643,194,o),
(643,338,cs),
(643,549,o),
(499,707,o),
(342,707,cs)
);
},
{
closed = 1;
nodes = (
(462,627,o),
(563,474,o),
(563,338,cs),
(563,199,o),
(460,77,o),
(342,77,cs),
(224,77,o),
(121,199,o),
(121,338,cs),
(121,478,o),
(224,627,o),
(342,627,cs)
);
}
);
width = 688;
},
{
anchors = (
{
name = bottom;
pos = (303,0);
},
{
name = center;
pos = (339,350);
},
{
name = ogonek;
pos = (580,10);
},
{
name = top;
pos = (376,700);
},
{
name = topleft;
pos = (50,700);
},
{
name = topright;
pos = (665,750);
},
{
name = wagger;
pos = (490,92);
}
);
layerId = m002;
shapes = (
{
closed = 1;
nodes = (
(175,707,o),
(34,536,o),
(34,289,cs),
(34,114,o),
(125,-2,o),
(302,-2,cs),
(516,-2,o),
(644,177,o),
(644,408,cs),
(644,592,o),
(540,707,o),
(377,707,cs)
);
},
{
closed = 1;
nodes = (
(491,629,o),
(563,536,o),
(563,395,cs),
(563,207,o),
(460,78,o),
(311,78,cs),
(187,78,o),
(116,160,o),
(116,299,cs),
(116,493,o),
(220,629,o),
(369,629,cs)
);
}
);
width = 679;
},
{
associatedMasterId = m002;
layerId = "990B4DE3-F83A-4BCC-BFDF-7AFEA87C746E";
name = "Dec 24 18, 15:49";
shapes = (
{
closed = 1;
nodes = (
(185,707,o),
(40,552,o),
(40,338,cs),
(40,160,o),
(172,-2,o),
(342,-2,cs),
(535,-2,o),
(643,194,o),
(643,338,cs),
(643,549,o),
(499,707,o),
(342,707,cs)
);
},
{
closed = 1;
nodes = (
(462,627,o),
(563,474,o),
(563,338,cs),
(563,199,o),
(460,77,o),
(342,77,cs),
(224,77,o),
(121,199,o),
(121,338,cs),
(121,478,o),
(224,627,o),
(342,627,cs)
);
}
);
width = 688;
}
);
unicode = 79;
},
{
color = 1;
glyphname = P;
lastChange = "2021-09-30 16:51:50 +0000";
layers = (
{
layerId = "24C63A81-7FC6-4EE9-AF2B-C1140AFD6C4B";
shapes = (
{
closed = 1;
nodes = (
(148,700,o),
(44,680,o),
(44,623,cs),
(44,592,o),
(73,584,o),
(96,592,c),
(96,281,l),
(96,40,ls),
(96,18,o),
(114,0,o),
(136,0,cs),
(158,0,o),
(176,18,o),
(176,40,cs),
(176,217,l),
(305,240,o),
(535,315,o),
(535,494,cs),
(535,629,o),
(401,717,o),
(218,705,cs)
);
},
{
closed = 1;
nodes = (
(176,618,l),
(281,646,o),
(455,615,o),
(455,494,cs),
(455,368,o),
(263,318,o),
(176,298,c)
);
}
);
width = 579;
},
{
layerId = m002;
shapes = (
{
closed = 1;
nodes = (
(165,700,o),
(53,679,o),
(53,618,cs),
(53,590,o),
(81,585,o),
(102,592,c),
(69,281,l),
(44,40,ls),
(42,18,o),
(58,0,o),
(80,0,cs),
(101,0,o),
(122,18,o),
(124,40,cs),
(143,217,l),
(274,240,o),
(532,321,o),
(532,515,cs),
(532,638,o),
(409,717,o),
(236,705,cs)
);
},
{
closed = 1;
nodes = (
(185,618,l),
(289,645,o),
(451,617,o),
(451,507,cs),
(451,367,o),
(226,315,o),
(151,298,c)
);
}
);
width = 576;
}
);
unicode = 80;
},
{
color = 7;
glyphname = Q;
kernLeft = upRounded;
kernRight = upRounded;
lastChange = "2021-09-30 18:42:35 +0000";
layers = (
{
background = {
shapes = (
{
closed = 0;
nodes = (
(402,-24,ls)
);
},
{
closed = 0;
nodes = (
(345,10,l)
);
}
);
};
layerId = "24C63A81-7FC6-4EE9-AF2B-C1140AFD6C4B";
shapes = (
{
ref = O;
},
{
pos = (440,83);
ref = _part.wagger;
}
);
width = 687;
},
{
associatedMasterId = "24C63A81-7FC6-4EE9-AF2B-C1140AFD6C4B";
layerId = "98949509-DDAA-4D1F-81D9-4A87BC8CFC50";
name = "Dec 24 18, 15:51";
shapes = (
{
closed = 1;
nodes = (
(547,111,o),
(537,121,o),
(526,130,c),
(562,191,o),
(579,265,o),
(579,329,cs),
(579,532,o),
(470,701,o),
(308,701,cs),
(142,701,o),
(36,528,o),
(36,329,cs),
(36,181,o),
(117,1,o),
(308,1,cs),
(380,1,o),
(436,28,o),
(478,69,c),
(487,61,o),
(494,53,o),
(502,44,cs),
(520,23,o),
(542,5,o),
(567,25,cs),
(594,46,o),
(579,76,o),
(556,101,cs)
);
},
{
closed = 1;
nodes = (
(420,631,o),
(499,487,o),
(499,329,cs),
(499,271,o),
(486,217,o),
(463,174,c),
(369,227,o),
(249,245,o),
(139,202,c),
(124,240,o),
(116,283,o),
(116,329,cs),
(116,492,o),
(198,631,o),
(308,631,cs)
);
},
{
closed = 1;
nodes = (
(256,71,o),
(213,94,o),
(180,132,c),
(260,161,o),
(344,156,o),
(418,115,c),
(387,87,o),
(350,71,o),
(308,71,cs)
);
}
);
width = 630;
},
{
associatedMasterId = "24C63A81-7FC6-4EE9-AF2B-C1140AFD6C4B";
layerId = "5D9B56D8-1DF9-4C3E-84B0-BE07E59BB6EE";
name = "29 Sep 21, 18:03";
shapes = (
{
closed = 1;
nodes = (
(591,111,o),
(580,121,o),
(569,130,c),
(607,191,o),
(628,264,o),
(628,328,cs),
(628,531,o),
(508,701,o),
(334,701,cs),
(156,701,o),
(44,528,o),
(44,329,cs),
(44,181,o),
(129,1,o),
(334,1,cs),
(412,1,o),
(472,28,o),
(517,69,c),
(527,61,o),
(534,53,o),
(543,44,cs),
(562,23,o),
(586,5,o),
(613,25,cs),
(642,46,o),
(626,76,o),
(601,101,cs)
);
},
{
closed = 1;
nodes = (
(455,631,o),
(546,487,o),
(546,329,cs),
(546,271,o),
(526,217,o),
(501,174,c),
(400,227,o),
(271,245,o),
(153,202,c),
(137,240,o),
(124,283,o),
(124,329,cs),
(124,492,o),
(216,631,o),
(334,631,cs)
);
},
{
closed = 1;
nodes = (
(278,71,o),
(232,94,o),
(190,140,c),
(283,173,o),
(373,156,o),
(453,115,c),
(419,87,o),
(379,71,o),
(334,71,cs)
);
}
);
width = 673;
},
{
background = {
shapes = (
{
closed = 0;
nodes = (
(402,-24,ls)
);
},
{
closed = 0;
nodes = (
(345,10,l)
);
}
);
};
layerId = m002;
shapes = (
{
ref = O;
},
{
pos = (408,83);
ref = _part.wagger;
}
);
width = 679;
},
{
associatedMasterId = m002;
layerId = "00611F52-C116-463E-AFBE-229F54A75910";
name = "Dec 24 18, 15:51";
shapes = (
{
closed = 1;
nodes = (
(547,111,o),
(537,121,o),
(526,130,c),
(562,191,o),
(579,265,o),
(579,329,cs),
(579,532,o),
(470,701,o),
(308,701,cs),
(142,701,o),
(36,528,o),
(36,329,cs),
(36,181,o),
(117,1,o),
(308,1,cs),
(380,1,o),
(436,28,o),
(478,69,c),
(487,61,o),
(494,53,o),
(502,44,cs),
(520,23,o),
(542,5,o),
(567,25,cs),
(594,46,o),
(579,76,o),
(556,101,cs)
);
},
{
closed = 1;
nodes = (
(420,631,o),
(499,487,o),
(499,329,cs),
(499,271,o),
(486,217,o),
(463,174,c),
(369,227,o),
(249,245,o),
(139,202,c),
(124,240,o),
(116,283,o),
(116,329,cs),
(116,492,o),
(198,631,o),
(308,631,cs)
);
},
{
closed = 1;
nodes = (
(256,71,o),
(213,94,o),
(180,132,c),
(260,161,o),
(344,156,o),
(418,115,c),
(387,87,o),
(350,71,o),
(308,71,cs)
);
}
);
width = 630;
},
{
associatedMasterId = m002;
layerId = "234DEC5B-2C0C-47DD-BB93-9764620FD106";
name = "29 Sep 21, 18:03";
shapes = (
{
closed = 1;
nodes = (
(591,111,o),
(580,121,o),
(569,130,c),
(607,191,o),
(628,264,o),
(628,328,cs),
(628,531,o),
(508,701,o),
(334,701,cs),
(156,701,o),
(44,528,o),
(44,329,cs),
(44,181,o),
(129,1,o),
(334,1,cs),
(412,1,o),
(472,28,o),
(517,69,c),
(527,61,o),
(534,53,o),
(543,44,cs),
(562,23,o),
(586,5,o),
(613,25,cs),
(642,46,o),
(626,76,o),
(601,101,cs)
);
},
{
closed = 1;
nodes = (
(455,631,o),
(546,487,o),
(546,329,cs),
(546,271,o),
(526,217,o),
(501,174,c),
(400,227,o),
(271,245,o),
(153,202,c),
(137,240,o),
(124,283,o),
(124,329,cs),
(124,492,o),
(216,631,o),
(334,631,cs)
);
},
{
closed = 1;
nodes = (
(278,71,o),
(232,94,o),
(190,140,c),
(283,173,o),
(373,156,o),
(453,115,c),
(419,87,o),
(379,71,o),
(334,71,cs)
);
}
);
width = 673;
},
{
associatedMasterId = "24C63A81-7FC6-4EE9-AF2B-C1140AFD6C4B";
background = {
shapes = (
{
closed = 0;
nodes = (
(662,-24,ls)
);
},
{
closed = 0;
nodes = (
(605,10,l)
);
}
);
};
layerId = "96A5277E-AA34-4626-A0F0-F141C425004B";
name = "30 Sep 21, 14:01";
shapes = (
{
closed = 1;
nodes = (
(566,-2,o),
(647,174,o),
(647,351,cs),
(647,569,o),
(525,707,o),
(346,707,cs),
(163,707,o),
(44,572,o),
(44,348,cs),
(44,140,o),
(149,-2,o),
(346,-2,cs)
);
},
{
closed = 1;
nodes = (
(208,78,o),
(125,179,o),
(125,348,cs),
(125,518,o),
(208,629,o),
(346,629,cs),
(482,629,o),
(567,514,o),
(567,348,cs),
(567,179,o),
(480,78,o),
(346,78,cs)
);
},
{
closed = 1;
nodes = (
(600,71,o),
(610,19,o),
(570,19,cs),
(550,19,o),
(536,32,o),
(536,47,cs),
(536,54,o),
(539,61,o),
(545,68,cs),
(559,83,o),
(564,92,o),
(564,95,cs),
(564,110,o),
(486,63,o),
(486,44,cs),
(486,0,o),
(511,-55,o),
(589,-55,cs),
(650,-55,o),
(691,-12,o),
(692,24,cs),
(693,43,o),
(682,68,o),
(649,69,cs)
);
}
);
width = 716;
},
{
associatedMasterId = m002;
background = {
shapes = (
{
closed = 0;
nodes = (
(662,-24,ls)
);
},
{
closed = 0;
nodes = (
(605,10,l)
);
}
);
};
layerId = "9E2231D5-C3B9-48EC-B068-7097C42EB17B";
name = "30 Sep 21, 14:01";
shapes = (
{
closed = 1;
nodes = (
(566,-2,o),
(647,174,o),
(647,351,cs),
(647,569,o),
(525,707,o),
(346,707,cs),
(163,707,o),
(44,572,o),
(44,348,cs),
(44,140,o),
(149,-2,o),
(346,-2,cs)
);
},
{
closed = 1;
nodes = (
(208,78,o),
(125,179,o),
(125,348,cs),
(125,518,o),
(208,629,o),
(346,629,cs),
(482,629,o),
(567,514,o),
(567,348,cs),
(567,179,o),
(480,78,o),
(346,78,cs)
);
},
{
closed = 1;
nodes = (
(600,71,o),
(610,19,o),
(570,19,cs),
(550,19,o),
(536,32,o),
(536,47,cs),
(536,54,o),
(539,61,o),
(545,68,cs),
(559,83,o),
(564,92,o),
(564,95,cs),
(564,110,o),
(486,63,o),
(486,44,cs),
(486,0,o),
(511,-55,o),
(589,-55,cs),
(650,-55,o),
(691,-12,o),
(692,24,cs),
(693,43,o),
(682,68,o),
(649,69,cs)
);
}
);
width = 716;
}
);
metricLeft = O;
metricRight = "=O-20";
unicode = 81;
},
{
color = 1;
glyphname = R;
lastChange = "2021-09-30 18:30:17 +0000";
layers = (
{
anchors = (
{
name = bottom;
pos = (287,0);
},
{
name = top;
pos = (287,700);
}
);
layerId = "24C63A81-7FC6-4EE9-AF2B-C1140AFD6C4B";
shapes = (
{
closed = 1;
nodes = (
(142,694,o),
(44,683,o),
(44,633,cs),
(44,609,o),
(65,594,o),
(90,599,c),
(90,50,ls),
(90,18,o),
(108,0,o),
(130,0,cs),
(152,0,o),
(170,18,o),
(170,50,cs),
(170,259,l),
(183,260,o),
(198,260,o),
(216,259,cs),
(338,256,o),
(409,192,o),
(448,52,cs),
(463,-1,o),
(488,-4,o),
(506,1,cs),
(524,6,o),
(538,22,o),
(526,66,cs),
(496,178,o),
(430,285,o),
(303,309,c),
(480,351,o),
(518,449,o),
(518,521,cs),
(518,656,o),
(400,717,o),
(239,703,cs)
);
},
{
closed = 1;
nodes = (
(359,633,o),
(438,603,o),
(438,517,cs),
(438,411,o),
(296,360,o),
(170,340,c),
(170,618,l),
(189,622,o),
(217,625,o),
(247,627,cs)
);
}
);
width = 574;
},
{
anchors = (
{
name = bottom;
pos = (236,0);
},
{
name = top;
pos = (309,700);
}
);
layerId = m002;
shapes = (
{
closed = 1;
nodes = (
(164,694,o),
(59,683,o),
(59,629,cs),
(59,607,o),
(78,594,o),
(102,599,c),
(44,50,ls),
(41,20,o),
(55,0,o),
(79,0,cs),
(100,0,o),
(121,18,o),
(124,50,cs),
(146,259,l),
(161,260,o),
(172,260,o),
(192,259,cs),
(314,255,o),
(378,192,o),
(402,54,cs),
(412,-2,o),
(436,-4,o),
(455,1,cs),
(473,6,o),
(489,22,o),
(482,64,cs),
(463,180,o),
(409,285,o),
(284,309,c),
(466,351,o),
(523,453,o),
(523,544,cs),
(523,657,o),
(423,717,o),
(262,703,cs)
);
},
{
closed = 1;
nodes = (
(368,633,o),
(442,606,o),
(442,530,cs),
(442,414,o),
(283,360,o),
(154,340,c),
(184,618,l),
(203,622,o),
(237,626,o),
(262,627,cs)
);
}
);
width = 551;
}
);
unicode = 82;
},
{
glyphname = S;
lastChange = "2021-10-04 10:52:37 +0000";
layers = (
{
anchors = (
{
name = bottom;
pos = (256,0);
},
{
name = top;
pos = (256,700);
}
);
layerId = "24C63A81-7FC6-4EE9-AF2B-C1140AFD6C4B";
shapes = (
{
closed = 1;
nodes = (
(141,705,o),
(58,627,o),
(58,523,cs),
(58,397,o),
(177,353,o),
(256,325,cs),
(316,304,o),
(388,274,o),
(388,192,cs),
(388,123,o),
(326,84,o),
(256,84,cs),
(171,84,o),
(142,138,o),
(122,162,cs),
(112,174,o),
(103,182,o),
(86,182,cs),
(64,182,o),
(53,166,o),
(53,145,cs),
(53,93,o),
(129,0,o),
(261,0,cs),
(383,0,o),
(470,78,o),
(470,194,cs),
(470,334,o),
(345,382,o),
(284,403,cs),
(231,422,o),
(142,455,o),
(142,525,cs),
(142,574,o),
(183,625,o),
(257,625,cs),
(356,625,o),
(371,538,o),
(416,538,cs),
(437,538,o),
(449,557,o),
(449,577,cs),
(449,631,o),
(359,705,o),
(252,705,cs)
);
}
);
width = 514;
},
{
associatedMasterId = "24C63A81-7FC6-4EE9-AF2B-C1140AFD6C4B";
layerId = "DA63DA80-EED1-4716-B690-A9768DCE586E";
name = "Dec 24 18, 15:53";
shapes = (
{
closed = 1;
nodes = (
(170,692,o),
(74,616,o),
(60,535,cs),
(41,422,o),
(143,368,o),
(257,325,cs),
(363,285,o),
(396,239,o),
(388,181,cs),
(380,123,o),
(314,81,o),
(258,82,cs),
(143,84,o),
(137,130,o),
(134,144,cs),
(124,193,o),
(44,175,o),
(51,125,c),
(70,36,o),
(173,0,o),
(250,0,cs),
(345,0,o),
(450,58,o),
(467,160,cs),
(476,213,o),
(483,328,o),
(285,403,cs),
(232,423,o),
(129,450,o),
(142,518,cs),
(150,567,o),
(195,611,o),
(252,611,cs),
(338,611,o),
(362,578,o),
(386,551,cs),
(405,529,o),
(429,535,o),
(441,551,cs),
(453,566,o),
(454,590,o),
(434,612,cs),
(420,627,o),
(366,692,o),
(249,692,cs)
);
}
);
width = 511;
},
{
anchors = (
{
name = bottom;
pos = (256,0);
},
{
name = top;
pos = (256,700);
}
);
associatedMasterId = "24C63A81-7FC6-4EE9-AF2B-C1140AFD6C4B";
layerId = "893653F4-63E1-498E-BFE7-A871FEDB29B8";
name = "Jun 12 19, 00:14";
shapes = (
{
closed = 1;
nodes = (
(141,705,o),
(58,627,o),
(58,523,cs),
(58,397,o),
(177,353,o),
(256,325,cs),
(316,304,o),
(388,274,o),
(388,192,cs),
(388,123,o),
(335,84,o),
(251,84,cs),
(180,84,o),
(155,111,o),
(134,132,cs),
(121,146,o),
(109,155,o),
(90,155,cs),
(66,155,o),
(48,139,o),
(48,114,cs),
(48,66,o),
(119,0,o),
(247,0,cs),
(383,0,o),
(470,78,o),
(470,194,cs),
(470,334,o),
(345,382,o),
(284,403,cs),
(231,422,o),
(143,454,o),
(143,524,cs),
(143,572,o),
(185,624,o),
(257,624,cs),
(356,624,o),
(371,538,o),
(416,538,cs),
(437,538,o),
(449,557,o),
(449,577,cs),
(449,631,o),
(359,705,o),
(252,705,cs)
);
}
);
width = 514;
},
{
anchors = (
{
name = bottom;
pos = (221,0);
},
{
name = top;
pos = (295,700);
}
);
layerId = m002;
shapes = (
{
closed = 1;
nodes = (
(173,705,o),
(77,615,o),
(77,503,cs),
(77,394,o),
(181,352,o),
(255,325,cs),
(310,305,o),
(374,278,o),
(374,206,cs),
(374,125,o),
(300,84,o),
(230,84,cs),
(145,84,o),
(122,138,o),
(104,162,cs),
(95,174,o),
(88,182,o),
(70,182,cs),
(48,182,o),
(33,164,o),
(33,139,cs),
(33,86,o),
(100,0,o),
(226,0,cs),
(358,0,o),
(457,92,o),
(457,217,cs),
(457,339,o),
(347,383,o),
(292,403,cs),
(243,421,o),
(163,451,o),
(163,516,cs),
(163,570,o),
(216,624,o),
(288,624,cs),
(387,624,o),
(393,538,o),
(438,538,cs),
(458,538,o),
(475,558,o),
(475,582,cs),
(475,636,o),
(394,705,o),
(291,705,cs)
);
}
);
width = 499;
},
{
associatedMasterId = m002;
layerId = "675BD71F-F5C0-4235-B6AC-62CE1CB70AAE";
name = "Dec 24 18, 15:53";
shapes = (
{
closed = 1;
nodes = (
(170,692,o),
(74,616,o),
(60,535,cs),
(41,422,o),
(143,368,o),
(257,325,cs),
(363,285,o),
(396,239,o),
(388,181,cs),
(380,123,o),
(314,81,o),
(258,82,cs),
(143,84,o),
(137,130,o),
(134,144,cs),
(124,193,o),
(44,175,o),
(51,125,c),
(70,36,o),
(173,0,o),
(250,0,cs),
(345,0,o),
(450,58,o),
(467,160,cs),
(476,213,o),
(483,328,o),
(285,403,cs),
(232,423,o),
(129,450,o),
(142,518,cs),
(150,567,o),
(195,611,o),
(252,611,cs),
(338,611,o),
(362,578,o),
(386,551,cs),
(405,529,o),
(429,535,o),
(441,551,cs),
(453,566,o),
(454,590,o),
(434,612,cs),
(420,627,o),
(366,692,o),
(249,692,cs)
);
}
);
width = 511;
},
{
anchors = (
{
name = bottom;
pos = (256,0);
},
{
name = top;
pos = (256,700);
}
);
associatedMasterId = m002;
layerId = "144D00F5-7799-41D9-9384-2DCF77F50FB2";
name = "Jun 12 19, 00:14";
shapes = (
{
closed = 1;
nodes = (
(141,705,o),
(58,627,o),
(58,523,cs),
(58,397,o),
(177,353,o),
(256,325,cs),
(316,304,o),
(388,274,o),
(388,192,cs),
(388,123,o),
(335,84,o),
(251,84,cs),
(180,84,o),
(155,111,o),
(134,132,cs),
(121,146,o),
(109,155,o),
(90,155,cs),
(66,155,o),
(48,139,o),
(48,114,cs),
(48,66,o),
(119,0,o),
(247,0,cs),
(383,0,o),
(470,78,o),
(470,194,cs),
(470,334,o),
(345,382,o),
(284,403,cs),
(231,422,o),
(143,454,o),
(143,524,cs),
(143,572,o),
(185,624,o),
(257,624,cs),
(356,624,o),
(371,538,o),
(416,538,cs),
(437,538,o),
(449,557,o),
(449,577,cs),
(449,631,o),
(359,705,o),
(252,705,cs)
);
}
);
width = 514;
}
);
unicode = 83;
},
{
color = 4;
glyphname = T;
lastChange = "2021-09-30 17:30:44 +0000";
layers = (
{
anchors = (
{
name = bottom;
pos = (265,0);
},
{
name = center;
pos = (265,350);
},
{
name = top;
pos = (265,700);
}
);
layerId = "24C63A81-7FC6-4EE9-AF2B-C1140AFD6C4B";
shapes = (
{
closed = 1;
nodes = (
(518,682,o),
(500,698,o),
(476,698,cs),
(58,695,ls),
(29,695,o),
(12,677,o),
(12,656,c),
(12,635,o),
(30,619,o),
(59,619,cs),
(223,621,l),
(223,42,ls),
(223,18,o),
(234,0,o),
(263,0,cs),
(292,0,o),
(303,18,o),
(303,42,cs),
(303,621,l),
(476,623,ls),
(500,623,o),
(518,640,o),
(518,662,cs)
);
}
);
width = 530;
},
{
anchors = (
{
name = bottom;
pos = (234,0);
},
{
name = center;
pos = (271,350);
},
{
name = top;
pos = (308,700);
}
);
layerId = m002;
shapes = (
{
closed = 1;
nodes = (
(557,684,o),
(541,698,o),
(518,698,cs),
(100,695,ls),
(70,695,o),
(52,675,o),
(50,656,c),
(48,635,o),
(64,619,o),
(93,619,cs),
(257,621,l),
(196,42,ls),
(193,15,o),
(206,0,o),
(232,0,cs),
(262,0,o),
(274,20,o),
(276,42,cs),
(337,621,l),
(511,623,ls),
(536,623,o),
(557,643,o),
(557,665,cs)
);
}
);
width = 547;
}
);
unicode = 84;
},
{
color = 1;
glyphname = U;
lastChange = "2021-09-30 18:31:25 +0000";
layers = (
{
anchors = (
{
name = bottom;
pos = (290,0);
},
{
name = ogonek;
pos = (422,95);
},
{
name = top;
pos = (300,700);
},
{
name = topright;
pos = (646,790);
}
);
layerId = "24C63A81-7FC6-4EE9-AF2B-C1140AFD6C4B";
shapes = (
{
closed = 1;
nodes = (
(485,697,o),
(467,676,o),
(469,653,cs),
(470,642,o),
(475,590,o),
(475,511,cs),
(475,379,o),
(456,209,o),
(389,127,cs),
(363,95,o),
(326,79,o),
(290,79,cs),
(257,79,o),
(225,92,o),
(201,117,cs),
(141,181,o),
(124,324,o),
(124,436,cs),
(124,549,o),
(137,635,o),
(138,644,cs),
(140,675,o),
(121,697,o),
(98,697,cs),
(78,697,o),
(59,680,o),
(55,655,cs),
(54,645,o),
(44,557,o),
(44,438,cs),
(44,209,o),
(103,0,o),
(290,0,cs),
(489,0,o),
(555,238,o),
(555,512,cs),
(555,594,o),
(551,648,o),
(549,661,cs),
(546,682,o),
(529,697,o),
(509,697,cs)
);
}
);
width = 599;
},
{
anchors = (
{
name = bottom;
pos = (241,0);
},
{
name = ogonek;
pos = (382,95);
},
{
name = top;
pos = (324,700);
},
{
name = topright;
pos = (680,790);
}
);
layerId = m002;
shapes = (
{
closed = 1;
nodes = (
(509,697,o),
(488,676,o),
(488,653,cs),
(488,641,o),
(488,594,o),
(479,510,cs),
(465,379,o),
(429,209,o),
(353,127,cs),
(325,96,o),
(285,79,o),
(249,79,cs),
(216,79,o),
(185,92,o),
(164,117,cs),
(127,161,o),
(114,243,o),
(114,329,cs),
(114,472,o),
(156,645,o),
(156,643,cs),
(162,676,o),
(144,697,o),
(122,697,cs),
(102,697,o),
(81,680,o),
(74,655,cs),
(74,653,o),
(34,458,o),
(34,321,cs),
(34,143,o),
(86,0,o),
(241,0,cs),
(432,0,o),
(569,272,o),
(569,654,cs),
(569,657,o),
(569,659,o),
(569,661,cs),
(569,682,o),
(552,697,o),
(533,697,cs)
);
}
);
width = 571;
}
);
unicode = 85;
},
{
color = 4;
glyphname = V;
kernLeft = topHeavyCap;
kernRight = topHeavyCap;
lastChange = "2021-09-30 17:31:40 +0000";
layers = (
{
layerId = "24C63A81-7FC6-4EE9-AF2B-C1140AFD6C4B";
shapes = (
{
closed = 1;
nodes = (
(38,695,o),
(27,671,o),
(34,650,cs),
(142,331,ls),
(181,218,o),
(238,60,o),
(270,21,cs),
(282,7,o),
(296,0,o),
(311,0,cs),
(328,0,o),
(348,10,o),
(356,38,cs),
(379,125,o),
(577,642,o),
(579,647,cs),
(587,668,o),
(577,691,o),
(557,699,cs),
(536,707,o),
(513,697,o),
(505,676,cs),
(498,660,o),
(372,312,o),
(311,121,cs),
(308,112,o),
(302,112,o),
(299,121,cs),
(277,186,o),
(234,310,o),
(210,382,cs),
(162,523,o),
(114,662,o),
(110,673,cs),
(103,694,o),
(82,705,o),
(60,700,cs)
);
}
);
width = 614;
},
{
layerId = m002;
shapes = (
{
closed = 1;
nodes = (
(63,695,o),
(49,671,o),
(54,650,cs),
(129,331,ls),
(155,220,o),
(196,60,o),
(224,21,cs),
(234,7,o),
(248,0,o),
(263,0,cs),
(280,0,o),
(301,10,o),
(312,39,cs),
(344,125,o),
(564,575,o),
(599,647,cs),
(609,668,o),
(601,691,o),
(582,699,cs),
(561,707,o),
(538,697,o),
(527,675,cs),
(519,660,o),
(343,282,o),
(275,121,cs),
(271,111,o),
(266,112,o),
(263,123,cs),
(248,189,o),
(219,310,o),
(202,382,cs),
(170,517,o),
(136,656,o),
(132,674,cs),
(127,694,o),
(108,705,o),
(85,700,cs)
);
}
);
width = 594;
}
);
unicode = 86;
},
{
color = 4;
glyphname = W;
kernLeft = topHeavyCap;
kernRight = topHeavyCap;
lastChange = "2021-09-30 17:31:49 +0000";
layers = (
{
anchors = (
{
name = bottom;
pos = (395,0);
},
{
name = top;
pos = (395,700);
}
);
layerId = "24C63A81-7FC6-4EE9-AF2B-C1140AFD6C4B";
shapes = (
{
closed = 1;
nodes = (
(702,701,o),
(687,690,o),
(680,672,c),
(571,123,ls),
(569,113,o),
(561,115,o),
(560,125,cs),
(547,257,o),
(517,419,o),
(502,481,cs),
(482,561,o),
(459,676,o),
(403,676,cs),
(320,676,o),
(303,488,o),
(237,128,cs),
(235,118,o),
(227,117,o),
(225,126,cs),
(111,669,l),
(110,689,o),
(92,701,o),
(73,701,cs),
(50,701,o),
(32,683,o),
(32,660,cs),
(32,648,o),
(72,481,o),
(107,334,cs),
(132,231,o),
(140,199,o),
(153,124,c),
(168,71,o),
(178,0,o),
(235,0,cs),
(279,0,o),
(292,44,o),
(309,122,cs),
(332,230,o),
(363,415,o),
(396,586,cs),
(398,596,o),
(406,595,o),
(408,586,cs),
(511,60,ls),
(521,16,o),
(552,4,o),
(564,4,cs),
(587,4,o),
(607,20,o),
(613,42,cs),
(624,81,o),
(758,655,o),
(758,662,cs),
(758,682,o),
(743,701,o),
(719,701,cs)
);
}
);
width = 790;
},
{
anchors = (
{
name = bottom;
pos = (347,0);
},
{
name = top;
pos = (420,700);
}
);
layerId = m002;
shapes = (
{
closed = 1;
nodes = (
(728,701,o),
(711,690,o),
(702,672,c),
(536,123,ls),
(531,107,o),
(525,115,o),
(525,138,cs),
(525,278,o),
(512,421,o),
(504,481,cs),
(493,561,o),
(482,676,o),
(426,676,cs),
(343,676,o),
(306,488,o),
(202,128,cs),
(199,118,o),
(191,117,o),
(190,126,cs),
(133,669,l),
(134,691,o),
(115,701,o),
(98,701,cs),
(75,701,o),
(53,680,o),
(53,659,cs),
(53,641,o),
(72,496,o),
(94,333,cs),
(108,231,o),
(113,195,o),
(118,124,c),
(127,71,o),
(130,0,o),
(187,0,cs),
(231,0,o),
(248,44,o),
(273,121,cs),
(308,230,o),
(358,413,o),
(409,585,cs),
(412,596,o),
(420,596,o),
(421,586,cs),
(469,60,ls),
(474,16,o),
(504,4,o),
(516,4,cs),
(539,4,o),
(561,20,o),
(569,42,cs),
(584,81,o),
(779,655,o),
(779,666,cs),
(779,684,o),
(767,701,o),
(744,701,cs)
);
}
);
width = 770;
}
);
metricLeft = V;
metricRight = V;
unicode = 87;
},
{
color = 4;
glyphname = X;
lastChange = "2021-09-30 17:31:25 +0000";
layers = (
{
layerId = "24C63A81-7FC6-4EE9-AF2B-C1140AFD6C4B";
shapes = (
{
closed = 1;
nodes = (
(341,344,ls),
(338,349,o),
(338,353,o),
(341,358,cs),
(546,638,ls),
(551,645,o),
(554,653,o),
(554,662,cs),
(554,674,o),
(548,686,o),
(537,694,cs),
(530,699,o),
(522,702,o),
(514,702,cs),
(502,702,o),
(489,696,o),
(482,685,cs),
(294,408,ls),
(292,405,o),
(290,403,o),
(287,403,cs),
(285,403,o),
(282,405,o),
(280,408,cs),
(92,685,ls),
(85,696,o),
(72,702,o),
(60,702,cs),
(52,702,o),
(43,699,o),
(36,694,cs),
(25,686,o),
(20,675,o),
(20,662,cs),
(20,654,o),
(23,645,o),
(28,638,cs),
(233,358,ls),
(236,353,o),
(236,349,o),
(233,344,cs),
(28,64,ls),
(23,57,o),
(20,48,o),
(20,40,cs),
(20,27,o),
(25,16,o),
(36,8,cs),
(43,3,o),
(52,0,o),
(60,0,cs),
(72,0,o),
(84,6,o),
(92,16,c),
(280,293,ls),
(282,297,o),
(285,298,o),
(287,298,cs),
(290,298,o),
(292,297,o),
(294,293,cs),
(482,16,ls),
(489,6,o),
(502,0,o),
(514,0,cs),
(522,0,o),
(530,3,o),
(537,8,cs),
(548,16,o),
(554,28,o),
(554,40,cs),
(554,49,o),
(551,57,o),
(546,64,cs)
);
}
);
width = 574;
},
{
layerId = m002;
shapes = (
{
closed = 1;
nodes = (
(376,344,ls),
(374,348,o),
(373,352,o),
(378,358,cs),
(612,638,ls),
(618,645,o),
(623,655,o),
(623,666,cs),
(623,676,o),
(618,687,o),
(609,694,cs),
(604,698,o),
(596,702,o),
(587,702,cs),
(573,702,o),
(560,694,o),
(553,685,cs),
(336,408,ls),
(334,405,o),
(331,403,o),
(328,403,cs),
(326,403,o),
(323,406,o),
(322,408,cs),
(163,685,ls),
(157,696,o),
(144,702,o),
(133,702,cs),
(123,702,o),
(114,698,o),
(108,694,cs),
(96,686,o),
(88,673,o),
(88,658,cs),
(88,650,o),
(91,643,o),
(94,638,cs),
(270,358,ls),
(273,353,o),
(271,348,o),
(268,344,cs),
(34,64,ls),
(29,58,o),
(23,48,o),
(23,35,cs),
(23,24,o),
(27,15,o),
(36,8,cs),
(42,3,o),
(51,0,o),
(59,0,cs),
(70,0,o),
(84,6,o),
(93,16,c),
(310,293,ls),
(312,296,o),
(315,298,o),
(317,298,cs),
(320,298,o),
(322,297,o),
(324,293,cs),
(483,16,ls),
(488,7,o),
(500,0,o),
(513,0,cs),
(522,0,o),
(531,4,o),
(537,8,cs),
(549,16,o),
(557,30,o),
(557,44,cs),
(557,50,o),
(556,58,o),
(552,64,cs)
);
}
);
width = 624;
}
);
unicode = 88;
},
{
color = 4;
glyphname = Y;
kernLeft = topHeavyCap;
kernRight = topHeavyCap;
lastChange = "2021-09-30 17:31:49 +0000";
layers = (
{
anchors = (
{
name = bottom;
pos = (205,0);
},
{
name = top;
pos = (275,700);
},
{
name = topleft;
pos = (40,700);
}
);
layerId = "24C63A81-7FC6-4EE9-AF2B-C1140AFD6C4B";
shapes = (
{
closed = 1;
nodes = (
(473,705,o),
(449,696,o),
(440,675,cs),
(301,333,ls),
(298,325,o),
(292,325,o),
(288,332,cs),
(108,678,ls),
(98,698,o),
(73,705,o),
(54,695,cs),
(34,685,o),
(26,661,o),
(37,641,cs),
(252,239,l),
(174,39,ls),
(166,19,o),
(177,-4,o),
(197,-12,cs),
(202,-14,o),
(207,-15,o),
(212,-15,cs),
(228,-15,o),
(243,-5,o),
(249,10,cs),
(276,79,o),
(301,149,o),
(328,218,cs),
(389,360,o),
(453,502,o),
(514,644,cs),
(523,664,o),
(513,688,o),
(493,696,c)
);
}
);
width = 549;
},
{
anchors = (
{
name = bottom;
pos = (157,0);
},
{
name = top;
pos = (300,700);
},
{
name = topleft;
pos = (65,700);
}
);
layerId = m002;
shapes = (
{
closed = 1;
nodes = (
(499,705,o),
(474,696,o),
(463,675,cs),
(288,333,ls),
(284,325,o),
(278,325,o),
(275,332,cs),
(131,678,ls),
(123,698,o),
(99,705,o),
(79,695,cs),
(58,685,o),
(47,662,o),
(56,641,cs),
(229,239,l),
(130,39,ls),
(120,20,o),
(128,-4,o),
(147,-12,cs),
(152,-14,o),
(158,-15,o),
(162,-15,cs),
(180,-15,o),
(195,-3,o),
(202,10,cs),
(236,79,o),
(270,155,o),
(303,218,cs),
(375,355,o),
(459,505,o),
(534,645,cs),
(544,663,o),
(537,688,o),
(518,696,c)
);
}
);
width = 530;
}
);
metricLeft = V;
metricRight = V;
unicode = 89;
},
{
color = 1;
glyphname = Z;
lastChange = "2021-09-30 18:33:02 +0000";
layers = (
{
anchors = (
{
name = bottom;
pos = (306,0);
},
{
name = center;
pos = (306,350);
},
{
name = top;
pos = (306,700);
}
);
layerId = "24C63A81-7FC6-4EE9-AF2B-C1140AFD6C4B";
shapes = (
{
closed = 1;
nodes = (
(507,699,o),
(392,685,o),
(234,686,cs),
(167,686,o),
(124,695,o),
(96,696,cs),
(73,697,o),
(53,685,o),
(49,664,cs),
(45,642,o),
(60,622,o),
(82,619,cs),
(112,615,o),
(309,591,o),
(480,620,cs),
(489,622,o),
(492,616,o),
(486,609,c),
(241,355,o),
(90,192,o),
(48,114,c),
(31,87,o),
(14,52,o),
(30,28,cs),
(59,-16,o),
(204,8,o),
(318,8,cs),
(435,8,o),
(508,-1,o),
(527,-1,c),
(549,-3,o),
(568,13,o),
(570,35,cs),
(571,57,o),
(555,77,o),
(533,78,c),
(526,79,o),
(458,88,o),
(338,89,cs),
(285,89,o),
(194,84,o),
(131,83,cs),
(122,83,o),
(118,86,o),
(123,93,cs),
(230,241,o),
(466,455,o),
(569,604,cs),
(578,617,o),
(598,650,o),
(580,678,cs),
(571,692,o),
(557,699,o),
(541,699,cs)
);
}
);
width = 612;
},
{
anchors = (
{
name = bottom;
pos = (273,0);
},
{
name = center;
pos = (310,350);
},
{
name = top;
pos = (347,700);
}
);
layerId = m002;
shapes = (
{
closed = 1;
nodes = (
(548,699,o),
(431,686,o),
(273,686,cs),
(206,686,o),
(161,695,o),
(136,696,cs),
(113,697,o),
(92,685,o),
(86,664,cs),
(80,642,o),
(92,622,o),
(114,619,cs),
(144,615,o),
(339,591,o),
(511,620,cs),
(522,622,o),
(524,616,o),
(517,609,c),
(245,355,o),
(77,190,o),
(27,114,c),
(9,89,o),
(-14,54,o),
(0,28,cs),
(24,-16,o),
(168,8,o),
(286,8,cs),
(403,8,o),
(475,-1,o),
(494,-1,c),
(517,-3,o),
(537,14,o),
(541,36,cs),
(544,55,o),
(530,78,o),
(508,78,c),
(501,79,o),
(434,89,o),
(314,89,cs),
(261,89,o),
(170,83,o),
(107,83,cs),
(98,83,o),
(94,86,o),
(100,93,cs),
(221,240,o),
(482,456,o),
(598,602,cs),
(610,617,o),
(633,651,o),
(619,677,cs),
(612,690,o),
(600,699,o),
(582,699,cs)
);
}
);
width = 610;
}
);
unicode = 90;
},
{
glyphname = a;
kernLeft = downRounded;
kernRight = downRounded;
lastChange = "2021-09-30 18:24:00 +0000";
layers = (
{
anchors = (
{
name = bottom;
pos = (234,0);
},
{
name = ogonek;
pos = (419,58);
},
{
name = top;
pos = (266,528);
}
);
background = {
shapes = (
{
closed = 0;
nodes = (
(308,259,ls)
);
},
{
closed = 0;
nodes = (
(279,329,ls)
);
}
);
};
layerId = "24C63A81-7FC6-4EE9-AF2B-C1140AFD6C4B";
shapes = (
{
closed = 1;
nodes = (
(31,52,o),
(101,-5,o),
(204,-5,cs),
(262,-5,o),
(324,19,o),
(350,60,c),
(348,21,o),
(367,-1,o),
(392,-1,cs),
(415,-1,o),
(429,17,o),
(429,42,cs),
(429,113,o),
(429,320,o),
(429,337,cs),
(429,440,o),
(353,489,o),
(232,489,cs),
(124,489,o),
(83,450,o),
(70,436,cs),
(46,411,o),
(48,390,o),
(61,377,cs),
(78,360,o),
(104,367,o),
(119,379,cs),
(138,394,o),
(168,418,o),
(238,418,cs),
(314,418,o),
(349,388,o),
(350,353,cs),
(351,324,o),
(331,324,o),
(302,324,cs),
(157,324,o),
(31,265,o),
(31,143,cs)
);
},
{
closed = 1;
nodes = (
(111,210,o),
(183,233,o),
(232,242,cs),
(289,252,o),
(343,248,o),
(356,257,c),
(356,218,o),
(356,199,o),
(356,174,c),
(353,103,o),
(255,69,o),
(201,69,cs),
(153,69,o),
(111,99,o),
(111,147,cs)
);
}
);
width = 477;
},
{
associatedMasterId = "24C63A81-7FC6-4EE9-AF2B-C1140AFD6C4B";
layerId = "16B85804-1729-42C2-9B17-B945E082A543";
name = "Dec 24 18, 16:07";
shapes = (
{
closed = 1;
nodes = (
(363,104,o),
(372,132,o),
(376,180,cs),
(384,265,o),
(388,370,o),
(334,435,cs),
(251,536,o),
(127,465,o),
(69,420,cs),
(49,405,o),
(29,373,o),
(50,353,cs),
(70,334,o),
(94,345,o),
(115,361,cs),
(171,403,o),
(302,470,o),
(302,268,c),
(222,341,o),
(67,304,o),
(42,174,cs),
(6,-12,o),
(204,-44,o),
(318,58,c),
(326,34,o),
(351,13,o),
(377,13,cs),
(392,13,o),
(407,22,o),
(413,37,c),
(421,54,o),
(417,76,o),
(395,88,c)
);
},
{
closed = 1;
nodes = (
(283,104,o),
(233,82,o),
(203,78,cs),
(151,71,o),
(98,94,o),
(111,158,c),
(124,208,o),
(164,231,o),
(203,232,cs),
(265,233,o),
(319,190,o),
(294,130,cs)
);
},
{
closed = 1;
nodes = (
(337,56,o),
(337,60,o),
(339,64,c),
(337,60,o),
(337,55,o),
(337,51,c)
);
}
);
width = 447;
},
{
associatedMasterId = "24C63A81-7FC6-4EE9-AF2B-C1140AFD6C4B";
layerId = "6758C538-A3F1-4E4C-B151-7B223B95FCA5";
name = "Dec 24 18, 16:12";
shapes = (
{
closed = 1;
nodes = (
(419,73,o),
(404,76,cs),
(389,80,o),
(372,85,o),
(372,112,cs),
(372,139,o),
(381,218,o),
(381,265,cs),
(381,328,o),
(371,391,o),
(334,435,cs),
(303,473,o),
(266,487,o),
(229,487,cs),
(167,487,o),
(104,448,o),
(79,429,cs),
(54,410,o),
(41,391,o),
(41,374,cs),
(41,356,o),
(57,343,o),
(74,343,cs),
(88,343,o),
(102,351,o),
(115,361,cs),
(141,381,o),
(185,406,o),
(223,406,cs),
(266,406,o),
(312,365,o),
(312,248,c),
(285,283,o),
(239,305,o),
(186,305,cs),
(107,305,o),
(26,256,o),
(26,150,cs),
(26,64,o),
(80,1,o),
(185,1,cs),
(252,1,o),
(296,28,o),
(318,68,c),
(319,34,o),
(341,3,o),
(387,3,cs),
(420,3,o),
(432,21,o),
(432,41,cs),
(432,61,o)
);
},
{
closed = 1;
nodes = (
(300,109,o),
(259,77,o),
(202,77,cs),
(150,77,o),
(109,105,o),
(109,155,cs),
(109,204,o),
(145,232,o),
(199,232,cs),
(259,232,o),
(300,196,o),
(300,153,cs)
);
}
);
width = 447;
},
{
associatedMasterId = "24C63A81-7FC6-4EE9-AF2B-C1140AFD6C4B";
layerId = "1A13100F-B483-421C-9972-80E55A36E9C4";
name = "Dec 24 18, 16:22";
shapes = (
{
closed = 1;
nodes = (
(419,73,o),
(404,76,cs),
(389,80,o),
(372,85,o),
(372,112,cs),
(372,139,o),
(381,218,o),
(381,265,cs),
(381,406,o),
(331,487,o),
(202,487,cs),
(90,487,o),
(15,425,o),
(15,378,cs),
(15,357,o),
(31,343,o),
(48,343,cs),
(81,343,o),
(96,406,o),
(188,406,cs),
(253,406,o),
(302,375,o),
(302,248,c),
(275,283,o),
(239,305,o),
(186,305,cs),
(107,305,o),
(26,256,o),
(26,154,cs),
(26,64,o),
(80,1,o),
(185,1,cs),
(252,1,o),
(296,28,o),
(318,68,c),
(319,34,o),
(341,3,o),
(387,3,cs),
(420,3,o),
(432,21,o),
(432,41,cs),
(432,61,o)
);
},
{
closed = 1;
nodes = (
(300,109,o),
(259,77,o),
(202,77,cs),
(150,77,o),
(109,105,o),
(109,155,cs),
(109,204,o),
(145,232,o),
(199,232,cs),
(259,232,o),
(300,196,o),
(300,153,cs)
);
}
);
width = 447;
},
{
associatedMasterId = "24C63A81-7FC6-4EE9-AF2B-C1140AFD6C4B";
layerId = "A95A0CA3-4E03-4C41-8A18-3B2A92A5E5A5";
name = "Dec 24 18, 16:22";
shapes = (
{
closed = 1;
nodes = (
(419,73,o),
(404,76,cs),
(389,80,o),
(372,85,o),
(372,112,cs),
(372,139,o),
(381,218,o),
(381,265,cs),
(381,406,o),
(331,487,o),
(202,487,cs),
(90,487,o),
(15,425,o),
(15,378,cs),
(15,357,o),
(31,343,o),
(48,343,cs),
(81,343,o),
(96,406,o),
(188,406,cs),
(253,406,o),
(302,375,o),
(302,248,c),
(275,283,o),
(239,305,o),
(186,305,cs),
(107,305,o),
(26,256,o),
(26,154,cs),
(26,64,o),
(80,1,o),
(185,1,cs),
(252,1,o),
(296,28,o),
(318,68,c),
(319,34,o),
(341,3,o),
(387,3,cs),
(420,3,o),
(432,21,o),
(432,41,cs),
(432,61,o)
);
},
{
closed = 1;
nodes = (
(300,109,o),
(259,77,o),
(202,77,cs),
(150,77,o),
(109,105,o),
(109,155,cs),
(109,204,o),
(145,232,o),
(199,232,cs),
(259,232,o),
(300,196,o),
(300,153,cs)
);
}
);
width = 447;
},
{
anchors = (
{
name = bottom;
pos = (250,0);
},
{
name = ogonek;
pos = (450,10);
},
{
name = top;
pos = (250,480);
}
);
associatedMasterId = "24C63A81-7FC6-4EE9-AF2B-C1140AFD6C4B";
layerId = "23F5780A-0A24-41FA-B53F-4322811D0F4E";
name = "Jan 2 19, 00:41";
shapes = (
{
closed = 1;
nodes = (
(470,80,o),
(451,80,cs),
(439,80,o),
(433,75,o),
(422,75,cs),
(402,75,o),
(405,95,o),
(405,112,cs),
(405,139,o),
(414,218,o),
(414,265,cs),
(414,406,o),
(354,487,o),
(225,487,cs),
(113,487,o),
(48,425,o),
(48,380,cs),
(48,357,o),
(64,343,o),
(80,343,cs),
(114,343,o),
(129,410,o),
(221,410,cs),
(286,410,o),
(335,381,o),
(335,268,c),
(308,289,o),
(272,308,o),
(223,308,cs),
(140,308,o),
(50,256,o),
(49,154,cs),
(48,64,o),
(113,1,o),
(218,1,cs),
(295,1,o),
(329,28,o),
(351,57,c),
(351,34,o),
(373,0,o),
(416,0,cs),
(446,0,o),
(488,12,o),
(488,46,cs),
(488,67,o)
);
},
{
closed = 1;
nodes = (
(331,108,o),
(285,68,o),
(228,68,cs),
(176,68,o),
(128,99,o),
(128,156,cs),
(128,208,o),
(174,243,o),
(230,243,cs),
(288,243,o),
(331,203,o),
(331,156,cs)
);
}
);
width = 500;
},
{
anchors = (
{
name = bottom;
pos = (241,-78);
},
{
name = ogonek;
pos = (506,-65);
},
{
name = top;
pos = (273,528);
}
);
associatedMasterId = "24C63A81-7FC6-4EE9-AF2B-C1140AFD6C4B";
layerId = "157E4BAC-86CB-4CD3-A243-650872483116";
name = "Jan 5 19, 21:09";
shapes = (
{
closed = 1;
nodes = (
(38,88,o),
(110,-1,o),
(233,-1,cs),
(343,-1,o),
(398,80,o),
(405,158,c),
(389,160,l),
(392,141,o),
(378,81,o),
(382,43,cs),
(385,11,o),
(395,0,o),
(416,0,cs),
(446,0,o),
(449,22,o),
(451,44,c),
(453,117,o),
(453,173,o),
(453,403,cs),
(453,453,o),
(427,483,o),
(381,480,cs),
(293,475,ls),
(132,466,o),
(38,371,o),
(38,223,cs)
);
},
{
closed = 1;
nodes = (
(119,329,o),
(173,390,o),
(288,397,cs),
(375,402,l),
(375,244,ls),
(375,142,o),
(318,80,o),
(239,80,cs),
(160,80,o),
(119,132,o),
(119,224,cs)
);
}
);
width = 501;
},
{
anchors = (
{
name = bottom;
pos = (241,0);
},
{
name = ogonek;
pos = (426,58);
},
{
name = top;
pos = (273,528);
}
);
associatedMasterId = "24C63A81-7FC6-4EE9-AF2B-C1140AFD6C4B";
layerId = "EA8F75A1-897A-44E8-8A2B-3325CA446932";
name = "Jan 5 19, 21:10";
shapes = (
{
closed = 1;
nodes = (
(346,414,o),
(356,413,o),
(364,411,c),
(365,388,o),
(363,182,o),
(362,160,c),
(332,114,o),
(244,89,o),
(190,102,cs),
(143,113,o),
(118,152,o),
(118,217,cs),
(118,340,o),
(210,414,o),
(332,414,cs)
);
},
{
closed = 1;
nodes = (
(419,-1,o),
(437,17,o),
(439,42,cs),
(446,170,o),
(450,307,o),
(444,412,cs),
(443,432,o),
(439,453,o),
(424,468,cs),
(402,490,o),
(360,494,o),
(329,494,cs),
(164,490,o),
(38,388,o),
(38,217,cs),
(38,98,o),
(108,18,o),
(223,18,cs),
(269,18,o),
(317,31,o),
(357,53,c),
(357,49,ls),
(355,21,o),
(372,-1,o),
(395,-1,cs)
);
}
);
width = 501;
},
{
anchors = (
{
name = bottom;
pos = (241,0);
},
{
name = ogonek;
pos = (426,58);
},
{
name = top;
pos = (273,528);
}
);
associatedMasterId = "24C63A81-7FC6-4EE9-AF2B-C1140AFD6C4B";
layerId = "A7A04749-0DE3-40FF-93D5-EEDABCC199D1";
name = "May 11 19, 17:35";
shapes = (
{
closed = 1;
nodes = (
(346,414,o),
(356,413,o),
(364,411,c),
(365,388,o),
(363,189,o),
(362,144,c),
(332,98,o),
(248,66,o),
(190,79,cs),
(143,90,o),
(118,129,o),
(118,194,cs),
(118,340,o),
(210,414,o),
(332,414,cs)
);
},
{
closed = 1;
nodes = (
(422,-1,o),
(438,17,o),
(439,42,cs),
(442,170,o),
(443,307,o),
(444,410,cs),
(444,432,o),
(439,453,o),
(424,468,cs),
(402,490,o),
(360,494,o),
(329,494,cs),
(164,490,o),
(38,388,o),
(38,194,cs),
(38,75,o),
(108,-5,o),
(211,-5,cs),
(269,-5,o),
(331,19,o),
(357,60,c),
(355,21,o),
(374,-1,o),
(399,-1,cs)
);
}
);
width = 492;
},
{
anchors = (
{
name = bottom;
pos = (220,0);
},
{
name = ogonek;
pos = (411,58);
},
{
name = top;
pos = (307,528);
}
);
background = {
shapes = (
{
closed = 0;
nodes = (
(308,259,ls)
);
},
{
closed = 0;
nodes = (
(279,329,ls)
);
}
);
};
layerId = m002;
shapes = (
{
closed = 1;
nodes = (
(31,45,o),
(93,-5,o),
(189,-5,cs),
(247,-5,o),
(312,19,o),
(342,60,c),
(336,21,o),
(353,-1,o),
(378,-1,cs),
(399,-1,o),
(416,14,o),
(419,42,cs),
(451,341,o),
(451,335,o),
(451,357,cs),
(451,446,o),
(382,489,o),
(269,489,cs),
(189,489,o),
(135,468,o),
(102,436,cs),
(75,411,o),
(75,389,o),
(86,377,cs),
(99,362,o),
(126,365,o),
(145,379,cs),
(165,394,o),
(198,418,o),
(268,418,cs),
(341,418,o),
(373,390,o),
(373,357,cs),
(373,325,o),
(353,324,o),
(322,324,cs),
(149,324,o),
(31,244,o),
(31,125,cs)
);
},
{
closed = 1;
nodes = (
(112,190,o),
(158,227,o),
(244,242,cs),
(302,252,o),
(355,248,o),
(369,257,c),
(365,218,o),
(360,176,o),
(360,174,c),
(350,103,o),
(247,69,o),
(194,69,cs),
(149,69,o),
(112,96,o),
(112,139,cs)
);
}
);
width = 487;
},
{
associatedMasterId = m002;
layerId = "A2ECCDD3-BFB0-4DD0-8E4F-C0C681C726B4";
name = "Dec 24 18, 16:07";
shapes = (
{
closed = 1;
nodes = (
(363,104,o),
(372,132,o),
(376,180,cs),
(384,265,o),
(388,370,o),
(334,435,cs),
(251,536,o),
(127,465,o),
(69,420,cs),
(49,405,o),
(29,373,o),
(50,353,cs),
(70,334,o),
(94,345,o),
(115,361,cs),
(171,403,o),
(302,470,o),
(302,268,c),
(222,341,o),
(67,304,o),
(42,174,cs),
(6,-12,o),
(204,-44,o),
(318,58,c),
(326,34,o),
(351,13,o),
(377,13,cs),
(392,13,o),
(407,22,o),
(413,37,c),
(421,54,o),
(417,76,o),
(395,88,c)
);
},
{
closed = 1;
nodes = (
(283,104,o),
(233,82,o),
(203,78,cs),
(151,71,o),
(98,94,o),
(111,158,c),
(124,208,o),
(164,231,o),
(203,232,cs),
(265,233,o),
(319,190,o),
(294,130,cs)
);
},
{
closed = 1;
nodes = (
(337,56,o),
(337,60,o),
(339,64,c),
(337,60,o),
(337,55,o),
(337,51,c)
);
}
);
width = 447;
},
{
associatedMasterId = m002;
layerId = "6997E80F-883C-4AB2-99EE-69F98BEBEECC";
name = "Dec 24 18, 16:12";
shapes = (
{
closed = 1;
nodes = (
(419,73,o),
(404,76,cs),
(389,80,o),
(372,85,o),
(372,112,cs),
(372,139,o),
(381,218,o),
(381,265,cs),
(381,328,o),
(371,391,o),
(334,435,cs),
(303,473,o),
(266,487,o),
(229,487,cs),
(167,487,o),
(104,448,o),
(79,429,cs),
(54,410,o),
(41,391,o),
(41,374,cs),
(41,356,o),
(57,343,o),
(74,343,cs),
(88,343,o),
(102,351,o),
(115,361,cs),
(141,381,o),
(185,406,o),
(223,406,cs),
(266,406,o),
(312,365,o),
(312,248,c),
(285,283,o),
(239,305,o),
(186,305,cs),
(107,305,o),
(26,256,o),
(26,150,cs),
(26,64,o),
(80,1,o),
(185,1,cs),
(252,1,o),
(296,28,o),
(318,68,c),
(319,34,o),
(341,3,o),
(387,3,cs),
(420,3,o),
(432,21,o),
(432,41,cs),
(432,61,o)
);
},
{
closed = 1;
nodes = (
(300,109,o),
(259,77,o),
(202,77,cs),
(150,77,o),
(109,105,o),
(109,155,cs),
(109,204,o),
(145,232,o),
(199,232,cs),
(259,232,o),
(300,196,o),
(300,153,cs)
);
}
);
width = 447;
},
{
associatedMasterId = m002;
layerId = "14E8E9FA-9A46-4EAB-8FE9-550493127BA4";
name = "Dec 24 18, 16:22";
shapes = (
{
closed = 1;
nodes = (
(419,73,o),
(404,76,cs),
(389,80,o),
(372,85,o),
(372,112,cs),
(372,139,o),
(381,218,o),
(381,265,cs),
(381,406,o),
(331,487,o),
(202,487,cs),
(90,487,o),
(15,425,o),
(15,378,cs),
(15,357,o),
(31,343,o),
(48,343,cs),
(81,343,o),
(96,406,o),
(188,406,cs),
(253,406,o),
(302,375,o),
(302,248,c),
(275,283,o),
(239,305,o),
(186,305,cs),
(107,305,o),
(26,256,o),
(26,154,cs),
(26,64,o),
(80,1,o),
(185,1,cs),
(252,1,o),
(296,28,o),
(318,68,c),
(319,34,o),
(341,3,o),
(387,3,cs),
(420,3,o),
(432,21,o),
(432,41,cs),
(432,61,o)
);
},
{
closed = 1;
nodes = (
(300,109,o),
(259,77,o),
(202,77,cs),
(150,77,o),
(109,105,o),
(109,155,cs),
(109,204,o),
(145,232,o),
(199,232,cs),
(259,232,o),
(300,196,o),
(300,153,cs)
);
}
);
width = 447;
},
{
associatedMasterId = m002;
layerId = "78B2CDBE-C05A-4F6A-B41F-411419EBF041";
name = "Dec 24 18, 16:22";
shapes = (
{
closed = 1;
nodes = (
(419,73,o),
(404,76,cs),
(389,80,o),
(372,85,o),
(372,112,cs),
(372,139,o),
(381,218,o),
(381,265,cs),
(381,406,o),
(331,487,o),
(202,487,cs),
(90,487,o),
(15,425,o),
(15,378,cs),
(15,357,o),
(31,343,o),
(48,343,cs),
(81,343,o),
(96,406,o),
(188,406,cs),
(253,406,o),
(302,375,o),
(302,248,c),
(275,283,o),
(239,305,o),
(186,305,cs),
(107,305,o),
(26,256,o),
(26,154,cs),
(26,64,o),
(80,1,o),
(185,1,cs),
(252,1,o),
(296,28,o),
(318,68,c),
(319,34,o),
(341,3,o),
(387,3,cs),
(420,3,o),
(432,21,o),
(432,41,cs),
(432,61,o)
);
},
{
closed = 1;
nodes = (
(300,109,o),
(259,77,o),
(202,77,cs),
(150,77,o),
(109,105,o),
(109,155,cs),
(109,204,o),
(145,232,o),
(199,232,cs),
(259,232,o),
(300,196,o),
(300,153,cs)
);
}
);
width = 447;
},
{
anchors = (
{
name = bottom;
pos = (250,0);
},
{
name = ogonek;
pos = (450,10);
},
{
name = top;
pos = (250,480);
}
);
associatedMasterId = m002;
layerId = "78A9878B-FA8C-4C3C-99FE-AC18B06171E8";
name = "Jan 2 19, 00:41";
shapes = (
{
closed = 1;
nodes = (
(470,80,o),
(451,80,cs),
(439,80,o),
(433,75,o),
(422,75,cs),
(402,75,o),
(405,95,o),
(405,112,cs),
(405,139,o),
(414,218,o),
(414,265,cs),
(414,406,o),
(354,487,o),
(225,487,cs),
(113,487,o),
(48,425,o),
(48,380,cs),
(48,357,o),
(64,343,o),
(80,343,cs),
(114,343,o),
(129,410,o),
(221,410,cs),
(286,410,o),
(335,381,o),
(335,268,c),
(308,289,o),
(272,308,o),
(223,308,cs),
(140,308,o),
(50,256,o),
(49,154,cs),
(48,64,o),
(113,1,o),
(218,1,cs),
(295,1,o),
(329,28,o),
(351,57,c),
(351,34,o),
(373,0,o),
(416,0,cs),
(446,0,o),
(488,12,o),
(488,46,cs),
(488,67,o)
);
},
{
closed = 1;
nodes = (
(331,108,o),
(285,68,o),
(228,68,cs),
(176,68,o),
(128,99,o),
(128,156,cs),
(128,208,o),
(174,243,o),
(230,243,cs),
(288,243,o),
(331,203,o),
(331,156,cs)
);
}
);
width = 500;
},
{
anchors = (
{
name = bottom;
pos = (241,-78);
},
{
name = ogonek;
pos = (506,-65);
},
{
name = top;
pos = (273,528);
}
);
associatedMasterId = m002;
layerId = "F89D9B1B-0E09-43E1-8BC6-BE18A13FE6D8";
name = "Jan 5 19, 21:09";
shapes = (
{
closed = 1;
nodes = (
(38,88,o),
(110,-1,o),
(233,-1,cs),
(343,-1,o),
(398,80,o),
(405,158,c),
(389,160,l),
(392,141,o),
(378,81,o),
(382,43,cs),
(385,11,o),
(395,0,o),
(416,0,cs),
(446,0,o),
(449,22,o),
(451,44,c),
(453,117,o),
(453,173,o),
(453,403,cs),
(453,453,o),
(427,483,o),
(381,480,cs),
(293,475,ls),
(132,466,o),
(38,371,o),
(38,223,cs)
);
},
{
closed = 1;
nodes = (
(119,329,o),
(173,390,o),
(288,397,cs),
(375,402,l),
(375,244,ls),
(375,142,o),
(318,80,o),
(239,80,cs),
(160,80,o),
(119,132,o),
(119,224,cs)
);
}
);
width = 501;
},
{
anchors = (
{
name = bottom;
pos = (241,0);
},
{
name = ogonek;
pos = (426,58);
},
{
name = top;
pos = (273,528);
}
);
associatedMasterId = m002;
layerId = "C67CF2D4-89A8-45BD-853E-44017EFF572F";
name = "Jan 5 19, 21:10";
shapes = (
{
closed = 1;
nodes = (
(346,414,o),
(356,413,o),
(364,411,c),
(365,388,o),
(363,182,o),
(362,160,c),
(332,114,o),
(244,89,o),
(190,102,cs),
(143,113,o),
(118,152,o),
(118,217,cs),
(118,340,o),
(210,414,o),
(332,414,cs)
);
},
{
closed = 1;
nodes = (
(419,-1,o),
(437,17,o),
(439,42,cs),
(446,170,o),
(450,307,o),
(444,412,cs),
(443,432,o),
(439,453,o),
(424,468,cs),
(402,490,o),
(360,494,o),
(329,494,cs),
(164,490,o),
(38,388,o),
(38,217,cs),
(38,98,o),
(108,18,o),
(223,18,cs),
(269,18,o),
(317,31,o),
(357,53,c),
(357,49,ls),
(355,21,o),
(372,-1,o),
(395,-1,cs)
);
}
);
width = 501;
},
{
anchors = (
{
name = bottom;
pos = (241,0);
},
{
name = ogonek;
pos = (426,58);
},
{
name = top;
pos = (273,528);
}
);
associatedMasterId = m002;
layerId = "8992FC1F-021C-4E0C-85F1-617C73CB0FF0";
name = "May 11 19, 17:35";
shapes = (
{
closed = 1;
nodes = (
(346,414,o),
(356,413,o),
(364,411,c),
(365,388,o),
(363,189,o),
(362,144,c),
(332,98,o),
(248,66,o),
(190,79,cs),
(143,90,o),
(118,129,o),
(118,194,cs),
(118,340,o),
(210,414,o),
(332,414,cs)
);
},
{
closed = 1;
nodes = (
(422,-1,o),
(438,17,o),
(439,42,cs),
(442,170,o),
(443,307,o),
(444,410,cs),
(444,432,o),
(439,453,o),
(424,468,cs),
(402,490,o),
(360,494,o),
(329,494,cs),
(164,490,o),
(38,388,o),
(38,194,cs),
(38,75,o),
(108,-5,o),
(211,-5,cs),
(269,-5,o),
(331,19,o),
(357,60,c),
(355,21,o),
(374,-1,o),
(399,-1,cs)
);
}
);
width = 492;
}
);
metricLeft = o;
metricRight = n;
unicode = 97;
},
{
glyphname = b;
kernRight = downRounded;
lastChange = "2021-09-30 18:24:00 +0000";
layers = (
{
anchors = (
{
name = bottom;
pos = (283,0);
},
{
name = top;
pos = (89,800);
}
);
layerId = "24C63A81-7FC6-4EE9-AF2B-C1140AFD6C4B";
shapes = (
{
closed = 1;
nodes = (
(66,704,o),
(50,684,o),
(51,663,cs),
(52,640,o),
(71,437,o),
(71,308,cs),
(71,203,o),
(58,92,o),
(49,44,cs),
(40,-5,o),
(106,-11,o),
(118,32,cs),
(121,45,o),
(125,63,o),
(129,88,c),
(171,22,o),
(249,0,o),
(308,0,cs),
(422,0,o),
(515,98,o),
(515,240,cs),
(515,373,o),
(441,486,o),
(298,486,cs),
(227,486,o),
(173,454,o),
(143,411,c),
(138,527,o),
(133,645,o),
(131,667,cs),
(129,689,o),
(111,706,o),
(89,705,cs)
);
},
{
closed = 1;
nodes = (
(148,239,cs),
(148,330,o),
(206,406,o),
(298,406,cs),
(399,406,o),
(435,325,o),
(435,241,cs),
(435,152,o),
(385,80,o),
(295,80,cs),
(209,80,o),
(148,147,o)
);
}
);
width = 563;
},
{
associatedMasterId = "24C63A81-7FC6-4EE9-AF2B-C1140AFD6C4B";
layerId = "38C0C396-6033-4854-91F1-8F9717FF9EE6";
name = "Dec 24 18, 17:18";
shapes = (
{
closed = 1;
nodes = (
(388,479,o),
(263,479,cs),
(219,479,o),
(174,472,o),
(133,448,c),
(130,652,ls),
(130,684,o),
(111,701,o),
(90,701,cs),
(67,701,o),
(50,682,o),
(50,650,cs),
(55,230,ls),
(55,83,o),
(50,61,o),
(50,40,cs),
(50,10,o),
(68,-5,o),
(89,-5,cs),
(103,-5,o),
(119,3,o),
(126,30,c),
(168,6,o),
(211,-1,o),
(243,-1,cs),
(367,-1,o),
(461,105,o),
(461,251,cs),
(461,385,o)
);
},
{
closed = 1;
nodes = (
(134,133,o),
(135,156,o),
(135,186,cs),
(135,222,o),
(134,267,o),
(133,362,c),
(168,393,o),
(205,408,o),
(243,408,cs),
(326,408,o),
(372,334,o),
(372,244,cs),
(372,145,o),
(315,79,o),
(227,79,cs),
(200,79,o),
(168,85,o),
(133,95,c)
);
}
);
width = 511;
},
{
anchors = (
{
name = bottom;
pos = (267,0);
},
{
name = top;
pos = (157,800);
}
);
layerId = m002;
shapes = (
{
closed = 1;
nodes = (
(124,704,o),
(106,683,o),
(105,663,cs),
(104,640,o),
(101,434,o),
(88,309,cs),
(77,205,o),
(52,92,o),
(38,44,cs),
(24,-5,o),
(89,-12,o),
(106,33,cs),
(110,45,o),
(115,60,o),
(123,88,c),
(158,22,o),
(233,0,o),
(292,0,cs),
(422,0,o),
(527,123,o),
(527,276,cs),
(527,393,o),
(463,486,o),
(333,486,cs),
(263,486,o),
(205,454,o),
(171,411,c),
(177,517,o),
(185,647,o),
(185,668,cs),
(185,690,o),
(169,706,o),
(147,705,cs)
);
},
{
closed = 1;
nodes = (
(156,218,cs),
(156,322,o),
(231,406,o),
(325,406,cs),
(414,406,o),
(446,343,o),
(446,270,cs),
(446,160,o),
(381,80,o),
(288,80,cs),
(209,80,o),
(156,137,o)
);
}
);
width = 575;
},
{
associatedMasterId = m002;
layerId = "51FECBD1-27EB-43D4-9B10-E378E0F4569A";
name = "Dec 24 18, 17:18";
shapes = (
{
closed = 1;
nodes = (
(388,479,o),
(263,479,cs),
(219,479,o),
(174,472,o),
(133,448,c),
(130,652,ls),
(130,684,o),
(111,701,o),
(90,701,cs),
(67,701,o),
(50,682,o),
(50,650,cs),
(55,230,ls),
(55,83,o),
(50,61,o),
(50,40,cs),
(50,10,o),
(68,-5,o),
(89,-5,cs),
(103,-5,o),
(119,3,o),
(126,30,c),
(168,6,o),
(211,-1,o),
(243,-1,cs),
(367,-1,o),
(461,105,o),
(461,251,cs),
(461,385,o)
);
},
{
closed = 1;
nodes = (
(134,133,o),
(135,156,o),
(135,186,cs),
(135,222,o),
(134,267,o),
(133,362,c),
(168,393,o),
(205,408,o),
(243,408,cs),
(326,408,o),
(372,334,o),
(372,244,cs),
(372,145,o),
(315,79,o),
(227,79,cs),
(200,79,o),
(168,85,o),
(133,95,c)
);
}
);
width = 511;
}
);
metricLeft = n;
unicode = 98;
},
{
glyphname = c;
kernLeft = downRounded;
kernRight = downRounded;
lastChange = "2021-09-30 17:19:03 +0000";
layers = (
{
anchors = (
{
name = bottom;
pos = (249,10);
},
{
name = top;
pos = (229,480);
}
);
layerId = "24C63A81-7FC6-4EE9-AF2B-C1140AFD6C4B";
shapes = (
{
closed = 1;
nodes = (
(408,388,o),
(408,408,cs),
(408,447,o),
(347,491,o),
(263,491,cs),
(123,491,o),
(31,382,o),
(31,241,c),
(31,153,o),
(70,-8,o),
(254,-8,cs),
(346,-8,o),
(422,29,o),
(422,76,cs),
(422,98,o),
(405,114,o),
(383,114,cs),
(349,114,o),
(334,72,o),
(256,72,cs),
(144,72,o),
(111,171,o),
(111,241,cs),
(111,318,o),
(151,414,o),
(254,414,cs),
(318,414,o),
(340,377,o),
(372,377,cs),
(390,377,o)
);
}
);
width = 443;
},
{
anchors = (
{
name = bottom;
pos = (227,10);
},
{
name = top;
pos = (256,480);
}
);
layerId = m002;
shapes = (
{
closed = 1;
nodes = (
(428,388,o),
(428,412,cs),
(428,450,o),
(372,491,o),
(291,491,cs),
(151,491,o),
(48,382,o),
(33,241,c),
(24,153,o),
(46,-8,o),
(230,-8,cs),
(325,-8,o),
(407,32,o),
(407,80,cs),
(407,100,o),
(392,114,o),
(372,114,cs),
(338,114,o),
(318,72,o),
(240,72,cs),
(141,72,o),
(112,150,o),
(112,217,cs),
(112,313,o),
(171,414,o),
(274,414,cs),
(338,414,o),
(356,377,o),
(388,377,cs),
(405,377,o)
);
}
);
width = 449;
}
);
metricLeft = o;
metricRight = "=o-10";
unicode = 99;
},
{
glyphname = d;
kernLeft = downRounded;
lastChange = "2023-10-12 21:28:20 +0000";
layers = (
{
anchors = (
{
name = bottom;
pos = (269,0);
},
{
name = center;
pos = (256,232);
},
{
name = hyphen;
pos = (454,569);
},
{
name = top;
pos = (462,700);
},
{
name = topright;
pos = (495,685);
}
);
layerId = "24C63A81-7FC6-4EE9-AF2B-C1140AFD6C4B";
shapes = (
{
closed = 1;
nodes = (
(435,706,o),
(416,689,o),
(415,660,cs),
(403,424,l),
(368,467,o),
(311,489,o),
(248,489,cs),
(95,489,o),
(31,363,o),
(31,240,cs),
(31,98,o),
(124,0,o),
(238,0,cs),
(297,0,o),
(364,22,o),
(405,88,c),
(410,63,o),
(417,45,o),
(420,32,cs),
(432,-11,o),
(506,-13,o),
(495,53,cs),
(489,91,o),
(475,203,o),
(475,308,c),
(493,656,ls),
(495,685,o),
(478,704,o),
(457,705,cs)
);
},
{
closed = 1;
nodes = (
(337,80,o),
(251,80,cs),
(161,80,o),
(111,152,o),
(111,241,cs),
(111,315,o),
(147,409,o),
(248,409,cs),
(340,409,o),
(398,330,o),
(398,239,cs),
(398,147,o)
);
}
);
width = 544;
},
{
anchors = (
{
name = bottom;
pos = (246,0);
},
{
name = center;
pos = (257,232);
},
{
name = hyphen;
pos = (491,569);
},
{
name = top;
pos = (512,700);
},
{
name = topright;
pos = (544,685);
}
);
layerId = m002;
shapes = (
{
closed = 1;
nodes = (
(484,706,o),
(465,687,o),
(461,660,cs),
(424,424,l),
(394,467,o),
(338,489,o),
(276,489,cs),
(127,489,o),
(31,359,o),
(31,207,cs),
(31,83,o),
(110,0,o),
(215,0,cs),
(273,0,o),
(343,22,o),
(391,88,c),
(393,66,o),
(399,37,o),
(400,32,cs),
(407,-11,o),
(481,-13,o),
(477,53,cs),
(475,91,o),
(473,206,o),
(484,308,c),
(539,656,ls),
(544,685,o),
(528,704,o),
(508,705,cs)
);
},
{
closed = 1;
nodes = (
(329,80,o),
(236,80,cs),
(154,80,o),
(112,140,o),
(112,217,cs),
(112,310,o),
(167,409,o),
(268,409,cs),
(352,409,o),
(401,342,o),
(401,261,cs),
(401,159,o)
);
}
);
width = 576;
}
);
metricLeft = o;
metricRight = n;
unicode = 100;
},
{
glyphname = e;
kernLeft = downRounded;
kernRight = downRounded;
lastChange = "2021-09-30 17:19:03 +0000";
layers = (
{
anchors = (
{
name = bottom;
pos = (232,0);
},
{
name = ogonek;
pos = (411,106);
},
{
name = top;
pos = (232,480);
}
);
layerId = "24C63A81-7FC6-4EE9-AF2B-C1140AFD6C4B";
shapes = (
{
closed = 1;
nodes = (
(358,-7,o),
(444,53,o),
(444,130,cs),
(444,154,o),
(436,171,o),
(414,171,cs),
(400,171,o),
(381,164,o),
(372,141,cs),
(354,94,o),
(299,74,o),
(249,74,cs),
(191,74,o),
(131,101,o),
(124,183,c),
(326,211,o),
(400,247,o),
(427,296,c),
(467,379,o),
(374,489,o),
(250,489,cs),
(116,489,o),
(31,363,o),
(31,229,cs),
(31,98,o),
(110,-7,o),
(249,-7,cs)
);
},
{
closed = 1;
nodes = (
(116,339,o),
(175,412,o),
(256,412,cs),
(296,412,o),
(336,394,o),
(356,356,cs),
(367,335,o),
(362,320,o),
(337,308,cs),
(292,287,o),
(175,256,o),
(116,254,c)
);
}
);
width = 475;
},
{
associatedMasterId = "24C63A81-7FC6-4EE9-AF2B-C1140AFD6C4B";
layerId = "25BCA78D-6944-4C71-8EC2-C1C1DC374E50";
name = "Dec 24 18, 17:28";
shapes = (
{
closed = 1;
nodes = (
(104,447,o),
(50,338,o),
(50,229,cs),
(50,218,o),
(51,206,o),
(52,194,cs),
(73,26,o),
(189,-7,o),
(257,-7,cs),
(332,-7,o),
(414,28,o),
(448,114,cs),
(451,121,o),
(452,127,o),
(452,133,cs),
(452,157,o),
(435,174,o),
(415,174,cs),
(401,174,o),
(386,165,o),
(375,142,cs),
(354,98,o),
(305,74,o),
(257,74,cs),
(202,74,o),
(149,105,o),
(142,173,c),
(142,174,o),
(141,180,o),
(150,181,c),
(194,188,o),
(393,228,o),
(428,298,cs),
(433,309,o),
(436,321,o),
(436,333,cs),
(436,406,o),
(349,488,o),
(255,488,cs),
(238,488,o),
(222,485,o),
(206,480,cs)
);
},
{
closed = 1;
nodes = (
(239,410,o),
(247,411,o),
(255,411,cs),
(295,411,o),
(340,386,o),
(362,336,cs),
(372,314,o),
(171,264,o),
(140,257,cs),
(132,255,o),
(131,256,o),
(131,268,cs),
(131,340,o),
(184,392,o),
(231,408,c)
);
}
);
width = 502;
},
{
anchors = (
{
name = bottom;
pos = (239,0);
},
{
name = ogonek;
pos = (438,106);
},
{
name = top;
pos = (239,480);
}
);
annotations = (
{
pos = (325,359);
type = Text;
}
);
associatedMasterId = "24C63A81-7FC6-4EE9-AF2B-C1140AFD6C4B";
layerId = "5930D2AC-7302-47F3-8B36-0B281901403C";
name = "Jun 12 19, 00:27";
shapes = (
{
closed = 1;
nodes = (
(38,363,o),
(38,229,cs),
(38,98,o),
(117,-7,o),
(256,-7,cs),
(365,-7,o),
(461,61,o),
(461,132,cs),
(461,162,o),
(443,174,o),
(424,174,cs),
(407,174,o),
(391,165,o),
(380,142,cs),
(358,98,o),
(306,74,o),
(256,74,cs),
(198,74,o),
(138,101,o),
(131,183,c),
(333,211,o),
(407,247,o),
(434,296,c),
(474,379,o),
(381,488,o),
(257,488,cs),
(123,488,o)
);
},
{
closed = 1;
nodes = (
(172,411,o),
(253,411,cs),
(293,411,o),
(343,394,o),
(365,352,cs),
(374,335,o),
(369,320,o),
(352,312,cs),
(299,287,o),
(182,256,o),
(123,254,c),
(123,339,o)
);
}
);
width = 499;
},
{
anchors = (
{
name = bottom;
pos = (210,0);
},
{
name = ogonek;
pos = (400,106);
},
{
name = top;
pos = (260,480);
}
);
layerId = m002;
shapes = (
{
closed = 1;
nodes = (
(340,-7,o),
(436,60,o),
(436,139,cs),
(436,157,o),
(429,171,o),
(410,171,cs),
(395,171,o),
(376,164,o),
(364,140,cs),
(342,94,o),
(283,74,o),
(234,74,cs),
(177,74,o),
(119,101,o),
(121,183,c),
(326,211,o),
(403,247,o),
(436,296,c),
(485,379,o),
(403,489,o),
(279,489,cs),
(145,489,o),
(31,354,o),
(31,196,cs),
(31,81,o),
(99,-7,o),
(226,-7,cs)
);
},
{
closed = 1;
nodes = (
(129,339,o),
(197,412,o),
(277,412,cs),
(317,412,o),
(355,394,o),
(371,356,cs),
(380,334,o),
(373,320,o),
(347,308,cs),
(303,288,o),
(180,256,o),
(120,254,c)
);
}
);
width = 481;
},
{
associatedMasterId = m002;
layerId = "F69F4E1C-0E23-419D-AE92-0904EB8FC8DC";
name = "Dec 24 18, 17:28";
shapes = (
{
closed = 1;
nodes = (
(104,447,o),
(50,338,o),
(50,229,cs),
(50,218,o),
(51,206,o),
(52,194,cs),
(73,26,o),
(189,-7,o),
(257,-7,cs),
(332,-7,o),
(414,28,o),
(448,114,cs),
(451,121,o),
(452,127,o),
(452,133,cs),
(452,157,o),
(435,174,o),
(415,174,cs),
(401,174,o),
(386,165,o),
(375,142,cs),
(354,98,o),
(305,74,o),
(257,74,cs),
(202,74,o),
(149,105,o),
(142,173,c),
(142,174,o),
(141,180,o),
(150,181,c),
(194,188,o),
(393,228,o),
(428,298,cs),
(433,309,o),
(436,321,o),
(436,333,cs),
(436,406,o),
(349,488,o),
(255,488,cs),
(238,488,o),
(222,485,o),
(206,480,cs)
);
},
{
closed = 1;
nodes = (
(239,410,o),
(247,411,o),
(255,411,cs),
(295,411,o),
(340,386,o),
(362,336,cs),
(372,314,o),
(171,264,o),
(140,257,cs),
(132,255,o),
(131,256,o),
(131,268,cs),
(131,340,o),
(184,392,o),
(231,408,c)
);
}
);
width = 502;
},
{
anchors = (
{
name = bottom;
pos = (239,0);
},
{
name = ogonek;
pos = (438,106);
},
{
name = top;
pos = (239,480);
}
);
annotations = (
{
pos = (325,359);
type = Text;
}
);
associatedMasterId = m002;
layerId = "57863B08-49E5-4163-9E81-89D8767443EF";
name = "Jun 12 19, 00:27";
shapes = (
{
closed = 1;
nodes = (
(38,363,o),
(38,229,cs),
(38,98,o),
(117,-7,o),
(256,-7,cs),
(365,-7,o),
(461,61,o),
(461,132,cs),
(461,162,o),
(443,174,o),
(424,174,cs),
(407,174,o),
(391,165,o),
(380,142,cs),
(358,98,o),
(306,74,o),
(256,74,cs),
(198,74,o),
(138,101,o),
(131,183,c),
(333,211,o),
(407,247,o),
(434,296,c),
(474,379,o),
(381,488,o),
(257,488,cs),
(123,488,o)
);
},
{
closed = 1;
nodes = (
(172,411,o),
(253,411,cs),
(293,411,o),
(343,394,o),
(365,352,cs),
(374,335,o),
(369,320,o),
(352,312,cs),
(299,287,o),
(182,256,o),
(123,254,c),
(123,339,o)
);
}
);
width = 499;
}
);
metricLeft = o;
metricRight = o;
unicode = 101;
},
{
glyphname = f;
lastChange = "2021-09-30 17:34:43 +0000";
layers = (
{
layerId = "24C63A81-7FC6-4EE9-AF2B-C1140AFD6C4B";
shapes = (
{
closed = 1;
nodes = (
(318,637,o),
(321,661,o),
(304,675,cs),
(284,690,o),
(258,700,o),
(226,700,cs),
(122,700,o),
(98,622,o),
(98,473,c),
(50,473,ls),
(29,473,o),
(12,455,o),
(12,436,cs),
(12,415,o),
(32,396,o),
(53,398,cs),
(99,402,l),
(99,227,o),
(97,72,o),
(97,41,cs),
(97,19,o),
(113,1,o),
(135,0,c),
(136,0,ls),
(157,0,o),
(176,18,o),
(176,40,cs),
(176,71,o),
(178,223,o),
(178,405,c),
(251,406,ls),
(272,406,o),
(291,425,o),
(291,445,cs),
(291,466,o),
(268,483,o),
(245,481,cs),
(176,476,l),
(176,563,o),
(174,628,o),
(221,628,cs),
(234,628,o),
(244,624,o),
(253,618,cs),
(270,607,o),
(288,606,o),
(303,621,cs)
);
}
);
width = 316;
},
{
associatedMasterId = "24C63A81-7FC6-4EE9-AF2B-C1140AFD6C4B";
layerId = "DC619B96-1E95-4FE5-8679-73ECFB8C28F6";
name = "Jan 5 19, 21:13";
shapes = (
{
closed = 1;
nodes = (
(302,700,o),
(226,700,cs),
(128,700,o),
(97,607,o),
(97,508,cs),
(97,482,o),
(98,457,o),
(98,432,c),
(50,432,ls),
(29,432,o),
(12,414,o),
(12,395,cs),
(12,374,o),
(32,355,o),
(53,357,cs),
(99,361,l),
(99,335,ls),
(99,186,o),
(97,43,o),
(97,41,c),
(96,19,o),
(113,1,o),
(135,0,c),
(136,0,ls),
(157,0,o),
(175,18,o),
(176,40,c),
(176,41,o),
(178,185,o),
(178,335,cs),
(178,364,l),
(251,365,ls),
(272,365,o),
(291,384,o),
(291,404,cs),
(291,425,o),
(268,442,o),
(245,440,cs),
(177,435,l),
(176,463,o),
(176,495,o),
(176,526,cs),
(176,581,o),
(182,628,o),
(221,628,cs),
(252,628,o),
(262,599,o),
(267,584,cs),
(274,562,o),
(290,554,o),
(305,554,cs),
(328,554,o),
(345,573,o),
(345,600,cs),
(345,642,o)
);
}
);
width = 357;
},
{
layerId = m002;
shapes = (
{
closed = 1;
nodes = (
(367,636,o),
(373,662,o),
(357,675,cs),
(339,690,o),
(314,700,o),
(282,700,cs),
(178,700,o),
(146,622,o),
(130,473,c),
(82,473,ls),
(60,473,o),
(40,453,o),
(40,432,cs),
(40,414,o),
(57,396,o),
(77,398,cs),
(124,402,l),
(89,73,o),
(83,72,o),
(83,36,cs),
(83,17,o),
(97,1,o),
(117,0,c),
(118,0,ls),
(138,0,o),
(161,18,o),
(163,40,cs),
(166,71,o),
(184,223,o),
(203,406,c),
(276,406,ls),
(298,406,o),
(320,427,o),
(320,448,cs),
(320,467,o),
(300,483,o),
(278,481,cs),
(208,476,l),
(218,572,o),
(225,628,o),
(269,628,cs),
(282,628,o),
(290,625,o),
(300,618,cs),
(316,607,o),
(336,607,o),
(351,621,cs)
);
}
);
width = 319;
},
{
associatedMasterId = m002;
layerId = "243E2DB6-CFE3-4477-A1C8-38F5E073D774";
name = "Jan 5 19, 21:13";
shapes = (
{
closed = 1;
nodes = (
(302,700,o),
(226,700,cs),
(128,700,o),
(97,607,o),
(97,508,cs),
(97,482,o),
(98,457,o),
(98,432,c),
(50,432,ls),
(29,432,o),
(12,414,o),
(12,395,cs),
(12,374,o),
(32,355,o),
(53,357,cs),
(99,361,l),
(99,335,ls),
(99,186,o),
(97,43,o),
(97,41,c),
(96,19,o),
(113,1,o),
(135,0,c),
(136,0,ls),
(157,0,o),
(175,18,o),
(176,40,c),
(176,41,o),
(178,185,o),
(178,335,cs),
(178,364,l),
(251,365,ls),
(272,365,o),
(291,384,o),
(291,404,cs),
(291,425,o),
(268,442,o),
(245,440,cs),
(177,435,l),
(176,463,o),
(176,495,o),
(176,526,cs),
(176,581,o),
(182,628,o),
(221,628,cs),
(252,628,o),
(262,599,o),
(267,584,cs),
(274,562,o),
(290,554,o),
(305,554,cs),
(328,554,o),
(345,573,o),
(345,600,cs),
(345,642,o)
);
}
);
width = 357;
}
);
unicode = 102;
},
{
glyphname = g;
kernLeft = downRounded;
lastChange = "2021-09-30 18:42:35 +0000";
layers = (
{
layerId = "24C63A81-7FC6-4EE9-AF2B-C1140AFD6C4B";
shapes = (
{
ref = _g;
},
{
pos = (340,-2);
ref = _part.flopper;
}
);
width = 526;
},
{
associatedMasterId = "24C63A81-7FC6-4EE9-AF2B-C1140AFD6C4B";
layerId = "BD1441B1-2721-45BE-BE9D-E17EE2ECBCFD";
name = "Dec 24 18, 17:25";
shapes = (
{
closed = 1;
nodes = (
(299,57,o),
(149,27,o),
(147,68,cs),
(145,104,o),
(184,103,o),
(222,104,c),
(243,103,l),
(368,103,o),
(433,182,o),
(433,289,cs),
(433,341,o),
(413,391,o),
(376,425,c),
(358,464,o),
(410,489,o),
(434,438,c),
(441,425,o),
(455,418,o),
(469,418,cs),
(494,418,o),
(508,437,o),
(508,457,cs),
(508,490,o),
(473,526,o),
(421,526,cs),
(371,526,o),
(332,497,o),
(319,459,c),
(300,465,o),
(280,469,o),
(257,469,cs),
(126,469,o),
(62,388,o),
(62,280,cs),
(62,224,o),
(80,175,o),
(119,142,c),
(93,124,o),
(76,99,o),
(76,67,cs),
(76,43,o),
(87,21,o),
(108,3,c),
(74,-17,o),
(50,-48,o),
(50,-82,cs),
(50,-150,o),
(118,-229,o),
(239,-229,cs),
(442,-229,o),
(512,-158,o),
(512,-82,cs),
(512,-40,o),
(499,26,o),
(415,39,cs)
);
},
{
closed = 1;
nodes = (
(320,397,o),
(353,337,o),
(353,289,cs),
(353,219,o),
(314,183,o),
(243,183,cs),
(174,183,o),
(142,216,o),
(142,280,cs),
(142,339,o),
(167,397,o),
(257,397,cs)
);
},
{
closed = 1;
nodes = (
(177,-154,o),
(128,-125,o),
(128,-87,cs),
(128,-56,o),
(174,-30,o),
(239,-30,c),
(399,-21,o),
(437,-28,o),
(437,-72,cs),
(437,-111,o),
(399,-154,o),
(239,-154,cs)
);
}
);
width = 562;
},
{
associatedMasterId = "24C63A81-7FC6-4EE9-AF2B-C1140AFD6C4B";
layerId = "786CC6A5-9801-47D2-8BC7-7650E384EEE3";
name = "Jan 5 19, 20:43";
shapes = (
{
closed = 1;
nodes = (
(296,45,o),
(147,27,o),
(145,68,cs),
(143,99,o),
(162,103,o),
(241,103,c),
(366,103,o),
(431,182,o),
(431,289,cs),
(431,341,o),
(411,391,o),
(374,425,c),
(356,464,o),
(408,489,o),
(432,438,c),
(439,425,o),
(453,418,o),
(467,418,cs),
(492,418,o),
(506,437,o),
(506,457,cs),
(506,490,o),
(471,526,o),
(419,526,cs),
(369,526,o),
(330,497,o),
(317,459,c),
(298,465,o),
(278,469,o),
(255,469,cs),
(124,469,o),
(60,388,o),
(60,280,cs),
(60,224,o),
(78,175,o),
(117,142,c),
(91,124,o),
(74,99,o),
(74,67,cs),
(74,43,o),
(85,21,o),
(117,3,c),
(72,-17,o),
(48,-48,o),
(48,-82,cs),
(48,-150,o),
(106,-229,o),
(272,-229,cs),
(430,-229,o),
(510,-172,o),
(510,-88,cs),
(510,-54,o),
(496,14,o),
(412,27,cs)
);
},
{
closed = 1;
nodes = (
(318,397,o),
(351,337,o),
(351,289,cs),
(351,219,o),
(312,183,o),
(241,183,cs),
(172,183,o),
(140,216,o),
(140,280,cs),
(140,339,o),
(165,397,o),
(255,397,cs)
);
},
{
closed = 1;
nodes = (
(175,-154,o),
(126,-125,o),
(126,-87,cs),
(126,-56,o),
(172,-30,o),
(237,-30,c),
(397,-21,o),
(435,-45,o),
(435,-86,cs),
(435,-128,o),
(397,-154,o),
(275,-154,cs)
);
}
);
width = 522;
},
{
associatedMasterId = "24C63A81-7FC6-4EE9-AF2B-C1140AFD6C4B";
layerId = "E179B40D-7058-4FF1-8F4C-BCEC2680D7E2";
name = "Jan 6 19, 00:23";
shapes = (
{
closed = 1;
nodes = (
(358,38,o),
(260,38,cs),
(193,38,o),
(145,44,o),
(145,74,cs),
(145,90,o),
(162,103,o),
(241,103,cs),
(366,103,o),
(431,182,o),
(431,284,cs),
(431,341,o),
(411,391,o),
(374,425,c),
(356,464,o),
(408,489,o),
(432,438,c),
(439,425,o),
(453,418,o),
(468,418,cs),
(492,418,o),
(506,437,o),
(506,458,cs),
(506,490,o),
(471,526,o),
(419,526,cs),
(369,526,o),
(330,497,o),
(317,459,c),
(298,465,o),
(278,469,o),
(255,469,cs),
(124,469,o),
(60,388,o),
(60,280,cs),
(60,224,o),
(78,175,o),
(127,140,c),
(91,124,o),
(74,99,o),
(74,67,cs),
(74,43,o),
(82,24,o),
(114,6,c),
(70,-11,o),
(48,-46,o),
(48,-82,cs),
(48,-139,o),
(101,-204,o),
(251,-204,cs),
(394,-204,o),
(467,-162,o),
(467,-77,cs),
(467,29,o)
);
},
{
closed = 1;
nodes = (
(324,397,o),
(351,337,o),
(351,283,cs),
(351,219,o),
(312,183,o),
(241,183,cs),
(172,183,o),
(140,216,o),
(140,280,cs),
(140,339,o),
(171,397,o),
(247,397,cs)
);
},
{
closed = 1;
nodes = (
(161,-134,o),
(120,-110,o),
(120,-78,cs),
(120,-50,o),
(155,-29,o),
(259,-29,cs),
(345,-29,o),
(397,-41,o),
(397,-76,cs),
(397,-113,o),
(348,-134,o),
(252,-134,cs)
);
}
);
width = 518;
},
{
anchors = (
{
name = bottom;
pos = (253,-200);
},
{
name = top;
pos = (221,480);
}
);
associatedMasterId = "24C63A81-7FC6-4EE9-AF2B-C1140AFD6C4B";
layerId = "BA8F71EF-109F-46C3-AD05-284CE10F5B4C";
name = "Jan 6 19, 00:51";
shapes = (
{
closed = 1;
nodes = (
(344,77,o),
(247,63,cs),
(181,53,o),
(133,52,o),
(133,76,cs),
(133,90,o),
(150,103,o),
(229,103,cs),
(354,103,o),
(419,182,o),
(419,284,cs),
(419,341,o),
(399,391,o),
(362,425,c),
(344,464,o),
(396,489,o),
(420,438,c),
(427,425,o),
(441,418,o),
(456,418,cs),
(480,418,o),
(494,437,o),
(494,458,cs),
(494,490,o),
(459,526,o),
(407,526,cs),
(357,526,o),
(318,497,o),
(305,459,c),
(286,465,o),
(266,469,o),
(238,469,cs),
(112,469,o),
(48,388,o),
(48,280,cs),
(48,224,o),
(66,175,o),
(115,140,c),
(79,124,o),
(62,105,o),
(63,72,cs),
(63,46,o),
(73,23,o),
(108,10,c),
(67,-14,o),
(50,-51,o),
(56,-90,cs),
(64,-143,o),
(116,-200,o),
(274,-178,cs),
(415,-158,o),
(482,-105,o),
(469,-21,cs),
(454,84,o)
);
},
{
closed = 1;
nodes = (
(312,397,o),
(339,337,o),
(339,283,cs),
(339,219,o),
(300,183,o),
(229,183,cs),
(160,183,o),
(128,216,o),
(128,280,cs),
(128,339,o),
(159,397,o),
(235,397,cs)
);
},
{
closed = 1;
nodes = (
(167,-122,o),
(131,-104,o),
(127,-75,cs),
(122,-45,o),
(153,-19,o),
(256,-4,cs),
(341,9,o),
(395,5,o),
(400,-30,cs),
(405,-67,o),
(360,-96,o),
(265,-109,cs)
);
}
);
width = 506;
},
{
anchors = (
{
name = bottom;
pos = (263,-200);
},
{
name = top;
pos = (233,510);
}
);
associatedMasterId = "24C63A81-7FC6-4EE9-AF2B-C1140AFD6C4B";
layerId = "A930E7F7-36CD-4A8D-AC29-A7731983AE86";
name = "29 Sep 21, 18:54";
shapes = (
{
closed = 1;
nodes = (
(31,87,o),
(120,15,o),
(231,15,cs),
(313,15,o),
(357,55,o),
(378,98,c),
(375,48,ls),
(370,-39,o),
(349,-107,o),
(241,-107,cs),
(221,-107,o),
(166,-104,o),
(128,-96,cs),
(96,-89,o),
(69,-98,o),
(69,-123,cs),
(69,-145,o),
(81,-164,o),
(128,-173,cs),
(143,-176,o),
(204,-183,o),
(244,-183,cs),
(334,-183,o),
(395,-144,o),
(423,-75,cs),
(452,-6,o),
(449,73,o),
(450,192,cs),
(451,298,l),
(451,302,ls),
(451,359,o),
(432,409,o),
(394,443,cs),
(362,472,o),
(428,507,o),
(452,456,c),
(459,443,o),
(473,436,o),
(488,436,cs),
(512,436,o),
(526,455,o),
(526,476,cs),
(526,508,o),
(491,544,o),
(439,544,cs),
(389,544,o),
(350,515,o),
(337,477,c),
(317,483,o),
(295,487,o),
(264,487,cs),
(124,487,o),
(31,397,o),
(31,244,cs)
);
},
{
closed = 1;
nodes = (
(111,343,o),
(170,412,o),
(258,412,cs),
(337,412,o),
(371,357,o),
(371,283,cs),
(371,276,ls),
(371,175,o),
(324,92,o),
(236,92,cs),
(171,92,o),
(111,140,o),
(111,244,cs)
);
}
);
width = 526;
},
{
layerId = m002;
shapes = (
{
ref = _g;
},
{
pos = (372,-2);
ref = _part.flopper;
}
);
width = 541;
},
{
associatedMasterId = m002;
layerId = "43FEBFEC-CBAF-4587-B985-C490D3A0C41F";
name = "Dec 24 18, 17:25";
shapes = (
{
closed = 1;
nodes = (
(299,57,o),
(149,27,o),
(147,68,cs),
(145,104,o),
(184,103,o),
(222,104,c),
(243,103,l),
(368,103,o),
(433,182,o),
(433,289,cs),
(433,341,o),
(413,391,o),
(376,425,c),
(358,464,o),
(410,489,o),
(434,438,c),
(441,425,o),
(455,418,o),
(469,418,cs),
(494,418,o),
(508,437,o),
(508,457,cs),
(508,490,o),
(473,526,o),
(421,526,cs),
(371,526,o),
(332,497,o),
(319,459,c),
(300,465,o),
(280,469,o),
(257,469,cs),
(126,469,o),
(62,388,o),
(62,280,cs),
(62,224,o),
(80,175,o),
(119,142,c),
(93,124,o),
(76,99,o),
(76,67,cs),
(76,43,o),
(87,21,o),
(108,3,c),
(74,-17,o),
(50,-48,o),
(50,-82,cs),
(50,-150,o),
(118,-229,o),
(239,-229,cs),
(442,-229,o),
(512,-158,o),
(512,-82,cs),
(512,-40,o),
(499,26,o),
(415,39,cs)
);
},
{
closed = 1;
nodes = (
(320,397,o),
(353,337,o),
(353,289,cs),
(353,219,o),
(314,183,o),
(243,183,cs),
(174,183,o),
(142,216,o),
(142,280,cs),
(142,339,o),
(167,397,o),
(257,397,cs)
);
},
{
closed = 1;
nodes = (
(177,-154,o),
(128,-125,o),
(128,-87,cs),
(128,-56,o),
(174,-30,o),
(239,-30,c),
(399,-21,o),
(437,-28,o),
(437,-72,cs),
(437,-111,o),
(399,-154,o),
(239,-154,cs)
);
}
);
width = 562;
},
{
associatedMasterId = m002;
layerId = "E5D73717-B828-4EF9-8A9E-D43229A24185";
name = "Jan 5 19, 20:43";
shapes = (
{
closed = 1;
nodes = (
(296,45,o),
(147,27,o),
(145,68,cs),
(143,99,o),
(162,103,o),
(241,103,c),
(366,103,o),
(431,182,o),
(431,289,cs),
(431,341,o),
(411,391,o),
(374,425,c),
(356,464,o),
(408,489,o),
(432,438,c),
(439,425,o),
(453,418,o),
(467,418,cs),
(492,418,o),
(506,437,o),
(506,457,cs),
(506,490,o),
(471,526,o),
(419,526,cs),
(369,526,o),
(330,497,o),
(317,459,c),
(298,465,o),
(278,469,o),
(255,469,cs),
(124,469,o),
(60,388,o),
(60,280,cs),
(60,224,o),
(78,175,o),
(117,142,c),
(91,124,o),
(74,99,o),
(74,67,cs),
(74,43,o),
(85,21,o),
(117,3,c),
(72,-17,o),
(48,-48,o),
(48,-82,cs),
(48,-150,o),
(106,-229,o),
(272,-229,cs),
(430,-229,o),
(510,-172,o),
(510,-88,cs),
(510,-54,o),
(496,14,o),
(412,27,cs)
);
},
{
closed = 1;
nodes = (
(318,397,o),
(351,337,o),
(351,289,cs),
(351,219,o),
(312,183,o),
(241,183,cs),
(172,183,o),
(140,216,o),
(140,280,cs),
(140,339,o),
(165,397,o),
(255,397,cs)
);
},
{
closed = 1;
nodes = (
(175,-154,o),
(126,-125,o),
(126,-87,cs),
(126,-56,o),
(172,-30,o),
(237,-30,c),
(397,-21,o),
(435,-45,o),
(435,-86,cs),
(435,-128,o),
(397,-154,o),
(275,-154,cs)
);
}
);
width = 522;
},
{
associatedMasterId = m002;
layerId = "BFD8C5FF-C43D-40E6-8716-CA6652DD3DD7";
name = "Jan 6 19, 00:23";
shapes = (
{
closed = 1;
nodes = (
(358,38,o),
(260,38,cs),
(193,38,o),
(145,44,o),
(145,74,cs),
(145,90,o),
(162,103,o),
(241,103,cs),
(366,103,o),
(431,182,o),
(431,284,cs),
(431,341,o),
(411,391,o),
(374,425,c),
(356,464,o),
(408,489,o),
(432,438,c),
(439,425,o),
(453,418,o),
(468,418,cs),
(492,418,o),
(506,437,o),
(506,458,cs),
(506,490,o),
(471,526,o),
(419,526,cs),
(369,526,o),
(330,497,o),
(317,459,c),
(298,465,o),
(278,469,o),
(255,469,cs),
(124,469,o),
(60,388,o),
(60,280,cs),
(60,224,o),
(78,175,o),
(127,140,c),
(91,124,o),
(74,99,o),
(74,67,cs),
(74,43,o),
(82,24,o),
(114,6,c),
(70,-11,o),
(48,-46,o),
(48,-82,cs),
(48,-139,o),
(101,-204,o),
(251,-204,cs),
(394,-204,o),
(467,-162,o),
(467,-77,cs),
(467,29,o)
);
},
{
closed = 1;
nodes = (
(324,397,o),
(351,337,o),
(351,283,cs),
(351,219,o),
(312,183,o),
(241,183,cs),
(172,183,o),
(140,216,o),
(140,280,cs),
(140,339,o),
(171,397,o),
(247,397,cs)
);
},
{
closed = 1;
nodes = (
(161,-134,o),
(120,-110,o),
(120,-78,cs),
(120,-50,o),
(155,-29,o),
(259,-29,cs),
(345,-29,o),
(397,-41,o),
(397,-76,cs),
(397,-113,o),
(348,-134,o),
(252,-134,cs)
);
}
);
width = 518;
},
{
anchors = (
{
name = bottom;
pos = (253,-200);
},
{
name = top;
pos = (221,480);
}
);
associatedMasterId = m002;
layerId = "3AB444FD-ADE1-4D75-B6E6-FAC7345C26D2";
name = "Jan 6 19, 00:51";
shapes = (
{
closed = 1;
nodes = (
(344,77,o),
(247,63,cs),
(181,53,o),
(133,52,o),
(133,76,cs),
(133,90,o),
(150,103,o),
(229,103,cs),
(354,103,o),
(419,182,o),
(419,284,cs),
(419,341,o),
(399,391,o),
(362,425,c),
(344,464,o),
(396,489,o),
(420,438,c),
(427,425,o),
(441,418,o),
(456,418,cs),
(480,418,o),
(494,437,o),
(494,458,cs),
(494,490,o),
(459,526,o),
(407,526,cs),
(357,526,o),
(318,497,o),
(305,459,c),
(286,465,o),
(266,469,o),
(238,469,cs),
(112,469,o),
(48,388,o),
(48,280,cs),
(48,224,o),
(66,175,o),
(115,140,c),
(79,124,o),
(62,105,o),
(63,72,cs),
(63,46,o),
(73,23,o),
(108,10,c),
(67,-14,o),
(50,-51,o),
(56,-90,cs),
(64,-143,o),
(116,-200,o),
(274,-178,cs),
(415,-158,o),
(482,-105,o),
(469,-21,cs),
(454,84,o)
);
},
{
closed = 1;
nodes = (
(312,397,o),
(339,337,o),
(339,283,cs),
(339,219,o),
(300,183,o),
(229,183,cs),
(160,183,o),
(128,216,o),
(128,280,cs),
(128,339,o),
(159,397,o),
(235,397,cs)
);
},
{
closed = 1;
nodes = (
(167,-122,o),
(131,-104,o),
(127,-75,cs),
(122,-45,o),
(153,-19,o),
(256,-4,cs),
(341,9,o),
(395,5,o),
(400,-30,cs),
(405,-67,o),
(360,-96,o),
(265,-109,cs)
);
}
);
width = 506;
},
{
anchors = (
{
name = bottom;
pos = (263,-200);
},
{
name = top;
pos = (233,510);
}
);
associatedMasterId = m002;
layerId = "B8FBF9C5-C592-4F20-8AB2-BF6341F2526F";
name = "29 Sep 21, 18:54";
shapes = (
{
closed = 1;
nodes = (
(31,87,o),
(120,15,o),
(231,15,cs),
(313,15,o),
(357,55,o),
(378,98,c),
(375,48,ls),
(370,-39,o),
(349,-107,o),
(241,-107,cs),
(221,-107,o),
(166,-104,o),
(128,-96,cs),
(96,-89,o),
(69,-98,o),
(69,-123,cs),
(69,-145,o),
(81,-164,o),
(128,-173,cs),
(143,-176,o),
(204,-183,o),
(244,-183,cs),
(334,-183,o),
(395,-144,o),
(423,-75,cs),
(452,-6,o),
(449,73,o),
(450,192,cs),
(451,298,l),
(451,302,ls),
(451,359,o),
(432,409,o),
(394,443,cs),
(362,472,o),
(428,507,o),
(452,456,c),
(459,443,o),
(473,436,o),
(488,436,cs),
(512,436,o),
(526,455,o),
(526,476,cs),
(526,508,o),
(491,544,o),
(439,544,cs),
(389,544,o),
(350,515,o),
(337,477,c),
(317,483,o),
(295,487,o),
(264,487,cs),
(124,487,o),
(31,397,o),
(31,244,cs)
);
},
{
closed = 1;
nodes = (
(111,343,o),
(170,412,o),
(258,412,cs),
(337,412,o),
(371,357,o),
(371,283,cs),
(371,276,ls),
(371,175,o),
(324,92,o),
(236,92,cs),
(171,92,o),
(111,140,o),
(111,244,cs)
);
}
);
width = 526;
},
{
anchors = (
{
name = bottom;
pos = (263,-200);
},
{
name = top;
pos = (233,510);
}
);
associatedMasterId = m002;
layerId = "552424EC-681E-41B7-B359-8960A8168C81";
name = "30 Sep 21, 11:15";
shapes = (
{
closed = 1;
nodes = (
(31,87,o),
(120,15,o),
(231,15,cs),
(313,15,o),
(357,55,o),
(378,98,c),
(375,48,ls),
(370,-39,o),
(349,-107,o),
(241,-107,cs),
(221,-107,o),
(166,-104,o),
(128,-96,cs),
(96,-89,o),
(69,-98,o),
(69,-123,cs),
(69,-145,o),
(81,-164,o),
(128,-173,cs),
(143,-176,o),
(204,-183,o),
(244,-183,cs),
(334,-183,o),
(395,-144,o),
(423,-75,cs),
(452,-6,o),
(449,73,o),
(450,192,cs),
(451,298,l),
(451,302,ls),
(451,359,o),
(432,409,o),
(394,443,c),
(437,443,o),
(504,472,o),
(509,521,cs),
(513,562,o),
(503,584,o),
(478,606,cs),
(460,622,o),
(423,635,o),
(407,612,cs),
(381,574,o),
(438,567,o),
(425,521,cs),
(415,486,o),
(367,465,o),
(337,477,c),
(317,483,o),
(295,487,o),
(264,487,cs),
(124,487,o),
(31,397,o),
(31,244,cs)
);
},
{
closed = 1;
nodes = (
(111,343,o),
(170,412,o),
(258,412,cs),
(337,412,o),
(371,357,o),
(371,283,cs),
(371,276,ls),
(371,175,o),
(324,92,o),
(236,92,cs),
(171,92,o),
(111,140,o),
(111,244,cs)
);
}
);
width = 526;
},
{
associatedMasterId = "24C63A81-7FC6-4EE9-AF2B-C1140AFD6C4B";
layerId = "7099B10C-1C53-426D-84A5-1260FFD3FF74";
name = "30 Sep 21, 12:11";
shapes = (
{
ref = _g;
},
{
pos = (340,-2);
ref = _part.flopper;
}
);
width = 526;
}
);
metricLeft = o;
unicode = 103;
},
{
glyphname = h;
lastChange = "2021-09-30 18:24:00 +0000";
layers = (
{
layerId = "24C63A81-7FC6-4EE9-AF2B-C1140AFD6C4B";
shapes = (
{
closed = 1;
nodes = (
(108,696,o),
(88,695,cs),
(68,695,o),
(48,680,o),
(48,649,cs),
(50,228,ls),
(50,89,o),
(48,60,o),
(48,44,cs),
(48,16,o),
(68,0,o),
(87,0,cs),
(107,-1,o),
(127,12,o),
(128,42,cs),
(130,231,ls),
(130,350,o),
(173,414,o),
(267,414,cs),
(326,414,o),
(365,389,o),
(364,278,cs),
(362,41,ls),
(362,13,o),
(384,-1,o),
(404,1,cs),
(420,2,o),
(436,15,o),
(436,40,cs),
(436,125,o),
(441,218,o),
(441,283,cs),
(441,411,o),
(404,489,o),
(288,489,cs),
(233,489,o),
(169,471,o),
(136,412,cs),
(132,404,o),
(126,406,o),
(126,415,cs),
(128,649,l),
(128,680,o)
);
}
);
width = 489;
},
{
associatedMasterId = "24C63A81-7FC6-4EE9-AF2B-C1140AFD6C4B";
layerId = "2601E4EC-9AFB-4D2A-9172-416F5A4EA30D";
name = "Jun 12 19, 00:46";
shapes = (
{
closed = 1;
nodes = (
(48,711,o),
(48,649,cs),
(50,228,ls),
(50,89,o),
(48,60,o),
(48,49,cs),
(48,-13,o),
(127,-17,o),
(128,47,cs),
(130,231,l),
(130,342,l),
(164,376,o),
(224,414,o),
(280,414,cs),
(324,414,o),
(365,389,o),
(364,278,cs),
(362,46,ls),
(362,-10,o),
(436,-15,o),
(436,45,cs),
(436,125,o),
(441,218,o),
(441,283,cs),
(441,411,o),
(398,489,o),
(288,489,cs),
(219,489,o),
(174,457,o),
(129,423,c),
(128,649,ls),
(128,711,o)
);
}
);
width = 489;
},
{
layerId = m002;
shapes = (
{
closed = 1;
nodes = (
(168,692,o),
(151,695,cs),
(129,699,o),
(103,683,o),
(100,649,cs),
(58,228,ls),
(41,57,o),
(36,60,o),
(36,38,cs),
(36,16,o),
(50,3,o),
(67,0,cs),
(88,-3,o),
(112,10,o),
(116,42,cs),
(138,231,ls),
(152,350,o),
(201,414,o),
(294,414,cs),
(352,414,o),
(390,389,o),
(377,278,cs),
(350,41,ls),
(348,20,o),
(359,-4,o),
(391,-3,cs),
(423,-2,o),
(435,23,o),
(436,37,cs),
(449,166,o),
(447,190,o),
(457,336,cs),
(464,432,o),
(422,489,o),
(323,489,cs),
(268,489,o),
(202,471,o),
(163,412,cs),
(158,404,o),
(152,406,o),
(153,415,cs),
(180,649,l),
(183,677,o)
);
}
);
width = 494;
},
{
associatedMasterId = m002;
layerId = "F71B153E-C20B-4AC5-9164-A00676842846";
name = "Jun 12 19, 00:46";
shapes = (
{
closed = 1;
nodes = (
(48,711,o),
(48,649,cs),
(50,228,ls),
(50,89,o),
(48,60,o),
(48,49,cs),
(48,-13,o),
(127,-17,o),
(128,47,cs),
(130,231,l),
(130,342,l),
(164,376,o),
(224,414,o),
(280,414,cs),
(324,414,o),
(365,389,o),
(364,278,cs),
(362,46,ls),
(362,-10,o),
(436,-15,o),
(436,45,cs),
(436,125,o),
(441,218,o),
(441,283,cs),
(441,411,o),
(398,489,o),
(288,489,cs),
(219,489,o),
(174,457,o),
(129,423,c),
(128,649,ls),
(128,711,o)
);
}
);
width = 489;
}
);
metricLeft = n;
metricRight = n;
unicode = 104;
},
{
glyphname = idotless;
lastChange = "2021-09-30 18:24:00 +0000";
layers = (
{
anchors = (
{
name = bottom;
pos = (92,0);
},
{
name = ogonek;
pos = (138,50);
},
{
name = top;
pos = (102,520);
}
);
background = {
shapes = (
{
closed = 0;
nodes = (
(74,79,l)
);
},
{
closed = 0;
nodes = (
(154,104,l)
);
}
);
};
layerId = "24C63A81-7FC6-4EE9-AF2B-C1140AFD6C4B";
shapes = (
{
closed = 1;
nodes = (
(138,-2,o),
(154,14,o),
(154,48,cs),
(154,427,l),
(157,472,o),
(133,490,o),
(96,490,cs),
(74,490,o),
(48,482,o),
(48,455,cs),
(48,445,o),
(52,436,o),
(65,427,cs),
(71,423,o),
(74,415,o),
(74,405,cs),
(74,79,ls),
(74,8,o),
(92,-2,o),
(115,-2,cs)
);
}
);
width = 202;
},
{
anchors = (
{
name = bottom;
pos = (48,0);
},
{
name = ogonek;
pos = (99,50);
},
{
name = top;
pos = (132,520);
}
);
background = {
shapes = (
{
closed = 0;
nodes = (
(64,79,l)
);
},
{
closed = 0;
nodes = (
(144,104,l)
);
}
);
};
layerId = m002;
shapes = (
{
closed = 1;
nodes = (
(91,-2,o),
(111,11,o),
(115,48,cs),
(155,427,l),
(162,469,o),
(143,490,o),
(103,490,cs),
(72,490,o),
(51,475,o),
(51,451,cs),
(51,442,o),
(55,435,o),
(66,427,cs),
(71,423,o),
(73,414,o),
(72,405,cs),
(38,79,ls),
(31,8,o),
(47,-2,o),
(70,-2,cs)
);
}
);
width = 192;
}
);
metricLeft = n;
metricRight = "=n";
unicode = 305;
},
{
glyphname = ij;
lastChange = "2021-09-29 17:01:59 +0000";
layers = (
{
layerId = "24C63A81-7FC6-4EE9-AF2B-C1140AFD6C4B";
shapes = (
{
closed = 1;
nodes = (
(146,-141,o),
(169,-159,o),
(250,-159,cs),
(286,-159,o),
(410,-158,o),
(411,-12,cs),
(415,462,ls),
(415,467,o),
(394,482,o),
(354,482,cs),
(319,482,o),
(290,473,o),
(290,444,cs),
(290,425,o),
(303,414,o),
(314,414,cs),
(320,414,o),
(332,415,o),
(337,416,c),
(339,112,o),
(337,45,o),
(331,-19,cs),
(323,-107,o),
(217,-82,o),
(188,-82,cs),
(158,-82,o),
(146,-99,o),
(146,-117,cs)
);
},
{
pos = (40,0);
ref = i;
},
{
pos = (150,-213);
ref = dotaccentcomb;
}
);
width = 463;
},
{
layerId = m002;
shapes = (
{
closed = 1;
nodes = (
(146,-141,o),
(169,-159,o),
(250,-159,cs),
(286,-159,o),
(410,-158,o),
(411,-12,cs),
(415,462,ls),
(415,467,o),
(394,482,o),
(354,482,cs),
(319,482,o),
(290,473,o),
(290,444,cs),
(290,425,o),
(303,414,o),
(314,414,cs),
(320,414,o),
(332,415,o),
(337,416,c),
(339,112,o),
(337,45,o),
(331,-19,cs),
(323,-107,o),
(217,-82,o),
(188,-82,cs),
(158,-82,o),
(146,-99,o),
(146,-117,cs)
);
},
{
pos = (40,0);
ref = i;
},
{
pos = (150,-213);
ref = dotaccentcomb;
}
);
width = 463;
}
);
unicode = 307;
},
{
glyphname = j;
lastChange = "2021-09-30 18:42:35 +0000";
layers = (
{
background = {
shapes = (
{
closed = 0;
nodes = (
(804,383,l)
);
},
{
closed = 0;
nodes = (
(803,416,l)
);
}
);
};
layerId = "24C63A81-7FC6-4EE9-AF2B-C1140AFD6C4B";
shapes = (
{
ref = jdotless;
},
{
pos = (-99,-147);
ref = dotaccentcomb;
}
);
width = 198;
},
{
associatedMasterId = "24C63A81-7FC6-4EE9-AF2B-C1140AFD6C4B";
layerId = "8233342D-35DE-446A-B08F-6C8801034009";
name = "Dec 24 18, 16:30";
shapes = (
{
closed = 1;
nodes = (
(105,647,o),
(85,622,o),
(89,592,cs),
(90,584,ls),
(94,556,o),
(117,542,o),
(144,542,cs),
(151,542,l),
(181,546,o),
(203,570,o),
(196,598,cs),
(194,606,ls),
(186,637,o),
(165,656,o),
(135,651,cs)
);
},
{
closed = 1;
nodes = (
(95,463,o),
(67,431,o),
(68,403,c),
(68,383,o),
(78,359,o),
(120,369,c),
(120,242,ls),
(120,90,o),
(123,50,o),
(114,-19,c),
(109,-49,o),
(100,-70,o),
(90,-82,cs),
(84,-89,o),
(75,-98,o),
(53,-101,c),
(31,-105,o),
(16,-125,o),
(19,-147,cs),
(22,-167,o),
(39,-181,o),
(59,-181,cs),
(61,-181,o),
(63,-180,o),
(65,-180,c),
(150,-166,o),
(184,-89,o),
(190,-32,cs),
(198,44,o),
(197,81,o),
(197,244,cs),
(197,459,o),
(205,483,o),
(160,475,cs)
);
}
);
width = 281;
},
{
background = {
shapes = (
{
closed = 0;
nodes = (
(1697,383,l)
);
},
{
closed = 0;
nodes = (
(1696,416,l)
);
}
);
};
layerId = m002;
shapes = (
{
ref = jdotless;
},
{
pos = (-58,-147);
ref = dotaccentcomb;
}
);
width = 208;
},
{
associatedMasterId = m002;
layerId = "18F893D9-0E6F-495D-A526-36FEE95110B0";
name = "Dec 24 18, 16:30";
shapes = (
{
closed = 1;
nodes = (
(105,647,o),
(85,622,o),
(89,592,cs),
(90,584,ls),
(94,556,o),
(117,542,o),
(144,542,cs),
(151,542,l),
(181,546,o),
(203,570,o),
(196,598,cs),
(194,606,ls),
(186,637,o),
(165,656,o),
(135,651,cs)
);
},
{
closed = 1;
nodes = (
(95,463,o),
(67,431,o),
(68,403,c),
(68,383,o),
(78,359,o),
(120,369,c),
(120,242,ls),
(120,90,o),
(123,50,o),
(114,-19,c),
(109,-49,o),
(100,-70,o),
(90,-82,cs),
(84,-89,o),
(75,-98,o),
(53,-101,c),
(31,-105,o),
(16,-125,o),
(19,-147,cs),
(22,-167,o),
(39,-181,o),
(59,-181,cs),
(61,-181,o),
(63,-180,o),
(65,-180,c),
(150,-166,o),
(184,-89,o),
(190,-32,cs),
(198,44,o),
(197,81,o),
(197,244,cs),
(197,459,o),
(205,483,o),
(160,475,cs)
);
}
);
width = 281;
}
);
metricLeft = v;
metricRight = n;
unicode = 106;
},
{
glyphname = jdotless;
lastChange = "2021-09-30 18:24:00 +0000";
layers = (
{
anchors = (
{
name = bottom;
pos = (77,-200);
},
{
name = top;
pos = (101,520);
}
);
background = {
shapes = (
{
closed = 0;
nodes = (
(147,401,ls)
);
},
{
closed = 0;
nodes = (
(70,399,ls)
);
}
);
};
layerId = "24C63A81-7FC6-4EE9-AF2B-C1140AFD6C4B";
shapes = (
{
closed = 1;
nodes = (
(107,-181,o),
(147,-108,o),
(148,-32,cs),
(150,270,l),
(150,427,l),
(153,472,o),
(129,490,o),
(92,490,cs),
(70,490,o),
(44,482,o),
(44,455,cs),
(44,445,o),
(48,436,o),
(61,427,cs),
(67,423,o),
(70,415,o),
(70,405,cs),
(70,270,ls),
(70,101,o),
(73,0,o),
(64,-49,cs),
(55,-97,o),
(40,-106,o),
(11,-106,cs),
(-19,-106,o),
(-31,-123,o),
(-31,-135,cs),
(-31,-159,o),
(-10,-181,o),
(32,-181,cs)
);
}
);
width = 198;
},
{
anchors = (
{
name = bottom;
pos = (31,-200);
},
{
name = top;
pos = (142,520);
}
);
background = {
shapes = (
{
closed = 0;
nodes = (
(108,401,ls)
);
},
{
closed = 0;
nodes = (
(31,399,ls)
);
}
);
};
layerId = m002;
shapes = (
{
closed = 1;
nodes = (
(64,-181,o),
(111,-108,o),
(120,-32,cs),
(154,270,l),
(170,427,l),
(178,472,o),
(156,490,o),
(119,490,cs),
(88,490,o),
(67,475,o),
(67,451,cs),
(67,442,o),
(72,434,o),
(81,427,cs),
(87,423,o),
(89,415,o),
(88,405,cs),
(74,270,ls),
(56,97,o),
(48,0,o),
(34,-50,cs),
(20,-97,o),
(4,-106,o),
(-25,-106,cs),
(-51,-106,o),
(-70,-120,o),
(-70,-139,cs),
(-70,-161,o),
(-51,-181,o),
(-12,-181,cs)
);
}
);
width = 208;
}
);
metricRight = n;
unicode = 567;
},
{
glyphname = k;
lastChange = "2021-09-30 18:24:00 +0000";
layers = (
{
anchors = (
{
name = bottom;
pos = (232,0);
},
{
name = top;
pos = (232,800);
}
);
layerId = "24C63A81-7FC6-4EE9-AF2B-C1140AFD6C4B";
shapes = (
{
closed = 1;
nodes = (
(69,-1,o),
(89,-1,cs),
(107,-1,o),
(126,9,o),
(130,48,cs),
(131,62,o),
(132,65,o),
(134,94,c),
(203,128,o),
(272,123,o),
(337,32,cs),
(351,12,o),
(362,-2,o),
(384,-2,cs),
(403,-2,o),
(418,8,o),
(418,28,cs),
(418,36,o),
(416,47,o),
(410,61,cs),
(389,107,o),
(352,147,o),
(263,164,cs),
(254,166,o),
(254,169,o),
(262,172,cs),
(394,216,o),
(426,297,o),
(426,355,cs),
(426,433,o),
(363,490,o),
(285,490,cs),
(234,490,o),
(166,463,o),
(129,382,c),
(128,661,l),
(128,683,o),
(110,701,o),
(88,700,c),
(66,700,o),
(48,682,o),
(48,660,cs),
(48,657,o),
(53,370,o),
(53,230,cs),
(49,44,ls),
(48,12,o)
);
},
{
closed = 1;
nodes = (
(135,320,o),
(194,417,o),
(274,417,cs),
(313,417,o),
(346,394,o),
(346,354,cs),
(346,308,o),
(303,261,o),
(254,231,cs),
(226,213,o),
(176,185,o),
(143,169,c),
(136,165,o),
(131,169,o),
(131,177,cs)
);
}
);
width = 457;
},
{
associatedMasterId = "24C63A81-7FC6-4EE9-AF2B-C1140AFD6C4B";
layerId = "0219934E-6263-49D1-99F8-EC1ABFD1C13C";
name = "Dec 24 18, 16:33";
shapes = (
{
closed = 1;
nodes = (
(293,343,o),
(334,368,o),
(364,388,cs),
(411,420,o),
(413,439,o),
(400,458,cs),
(386,478,o),
(360,470,o),
(315,445,cs),
(239,402,o),
(239,389,o),
(144,330,c),
(143,474,o),
(140,659,o),
(140,661,cs),
(140,683,o),
(122,701,o),
(100,700,c),
(78,700,o),
(60,682,o),
(60,660,cs),
(60,657,o),
(65,370,o),
(65,230,cs),
(65,93,o),
(61,44,o),
(61,44,c),
(58,22,o),
(74,2,o),
(96,0,c),
(156,0,o),
(145,68,o),
(145,230,cs),
(145,243,l),
(186,243,o),
(247,238,o),
(283,200,cs),
(328,151,o),
(329,98,o),
(329,42,c),
(328,20,o),
(344,1,o),
(366,0,c),
(390,0,o),
(408,16,o),
(409,37,c),
(409,133,o),
(394,288,o),
(221,301,c)
);
}
);
width = 469;
},
{
associatedMasterId = "24C63A81-7FC6-4EE9-AF2B-C1140AFD6C4B";
layerId = "09F9386A-8888-43F7-9783-3A3597C43046";
name = "Dec 26 18, 21:44";
shapes = (
{
closed = 1;
nodes = (
(275,364,o),
(311,396,o),
(352,424,cs),
(387,458,o),
(385,482,o),
(369,499,cs),
(345,522,o),
(314,510,o),
(284,480,cs),
(222,417,o),
(193,390,o),
(132,330,c),
(131,484,o),
(128,659,o),
(128,661,cs),
(128,683,o),
(110,701,o),
(88,700,c),
(66,700,o),
(48,682,o),
(48,660,cs),
(48,657,o),
(53,370,o),
(53,230,c),
(49,44,ls),
(46,22,o),
(62,2,o),
(84,0,cs),
(112,0,o),
(124,15,o),
(130,47,cs),
(136,82,o),
(133,143,o),
(133,243,c),
(174,243,o),
(235,238,o),
(271,200,cs),
(316,151,o),
(317,98,o),
(317,42,cs),
(316,20,o),
(332,1,o),
(354,0,cs),
(378,0,o),
(396,16,o),
(397,37,cs),
(397,133,o),
(382,288,o),
(212,310,c)
);
}
);
width = 445;
},
{
associatedMasterId = "24C63A81-7FC6-4EE9-AF2B-C1140AFD6C4B";
layerId = "8591D5FB-1DFF-4DA5-8192-E3CC6CAD3DD9";
name = "Dec 26 18, 21:50";
shapes = (
{
closed = 1;
nodes = (
(112,0,o),
(124,15,o),
(130,47,cs),
(133,65,o),
(134,89,o),
(134,121,cs),
(134,153,o),
(133,193,o),
(133,243,c),
(174,243,o),
(235,238,o),
(271,200,cs),
(316,151,o),
(317,98,o),
(317,42,c),
(316,20,o),
(332,1,o),
(354,0,c),
(378,0,o),
(396,16,o),
(397,37,c),
(397,133,o),
(382,288,o),
(224,295,c),
(321,310,o),
(383,355,o),
(383,415,cs),
(383,470,o),
(329,513,o),
(256,513,cs),
(218,513,o),
(167,502,o),
(130,454,c),
(128,661,l),
(128,683,o),
(110,701,o),
(88,700,c),
(66,700,o),
(48,682,o),
(48,660,cs),
(48,657,o),
(53,370,o),
(53,230,cs),
(49,44,l),
(46,22,o),
(62,2,o),
(84,0,c)
);
},
{
closed = 1;
nodes = (
(150,399,o),
(220,432,o),
(257,432,cs),
(279,432,o),
(292,420,o),
(292,403,cs),
(292,353,o),
(175,341,o),
(133,331,c)
);
}
);
width = 445;
},
{
associatedMasterId = "24C63A81-7FC6-4EE9-AF2B-C1140AFD6C4B";
layerId = "1EEA806D-64AC-4EBE-8D07-342A4A82F0F8";
name = "Dec 26 18, 21:57";
shapes = (
{
closed = 1;
nodes = (
(112,0,o),
(124,15,o),
(130,47,cs),
(133,65,o),
(134,89,o),
(134,121,cs),
(134,153,o),
(133,156,o),
(133,206,c),
(231,171,o),
(280,121,o),
(320,32,cs),
(329,12,o),
(344,-1,o),
(368,-2,cs),
(390,-3,o),
(402,15,o),
(392,53,cs),
(371,131,o),
(313,206,o),
(200,254,c),
(317,269,o),
(383,318,o),
(383,378,cs),
(383,433,o),
(329,476,o),
(256,476,cs),
(218,476,o),
(167,465,o),
(130,417,c),
(128,661,l),
(128,683,o),
(110,701,o),
(88,700,c),
(66,700,o),
(48,682,o),
(48,660,cs),
(48,657,o),
(53,370,o),
(53,230,cs),
(49,44,l),
(46,22,o),
(62,2,o),
(84,0,cs)
);
},
{
closed = 1;
nodes = (
(168,383,o),
(217,400,o),
(246,400,cs),
(276,400,o),
(292,383,o),
(292,366,cs),
(292,316,o),
(168,312,o),
(126,302,c)
);
}
);
width = 444;
},
{
associatedMasterId = "24C63A81-7FC6-4EE9-AF2B-C1140AFD6C4B";
layerId = "98FC5D4A-20CA-460A-8708-A00A4F03D207";
name = "Jan 5 19, 20:18";
shapes = (
{
closed = 1;
nodes = (
(112,0,o),
(124,15,o),
(130,47,cs),
(133,65,o),
(134,89,o),
(134,121,cs),
(134,153,o),
(134,186,o),
(133,215,c),
(231,171,o),
(280,121,o),
(320,32,cs),
(329,12,o),
(344,-1,o),
(368,-2,cs),
(390,-3,o),
(402,15,o),
(392,53,cs),
(371,131,o),
(313,210,o),
(192,258,c),
(348,275,o),
(404,325,o),
(404,392,cs),
(404,453,o),
(358,493,o),
(288,493,cs),
(229,493,o),
(168,465,o),
(131,402,c),
(128,661,l),
(128,683,o),
(110,701,o),
(88,700,c),
(66,700,o),
(48,682,o),
(48,660,cs),
(48,657,o),
(53,370,o),
(53,230,cs),
(49,44,l),
(46,22,o),
(62,2,o),
(84,0,cs)
);
},
{
closed = 1;
nodes = (
(179,391,o),
(232,417,o),
(269,417,cs),
(300,417,o),
(319,400,o),
(319,380,cs),
(319,325,o),
(177,317,o),
(148,317,c)
);
}
);
width = 416;
},
{
associatedMasterId = "24C63A81-7FC6-4EE9-AF2B-C1140AFD6C4B";
layerId = "021047D3-91E9-478B-85C3-E9FE9B518A2C";
name = "Jan 5 19, 20:23";
shapes = (
{
closed = 1;
nodes = (
(112,0,o),
(124,15,o),
(130,47,cs),
(133,65,o),
(134,89,o),
(134,121,cs),
(134,153,o),
(134,186,o),
(133,215,c),
(231,171,o),
(280,121,o),
(320,32,cs),
(329,12,o),
(344,-1,o),
(368,-2,cs),
(390,-3,o),
(402,15,o),
(392,53,cs),
(371,131,o),
(327,171,o),
(264,225,c),
(388,225,o),
(414,315,o),
(414,367,cs),
(414,443,o),
(358,493,o),
(283,493,cs),
(229,493,o),
(168,465,o),
(131,402,c),
(128,661,l),
(128,683,o),
(110,701,o),
(88,700,c),
(66,700,o),
(48,682,o),
(48,660,cs),
(48,657,o),
(53,370,o),
(53,230,cs),
(49,44,l),
(46,22,o),
(62,2,o),
(84,0,cs)
);
},
{
closed = 1;
nodes = (
(158,374,o),
(218,417,o),
(266,417,cs),
(301,417,o),
(330,394,o),
(328,353,cs),
(324,279,o),
(215,261,o),
(148,288,c)
);
}
);
width = 416;
},
{
associatedMasterId = "24C63A81-7FC6-4EE9-AF2B-C1140AFD6C4B";
layerId = "8AF8CA97-10ED-412D-8409-99B27AA3F276";
name = "Jan 5 19, 20:41";
shapes = (
{
closed = 1;
nodes = (
(69,-1,o),
(89,-1,cs),
(107,-1,o),
(126,9,o),
(130,48,cs),
(131,62,o),
(132,65,o),
(134,94,c),
(162,108,o),
(208,131,o),
(239,145,c),
(274,109,o),
(302,81,o),
(337,32,cs),
(351,12,o),
(362,-2,o),
(384,-2,cs),
(403,-2,o),
(415,8,o),
(415,28,cs),
(415,36,o),
(413,44,o),
(408,55,cs),
(385,107,o),
(339,145,o),
(305,178,c),
(403,229,o),
(426,305,o),
(426,352,cs),
(426,433,o),
(365,483,o),
(286,483,cs),
(236,483,o),
(166,463,o),
(129,382,c),
(128,661,l),
(128,683,o),
(110,701,o),
(88,700,c),
(66,700,o),
(48,682,o),
(48,660,cs),
(48,657,o),
(53,370,o),
(53,230,cs),
(49,44,ls),
(48,12,o)
);
},
{
closed = 1;
nodes = (
(131,314,o),
(191,412,o),
(278,412,cs),
(313,412,o),
(346,394,o),
(346,354,cs),
(346,308,o),
(303,261,o),
(254,231,cs),
(222,211,o),
(162,177,o),
(131,163,c)
);
}
);
width = 430;
},
{
anchors = (
{
name = bottom;
pos = (214,0);
},
{
name = top;
pos = (298,800);
}
);
layerId = m002;
shapes = (
{
closed = 1;
nodes = (
(54,-1,o),
(71,-1,cs),
(90,-1,o),
(109,9,o),
(117,47,cs),
(119,59,o),
(119,52,o),
(126,94,c),
(205,131,o),
(271,117,o),
(322,33,cs),
(335,12,o),
(344,-2,o),
(366,-2,cs),
(385,-2,o),
(404,8,o),
(404,34,cs),
(404,42,o),
(402,51,o),
(399,60,cs),
(383,107,o),
(350,147,o),
(263,164,cs),
(254,166,o),
(255,169,o),
(263,172,cs),
(399,216,o),
(446,301,o),
(446,370,cs),
(446,440,o),
(392,490,o),
(319,490,cs),
(268,490,o),
(197,463,o),
(152,382,c),
(180,661,l),
(182,683,o),
(166,701,o),
(144,700,c),
(123,700,o),
(102,682,o),
(100,662,cs),
(100,659,o),
(76,370,o),
(59,230,cs),
(36,44,ls),
(32,9,o)
);
},
{
closed = 1;
nodes = (
(151,320,o),
(220,417,o),
(300,417,cs),
(337,417,o),
(366,396,o),
(366,361,cs),
(366,315,o),
(319,265,o),
(261,231,cs),
(231,213,o),
(172,182,o),
(143,169,c),
(136,165,o),
(131,169,o),
(132,177,cs)
);
}
);
width = 477;
},
{
associatedMasterId = m002;
layerId = "2384FAA0-4E10-410D-8E0D-6D3F2E305201";
name = "Dec 24 18, 16:33";
shapes = (
{
closed = 1;
nodes = (
(293,343,o),
(334,368,o),
(364,388,cs),
(411,420,o),
(413,439,o),
(400,458,cs),
(386,478,o),
(360,470,o),
(315,445,cs),
(239,402,o),
(239,389,o),
(144,330,c),
(143,474,o),
(140,659,o),
(140,661,cs),
(140,683,o),
(122,701,o),
(100,700,c),
(78,700,o),
(60,682,o),
(60,660,cs),
(60,657,o),
(65,370,o),
(65,230,cs),
(65,93,o),
(61,44,o),
(61,44,c),
(58,22,o),
(74,2,o),
(96,0,c),
(156,0,o),
(145,68,o),
(145,230,cs),
(145,243,l),
(186,243,o),
(247,238,o),
(283,200,cs),
(328,151,o),
(329,98,o),
(329,42,c),
(328,20,o),
(344,1,o),
(366,0,c),
(390,0,o),
(408,16,o),
(409,37,c),
(409,133,o),
(394,288,o),
(221,301,c)
);
}
);
width = 469;
},
{
associatedMasterId = m002;
layerId = "1DD492C6-54B6-42DE-851B-DA0A5E5CB670";
name = "Dec 26 18, 21:44";
shapes = (
{
closed = 1;
nodes = (
(275,364,o),
(311,396,o),
(352,424,cs),
(387,458,o),
(385,482,o),
(369,499,cs),
(345,522,o),
(314,510,o),
(284,480,cs),
(222,417,o),
(193,390,o),
(132,330,c),
(131,484,o),
(128,659,o),
(128,661,cs),
(128,683,o),
(110,701,o),
(88,700,c),
(66,700,o),
(48,682,o),
(48,660,cs),
(48,657,o),
(53,370,o),
(53,230,c),
(49,44,ls),
(46,22,o),
(62,2,o),
(84,0,cs),
(112,0,o),
(124,15,o),
(130,47,cs),
(136,82,o),
(133,143,o),
(133,243,c),
(174,243,o),
(235,238,o),
(271,200,cs),
(316,151,o),
(317,98,o),
(317,42,cs),
(316,20,o),
(332,1,o),
(354,0,cs),
(378,0,o),
(396,16,o),
(397,37,cs),
(397,133,o),
(382,288,o),
(212,310,c)
);
}
);
width = 445;
},
{
associatedMasterId = m002;
layerId = "9FD3B4A9-E9BD-4CD1-9E26-2830DBCD02ED";
name = "Dec 26 18, 21:50";
shapes = (
{
closed = 1;
nodes = (
(112,0,o),
(124,15,o),
(130,47,cs),
(133,65,o),
(134,89,o),
(134,121,cs),
(134,153,o),
(133,193,o),
(133,243,c),
(174,243,o),
(235,238,o),
(271,200,cs),
(316,151,o),
(317,98,o),
(317,42,c),
(316,20,o),
(332,1,o),
(354,0,c),
(378,0,o),
(396,16,o),
(397,37,c),
(397,133,o),
(382,288,o),
(224,295,c),
(321,310,o),
(383,355,o),
(383,415,cs),
(383,470,o),
(329,513,o),
(256,513,cs),
(218,513,o),
(167,502,o),
(130,454,c),
(128,661,l),
(128,683,o),
(110,701,o),
(88,700,c),
(66,700,o),
(48,682,o),
(48,660,cs),
(48,657,o),
(53,370,o),
(53,230,cs),
(49,44,l),
(46,22,o),
(62,2,o),
(84,0,c)
);
},
{
closed = 1;
nodes = (
(150,399,o),
(220,432,o),
(257,432,cs),
(279,432,o),
(292,420,o),
(292,403,cs),
(292,353,o),
(175,341,o),
(133,331,c)
);
}
);
width = 445;
},
{
associatedMasterId = m002;
layerId = "D02B1F30-62FA-456C-8334-6B897A4C0361";
name = "Dec 26 18, 21:57";
shapes = (
{
closed = 1;
nodes = (
(112,0,o),
(124,15,o),
(130,47,cs),
(133,65,o),
(134,89,o),
(134,121,cs),
(134,153,o),
(133,156,o),
(133,206,c),
(231,171,o),
(280,121,o),
(320,32,cs),
(329,12,o),
(344,-1,o),
(368,-2,cs),
(390,-3,o),
(402,15,o),
(392,53,cs),
(371,131,o),
(313,206,o),
(200,254,c),
(317,269,o),
(383,318,o),
(383,378,cs),
(383,433,o),
(329,476,o),
(256,476,cs),
(218,476,o),
(167,465,o),
(130,417,c),
(128,661,l),
(128,683,o),
(110,701,o),
(88,700,c),
(66,700,o),
(48,682,o),
(48,660,cs),
(48,657,o),
(53,370,o),
(53,230,cs),
(49,44,l),
(46,22,o),
(62,2,o),
(84,0,cs)
);
},
{
closed = 1;
nodes = (
(168,383,o),
(217,400,o),
(246,400,cs),
(276,400,o),
(292,383,o),
(292,366,cs),
(292,316,o),
(168,312,o),
(126,302,c)
);
}
);
width = 444;
},
{
associatedMasterId = m002;
layerId = "59099D53-40FC-4868-BFBF-9D2CA210F90D";
name = "Jan 5 19, 20:18";
shapes = (
{
closed = 1;
nodes = (
(112,0,o),
(124,15,o),
(130,47,cs),
(133,65,o),
(134,89,o),
(134,121,cs),
(134,153,o),
(134,186,o),
(133,215,c),
(231,171,o),
(280,121,o),
(320,32,cs),
(329,12,o),
(344,-1,o),
(368,-2,cs),
(390,-3,o),
(402,15,o),
(392,53,cs),
(371,131,o),
(313,210,o),
(192,258,c),
(348,275,o),
(404,325,o),
(404,392,cs),
(404,453,o),
(358,493,o),
(288,493,cs),
(229,493,o),
(168,465,o),
(131,402,c),
(128,661,l),
(128,683,o),
(110,701,o),
(88,700,c),
(66,700,o),
(48,682,o),
(48,660,cs),
(48,657,o),
(53,370,o),
(53,230,cs),
(49,44,l),
(46,22,o),
(62,2,o),
(84,0,cs)
);
},
{
closed = 1;
nodes = (
(179,391,o),
(232,417,o),
(269,417,cs),
(300,417,o),
(319,400,o),
(319,380,cs),
(319,325,o),
(177,317,o),
(148,317,c)
);
}
);
width = 416;
},
{
associatedMasterId = m002;
layerId = "DEFB5F6A-3ECA-450C-9C11-50ED32F7487E";
name = "Jan 5 19, 20:23";
shapes = (
{
closed = 1;
nodes = (
(112,0,o),
(124,15,o),
(130,47,cs),
(133,65,o),
(134,89,o),
(134,121,cs),
(134,153,o),
(134,186,o),
(133,215,c),
(231,171,o),
(280,121,o),
(320,32,cs),
(329,12,o),
(344,-1,o),
(368,-2,cs),
(390,-3,o),
(402,15,o),
(392,53,cs),
(371,131,o),
(327,171,o),
(264,225,c),
(388,225,o),
(414,315,o),
(414,367,cs),
(414,443,o),
(358,493,o),
(283,493,cs),
(229,493,o),
(168,465,o),
(131,402,c),
(128,661,l),
(128,683,o),
(110,701,o),
(88,700,c),
(66,700,o),
(48,682,o),
(48,660,cs),
(48,657,o),
(53,370,o),
(53,230,cs),
(49,44,l),
(46,22,o),
(62,2,o),
(84,0,cs)
);
},
{
closed = 1;
nodes = (
(158,374,o),
(218,417,o),
(266,417,cs),
(301,417,o),
(330,394,o),
(328,353,cs),
(324,279,o),
(215,261,o),
(148,288,c)
);
}
);
width = 416;
},
{
associatedMasterId = m002;
layerId = "EB8337DA-1E49-4D33-BF95-1D067A3E75A8";
name = "Jan 5 19, 20:41";
shapes = (
{
closed = 1;
nodes = (
(69,-1,o),
(89,-1,cs),
(107,-1,o),
(126,9,o),
(130,48,cs),
(131,62,o),
(132,65,o),
(134,94,c),
(162,108,o),
(208,131,o),
(239,145,c),
(274,109,o),
(302,81,o),
(337,32,cs),
(351,12,o),
(362,-2,o),
(384,-2,cs),
(403,-2,o),
(415,8,o),
(415,28,cs),
(415,36,o),
(413,44,o),
(408,55,cs),
(385,107,o),
(339,145,o),
(305,178,c),
(403,229,o),
(426,305,o),
(426,352,cs),
(426,433,o),
(365,483,o),
(286,483,cs),
(236,483,o),
(166,463,o),
(129,382,c),
(128,661,l),
(128,683,o),
(110,701,o),
(88,700,c),
(66,700,o),
(48,682,o),
(48,660,cs),
(48,657,o),
(53,370,o),
(53,230,cs),
(49,44,ls),
(48,12,o)
);
},
{
closed = 1;
nodes = (
(131,314,o),
(191,412,o),
(278,412,cs),
(313,412,o),
(346,394,o),
(346,354,cs),
(346,308,o),
(303,261,o),
(254,231,cs),
(222,211,o),
(162,177,o),
(131,163,c)
);
}
);
width = 430;
}
);
metricLeft = n;
metricRight = o;
unicode = 107;
},
{
glyphname = l;
lastChange = "2021-09-30 18:24:00 +0000";
layers = (
{
anchors = (
{
name = bottom;
pos = (129,0);
},
{
name = center;
pos = (129,373);
},
{
name = top;
pos = (89,744);
},
{
name = topright;
pos = (203,774);
}
);
layerId = "24C63A81-7FC6-4EE9-AF2B-C1140AFD6C4B";
shapes = (
{
closed = 1;
nodes = (
(67,700,o),
(49,682,o),
(49,650,cs),
(49,618,o),
(48,193,o),
(48,100,cs),
(48,41,o),
(79,-4,o),
(137,-4,cs),
(173,-4,o),
(191,17,o),
(191,37,cs),
(191,56,o),
(176,74,o),
(144,74,cs),
(134,74,o),
(128,84,o),
(128,102,cs),
(128,133,o),
(129,373,o),
(129,650,cs),
(129,682,o),
(111,700,o),
(89,700,cs)
);
}
);
width = 211;
},
{
anchors = (
{
name = bottom;
pos = (129,0);
},
{
name = center;
pos = (129,373);
},
{
name = top;
pos = (89,744);
},
{
name = topright;
pos = (203,774);
}
);
associatedMasterId = "24C63A81-7FC6-4EE9-AF2B-C1140AFD6C4B";
layerId = "833C629B-A10E-47E6-B3D9-A9C6A1A3583C";
name = "Jan 2 19, 00:41";
shapes = (
{
closed = 1;
nodes = (
(67,700,o),
(49,682,o),
(49,650,cs),
(49,618,o),
(48,197,o),
(48,104,cs),
(48,45,o),
(79,0,o),
(137,0,cs),
(163,0,o),
(199,9,o),
(222,33,cs),
(237,48,o),
(245,66,o),
(245,82,cs),
(245,95,o),
(240,106,o),
(232,113,cs),
(225,119,o),
(216,122,o),
(206,122,cs),
(196,122,o),
(185,120,o),
(177,110,cs),
(163,93,o),
(156,78,o),
(144,78,cs),
(134,78,o),
(128,88,o),
(128,106,cs),
(129,137,o),
(129,373,o),
(129,650,cs),
(129,682,o),
(111,700,o),
(89,700,cs)
);
}
);
width = 257;
},
{
anchors = (
{
name = bottom;
pos = (107,0);
},
{
name = center;
pos = (147,373);
},
{
name = top;
pos = (146,744);
},
{
name = topright;
pos = (263,774);
}
);
layerId = m002;
shapes = (
{
closed = 1;
nodes = (
(118,700,o),
(99,682,o),
(96,650,cs),
(42,137,o),
(36,194,o),
(36,83,cs),
(36,33,o),
(63,-4,o),
(115,-4,cs),
(151,-4,o),
(173,18,o),
(173,41,cs),
(173,58,o),
(160,74,o),
(130,74,cs),
(122,74,o),
(116,81,o),
(117,95,cs),
(141,335,o),
(157,415,o),
(176,658,cs),
(178,685,o),
(161,700,o),
(141,700,cs)
);
}
);
width = 204;
},
{
anchors = (
{
name = bottom;
pos = (129,0);
},
{
name = center;
pos = (129,373);
},
{
name = top;
pos = (89,744);
},
{
name = topright;
pos = (203,774);
}
);
associatedMasterId = m002;
layerId = "84CF8F10-A16A-4249-9F77-14DAEF38C1CB";
name = "Jan 2 19, 00:41";
shapes = (
{
closed = 1;
nodes = (
(67,700,o),
(49,682,o),
(49,650,cs),
(49,618,o),
(48,197,o),
(48,104,cs),
(48,45,o),
(79,0,o),
(137,0,cs),
(163,0,o),
(199,9,o),
(222,33,cs),
(237,48,o),
(245,66,o),
(245,82,cs),
(245,95,o),
(240,106,o),
(232,113,cs),
(225,119,o),
(216,122,o),
(206,122,cs),
(196,122,o),
(185,120,o),
(177,110,cs),
(163,93,o),
(156,78,o),
(144,78,cs),
(134,78,o),
(128,88,o),
(128,106,cs),
(129,137,o),
(129,373,o),
(129,650,cs),
(129,682,o),
(111,700,o),
(89,700,cs)
);
}
);
width = 257;
}
);
metricLeft = n;
unicode = 108;
},
{
glyphname = ldot;
lastChange = "2021-09-29 17:01:59 +0000";
layers = (
{
layerId = "24C63A81-7FC6-4EE9-AF2B-C1140AFD6C4B";
shapes = (
{
closed = 1;
nodes = (
(112,700,l),
(90,700,o),
(72,682,o),
(72,660,cs),
(71,534,o),
(72,445,o),
(72,366,cs),
(72,273,o),
(73,199,o),
(71,107,cs),
(70,39,o),
(103,15,o),
(123,6,cs),
(132,2,o),
(143,0,o),
(153,0,cs),
(186,0,o),
(222,19,o),
(257,54,cs),
(272,70,o),
(272,95,o),
(257,111,c),
(241,126,o),
(215,126,o),
(200,110,cs),
(177,87,o),
(160,81,o),
(155,80,c),
(153,83,o),
(151,91,o),
(151,106,cs),
(153,198,o),
(152,272,o),
(152,366,cs),
(152,445,o),
(151,534,o),
(152,660,c)
);
},
{
closed = 1;
nodes = (
(286,362,o),
(261,337,o),
(261,307,cs),
(261,277,o),
(286,252,o),
(317,252,cs),
(348,252,o),
(372,277,o),
(372,307,cs),
(372,337,o),
(348,362,o),
(317,362,cs)
);
}
);
width = 301;
},
{
layerId = m002;
shapes = (
{
closed = 1;
nodes = (
(112,700,l),
(90,700,o),
(72,682,o),
(72,660,cs),
(71,534,o),
(72,445,o),
(72,366,cs),
(72,273,o),
(73,199,o),
(71,107,cs),
(70,39,o),
(103,15,o),
(123,6,cs),
(132,2,o),
(143,0,o),
(153,0,cs),
(186,0,o),
(222,19,o),
(257,54,cs),
(272,70,o),
(272,95,o),
(257,111,c),
(241,126,o),
(215,126,o),
(200,110,cs),
(177,87,o),
(160,81,o),
(155,80,c),
(153,83,o),
(151,91,o),
(151,106,cs),
(153,198,o),
(152,272,o),
(152,366,cs),
(152,445,o),
(151,534,o),
(152,660,c)
);
},
{
closed = 1;
nodes = (
(286,362,o),
(261,337,o),
(261,307,cs),
(261,277,o),
(286,252,o),
(317,252,cs),
(348,252,o),
(372,277,o),
(372,307,cs),
(372,337,o),
(348,362,o),
(317,362,cs)
);
}
);
width = 301;
}
);
unicode = 320;
},
{
glyphname = m;
lastChange = "2021-10-04 10:54:33 +0000";
layers = (
{
anchors = (
{
name = bottom;
pos = (311,10);
},
{
name = top;
pos = (311,480);
}
);
layerId = "24C63A81-7FC6-4EE9-AF2B-C1140AFD6C4B";
shapes = (
{
closed = 1;
nodes = (
(549,487,o),
(454,487,cs),
(405,487,o),
(360,460,o),
(336,432,c),
(331,468,o),
(290,486,o),
(247,486,cs),
(200,486,o),
(160,466,o),
(133,431,c),
(128,451,ls),
(124,468,o),
(107,480,o),
(88,480,cs),
(67,480,o),
(48,464,o),
(48,435,cs),
(48,405,o),
(60,344,o),
(60,252,cs),
(60,177,o),
(63,81,o),
(60,43,cs),
(58,21,o),
(75,0,o),
(99,0,cs),
(121,0,o),
(138,16,o),
(140,37,cs),
(140,87,o),
(140,190,o),
(140,273,cs),
(140,301,o),
(139,329,o),
(137,355,c),
(168,393,o),
(207,411,o),
(231,411,cs),
(255,411,o),
(271,394,o),
(271,329,cs),
(271,46,ls),
(271,14,o),
(287,1,o),
(311,1,cs),
(334,1,o),
(348,16,o),
(348,45,cs),
(348,133,o),
(353,233,o),
(353,299,cs),
(353,321,o),
(353,341,o),
(351,360,c),
(380,391,o),
(409,400,o),
(428,400,cs),
(454,400,o),
(470,383,o),
(470,329,cs),
(470,46,ls),
(470,14,o),
(486,1,o),
(510,1,cs),
(533,1,o),
(547,16,o),
(547,45,cs),
(547,128,o),
(551,221,o),
(551,286,cs),
(551,381,o)
);
}
);
width = 599;
},
{
anchors = (
{
name = bottom;
pos = (285,10);
},
{
name = top;
pos = (334,480);
}
);
layerId = m002;
shapes = (
{
closed = 1;
nodes = (
(544,487,o),
(478,487,cs),
(429,487,o),
(381,460,o),
(354,432,c),
(353,468,o),
(313,486,o),
(271,486,cs),
(220,486,o),
(179,463,o),
(151,431,c),
(148,451,ls),
(145,469,o),
(129,480,o),
(111,480,cs),
(77,480,o),
(65,457,o),
(65,395,cs),
(65,365,o),
(65,311,o),
(59,252,cs),
(51,177,o),
(44,80,o),
(37,43,cs),
(33,21,o),
(47,0,o),
(71,0,cs),
(94,0,o),
(113,16,o),
(116,38,cs),
(121,76,o),
(133,198,o),
(141,272,cs),
(144,298,o),
(146,327,o),
(147,355,c),
(182,393,o),
(223,411,o),
(247,411,cs),
(270,411,o),
(285,394,o),
(278,329,cs),
(248,46,ls),
(245,14,o),
(259,1,o),
(284,1,cs),
(307,1,o),
(322,16,o),
(325,45,cs),
(335,139,o),
(350,233,o),
(357,299,cs),
(359,321,o),
(361,339,o),
(361,360,c),
(394,391,o),
(423,400,o),
(443,400,cs),
(468,400,o),
(483,383,o),
(477,329,cs),
(447,46,ls),
(444,14,o),
(458,1,o),
(483,1,cs),
(506,1,o),
(521,16,o),
(524,45,cs),
(555,341,o),
(560,220,o),
(560,372,cs),
(560,435,o)
);
}
);
width = 596;
}
);
metricLeft = n;
metricRight = n;
unicode = 109;
},
{
color = 5;
glyphname = n;
lastChange = "2021-09-30 18:23:56 +0000";
layers = (
{
anchors = (
{
name = bottom;
pos = (244,0);
},
{
name = top;
pos = (244,500);
}
);
layerId = "24C63A81-7FC6-4EE9-AF2B-C1140AFD6C4B";
shapes = (
{
closed = 1;
nodes = (
(106,482,o),
(86,482,cs),
(67,482,o),
(48,469,o),
(48,438,cs),
(51,228,ls),
(53,89,o),
(49,60,o),
(49,39,cs),
(49,12,o),
(70,-2,o),
(90,-2,cs),
(110,-2,o),
(129,11,o),
(129,37,cs),
(131,231,ls),
(131,350,o),
(174,414,o),
(268,414,cs),
(327,414,o),
(366,389,o),
(365,278,cs),
(363,36,ls),
(363,12,o),
(383,-1,o),
(402,-1,cs),
(420,-1,o),
(437,11,o),
(437,35,cs),
(437,125,o),
(442,218,o),
(442,275,cs),
(442,411,o),
(405,489,o),
(289,489,cs),
(234,489,o),
(175,471,o),
(135,415,cs),
(130,407,o),
(126,409,o),
(126,418,cs),
(125,438,ls),
(124,469,o)
);
}
);
width = 490;
},
{
anchors = (
{
name = bottom;
pos = (243,0);
},
{
name = top;
pos = (243,500);
}
);
associatedMasterId = "24C63A81-7FC6-4EE9-AF2B-C1140AFD6C4B";
layerId = "0246385B-6695-42BB-9253-07AC5D7B5CFF";
name = "Jun 12 19, 00:47";
shapes = (
{
closed = 1;
nodes = (
(339,526,o),
(174,476,o),
(128,421,c),
(126,459,o),
(113,482,o),
(82,480,cs),
(57,478,o),
(46,460,o),
(48,438,cs),
(58,333,o),
(52,73,o),
(52,40,cs),
(52,18,o),
(70,0,o),
(92,0,cs),
(114,0,o),
(132,18,o),
(132,40,cs),
(132,49,o),
(133,221,o),
(131,343,c),
(200,425,o),
(361,465,o),
(361,324,cs),
(361,46,ls),
(361,14,o),
(376,1,o),
(397,1,cs),
(420,1,o),
(433,16,o),
(433,45,cs),
(433,256,o),
(456,400,o),
(404,456,cs)
);
}
);
width = 486;
},
{
anchors = (
{
name = bottom;
pos = (227,0);
},
{
name = top;
pos = (280,500);
}
);
layerId = m002;
shapes = (
{
closed = 1;
nodes = (
(140,482,o),
(120,482,cs),
(103,482,o),
(80,471,o),
(77,438,cs),
(58,228,ls),
(42,53,o),
(36,60,o),
(36,34,cs),
(36,10,o),
(55,-2,o),
(73,-2,cs),
(93,-2,o),
(113,11,o),
(116,37,cs),
(138,231,ls),
(151,345,o),
(197,414,o),
(295,414,cs),
(354,414,o),
(389,389,o),
(377,278,cs),
(350,36,ls),
(347,12,o),
(367,-1,o),
(385,-1,cs),
(402,-1,o),
(421,10,o),
(424,35,cs),
(448,261,o),
(457,218,o),
(457,334,cs),
(457,432,o),
(422,489,o),
(324,489,cs),
(268,489,o),
(208,471,o),
(162,415,cs),
(156,408,o),
(153,409,o),
(153,418,cs),
(154,438,ls),
(156,469,o)
);
}
);
width = 493;
},
{
anchors = (
{
name = bottom;
pos = (243,0);
},
{
name = top;
pos = (243,500);
}
);
associatedMasterId = m002;
layerId = "3FBC2DCD-A1F0-424C-B70C-5A56ABD60E8C";
name = "Jun 12 19, 00:47";
shapes = (
{
closed = 1;
nodes = (
(339,526,o),
(174,476,o),
(128,421,c),
(126,459,o),
(113,482,o),
(82,480,cs),
(57,478,o),
(46,460,o),
(48,438,cs),
(58,333,o),
(52,73,o),
(52,40,cs),
(52,18,o),
(70,0,o),
(92,0,cs),
(114,0,o),
(132,18,o),
(132,40,cs),
(132,49,o),
(133,221,o),
(131,343,c),
(200,425,o),
(361,465,o),
(361,324,cs),
(361,46,ls),
(361,14,o),
(376,1,o),
(397,1,cs),
(420,1,o),
(433,16,o),
(433,45,cs),
(433,256,o),
(456,400,o),
(404,456,cs)
);
}
);
width = 486;
}
);
unicode = 110;
},
{
color = 5;
glyphname = o;
kernLeft = downRounded;
kernRight = downRounded;
lastChange = "2021-09-30 17:52:55 +0000";
layers = (
{
anchors = (
{
name = bottom;
pos = (253,0);
},
{
name = center;
pos = (253,240);
},
{
name = ogonek;
pos = (352,66);
},
{
name = top;
pos = (263,490);
},
{
name = topright;
pos = (512,545);
},
{
name = wagger;
pos = (364,66);
}
);
layerId = "24C63A81-7FC6-4EE9-AF2B-C1140AFD6C4B";
shapes = (
{
closed = 1;
nodes = (
(379,-9,o),
(479,108,o),
(479,250,cs),
(479,382,o),
(401,491,o),
(264,491,cs),
(126,491,o),
(31,376,o),
(31,221,cs),
(31,91,o),
(113,-9,o),
(237,-9,cs)
);
},
{
closed = 1;
nodes = (
(153,65,o),
(106,141,o),
(106,231,cs),
(106,344,o),
(167,416,o),
(258,416,cs),
(345,416,o),
(404,355,o),
(404,246,cs),
(404,147,o),
(339,65,o),
(242,65,cs)
);
}
);
width = 510;
},
{
anchors = (
{
name = bottom;
pos = (231,0);
},
{
name = center;
pos = (257,240);
},
{
name = ogonek;
pos = (337,66);
},
{
name = top;
pos = (293,490);
},
{
name = topright;
pos = (548,545);
},
{
name = wagger;
pos = (349,66);
}
);
layerId = m002;
shapes = (
{
closed = 1;
nodes = (
(364,-9,o),
(486,123,o),
(486,284,cs),
(486,400,o),
(419,491,o),
(294,491,cs),
(149,491,o),
(31,357,o),
(31,190,cs),
(31,75,o),
(101,-9,o),
(214,-9,cs)
);
},
{
closed = 1;
nodes = (
(147,65,o),
(107,127,o),
(107,205,cs),
(107,326,o),
(181,416,o),
(280,416,cs),
(359,416,o),
(410,365,o),
(410,275,cs),
(410,157,o),
(330,65,o),
(227,65,cs)
);
}
);
width = 517;
}
);
unicode = 111;
},
{
glyphname = p;
kernRight = downRounded;
lastChange = "2021-09-30 18:24:00 +0000";
layers = (
{
layerId = "24C63A81-7FC6-4EE9-AF2B-C1140AFD6C4B";
shapes = (
{
closed = 1;
nodes = (
(437,484,o),
(299,484,cs),
(233,484,o),
(170,453,o),
(139,381,c),
(139,442,o),
(118,466,o),
(84,460,cs),
(42,453,o),
(55,414,o),
(57,389,cs),
(59,365,o),
(67,182,o),
(62,83,cs),
(58,6,o),
(48,-114,o),
(48,-138,cs),
(48,-160,o),
(63,-181,o),
(85,-182,c),
(88,-182,ls),
(109,-182,o),
(126,-163,o),
(127,-142,cs),
(128,-123,o),
(129,-28,o),
(134,75,c),
(160,35,o),
(217,-4,o),
(290,-4,cs),
(413,-4,o),
(497,109,o),
(497,237,cs),
(497,359,o)
);
},
{
closed = 1;
nodes = (
(371,78,o),
(277,78,cs),
(187,78,o),
(145,151,o),
(145,237,cs),
(145,337,o),
(203,405,o),
(287,405,cs),
(383,405,o),
(417,315,o),
(417,243,cs),
(417,159,o)
);
}
);
width = 528;
},
{
layerId = m002;
shapes = (
{
closed = 1;
nodes = (
(476,484,o),
(353,484,cs),
(288,484,o),
(220,453,o),
(182,381,c),
(188,442,o),
(170,466,o),
(135,460,cs),
(92,453,o),
(101,412,o),
(101,389,cs),
(101,364,o),
(89,182,o),
(73,80,cs),
(50,-66,o),
(36,-114,o),
(36,-143,cs),
(36,-164,o),
(49,-181,o),
(69,-182,c),
(72,-182,ls),
(93,-182,o),
(112,-163,o),
(115,-141,cs),
(117,-129,o),
(129,-28,o),
(145,75,c),
(166,36,o),
(218,-4,o),
(292,-4,cs),
(420,-4,o),
(527,120,o),
(527,275,cs),
(527,384,o)
);
},
{
closed = 1;
nodes = (
(378,78,o),
(288,78,cs),
(207,78,o),
(171,137,o),
(171,211,cs),
(171,321,o),
(240,405,o),
(332,405,cs),
(417,405,o),
(447,334,o),
(447,267,cs),
(447,159,o)
);
}
);
width = 558;
}
);
metricLeft = n;
metricRight = o;
unicode = 112;
},
{
glyphname = q;
kernLeft = downRounded;
lastChange = "2021-09-30 18:42:35 +0000";
layers = (
{
layerId = "24C63A81-7FC6-4EE9-AF2B-C1140AFD6C4B";
shapes = (
{
ref = o;
},
{
pos = (282,57);
ref = _part.wagger;
}
);
width = 510;
},
{
associatedMasterId = "24C63A81-7FC6-4EE9-AF2B-C1140AFD6C4B";
layerId = "E9DB31AD-383C-48ED-938E-19FB1B30B90C";
name = "Jan 6 19, 00:14";
shapes = (
{
closed = 1;
nodes = (
(164,490,o),
(38,388,o),
(38,217,cs),
(38,98,o),
(108,18,o),
(223,18,cs),
(269,18,o),
(317,31,o),
(357,53,c),
(351,-55,o),
(343,-106,o),
(343,-157,c),
(341,-179,o),
(358,-198,o),
(380,-200,c),
(383,-200,ls),
(404,-200,o),
(421,-184,o),
(423,-163,cs),
(438,0,o),
(454,246,o),
(444,412,cs),
(443,432,o),
(439,453,o),
(424,468,cs),
(402,490,o),
(360,494,o),
(329,494,cs)
);
},
{
closed = 1;
nodes = (
(346,414,o),
(356,413,o),
(364,411,c),
(365,398,o),
(363,178,o),
(362,160,c),
(331,114,o),
(244,89,o),
(191,102,cs),
(143,113,o),
(118,152,o),
(118,217,cs),
(118,340,o),
(210,414,o),
(332,414,cs)
);
}
);
width = 495;
},
{
associatedMasterId = "24C63A81-7FC6-4EE9-AF2B-C1140AFD6C4B";
layerId = "F2EEA7D3-0F72-455A-982A-BBA4EFCBE725";
name = "29 Sep 21, 18:33";
shapes = (
{
closed = 1;
nodes = (
(126,487,o),
(31,375,o),
(31,225,cs),
(35,100,o),
(107,3,o),
(226,3,cs),
(361,3,o),
(460,118,o),
(460,256,cs),
(460,383,o),
(389,487,o),
(258,487,cs)
);
},
{
closed = 1;
nodes = (
(341,407,o),
(380,351,o),
(380,251,cs),
(380,158,o),
(313,83,o),
(226,83,cs),
(145,83,o),
(111,152,o),
(111,225,cs),
(111,341,o),
(181,407,o),
(258,407,cs)
);
},
{
closed = 1;
nodes = (
(276,86,o),
(342,8,o),
(386,-48,cs),
(405,-71,o),
(426,-86,o),
(447,-75,cs),
(468,-66,o),
(473,-38,o),
(455,-15,cs),
(409,41,o),
(344,118,o),
(311,184,cs),
(299,210,o),
(273,221,o),
(252,210,cs),
(232,198,o),
(231,177,o),
(243,151,cs)
);
}
);
width = 478;
},
{
layerId = m002;
shapes = (
{
ref = o;
},
{
pos = (267,57);
ref = _part.wagger;
}
);
width = 517;
},
{
associatedMasterId = m002;
layerId = "81EEAC1C-012F-4A3E-AFCD-D4BB592BFD6C";
name = "Jan 6 19, 00:14";
shapes = (
{
closed = 1;
nodes = (
(164,490,o),
(38,388,o),
(38,217,cs),
(38,98,o),
(108,18,o),
(223,18,cs),
(269,18,o),
(317,31,o),
(357,53,c),
(351,-55,o),
(343,-106,o),
(343,-157,c),
(341,-179,o),
(358,-198,o),
(380,-200,c),
(383,-200,ls),
(404,-200,o),
(421,-184,o),
(423,-163,cs),
(438,0,o),
(454,246,o),
(444,412,cs),
(443,432,o),
(439,453,o),
(424,468,cs),
(402,490,o),
(360,494,o),
(329,494,cs)
);
},
{
closed = 1;
nodes = (
(346,414,o),
(356,413,o),
(364,411,c),
(365,398,o),
(363,178,o),
(362,160,c),
(331,114,o),
(244,89,o),
(191,102,cs),
(143,113,o),
(118,152,o),
(118,217,cs),
(118,340,o),
(210,414,o),
(332,414,cs)
);
}
);
width = 495;
},
{
associatedMasterId = m002;
layerId = "9FA6A227-669A-4D20-9495-244EDA9EE657";
name = "29 Sep 21, 18:33";
shapes = (
{
closed = 1;
nodes = (
(126,487,o),
(31,375,o),
(31,225,cs),
(35,100,o),
(107,3,o),
(226,3,cs),
(361,3,o),
(460,118,o),
(460,256,cs),
(460,383,o),
(389,487,o),
(258,487,cs)
);
},
{
closed = 1;
nodes = (
(341,407,o),
(380,351,o),
(380,251,cs),
(380,158,o),
(313,83,o),
(226,83,cs),
(145,83,o),
(111,152,o),
(111,225,cs),
(111,341,o),
(181,407,o),
(258,407,cs)
);
},
{
closed = 1;
nodes = (
(276,86,o),
(342,8,o),
(386,-48,cs),
(405,-71,o),
(426,-86,o),
(447,-75,cs),
(468,-66,o),
(473,-38,o),
(455,-15,cs),
(409,41,o),
(344,118,o),
(311,184,cs),
(299,210,o),
(273,221,o),
(252,210,cs),
(232,198,o),
(231,177,o),
(243,151,cs)
);
}
);
width = 478;
}
);
metricLeft = o;
metricRight = "=o-10";
unicode = 113;
},
{
glyphname = r;
lastChange = "2021-09-30 18:24:00 +0000";
layers = (
{
anchors = (
{
name = bottom;
pos = (-593,-341);
},
{
name = top;
pos = (165,480);
}
);
background = {
shapes = (
{
closed = 0;
nodes = (
(193,483,l)
);
},
{
closed = 0;
nodes = (
(197,483,ls)
);
}
);
};
layerId = "24C63A81-7FC6-4EE9-AF2B-C1140AFD6C4B";
shapes = (
{
closed = 1;
nodes = (
(112,0,o),
(132,15,o),
(132,43,cs),
(132,58,o),
(129,309,o),
(129,425,cs),
(129,467,o),
(106,480,o),
(88,480,cs),
(67,480,o),
(48,462,o),
(48,429,cs),
(48,381,o),
(51,64,o),
(51,42,cs),
(51,14,o),
(71,0,o),
(91,0,cs)
);
},
{
closed = 1;
nodes = (
(87,267,o),
(129,231,o),
(129,294,cs),
(129,350,o),
(223,405,o),
(295,415,cs),
(324,419,o),
(331,460,o),
(316,474,cs),
(300,489,o),
(264,481,o),
(242,475,cs),
(120,442,o),
(76,341,o),
(72,338,cs),
(60,328,o),
(58,296,o),
(72,282,cs)
);
}
);
width = 336;
},
{
associatedMasterId = "24C63A81-7FC6-4EE9-AF2B-C1140AFD6C4B";
layerId = "7D95E3D2-9C9E-4335-B741-F3F33F94B04E";
name = "Dec 24 18, 16:43";
shapes = (
{
closed = 1;
nodes = (
(290,497,o),
(214,494,o),
(164,422,c),
(142,496,o),
(52,484,o),
(52,425,cs),
(52,399,o),
(88,397,o),
(88,355,cs),
(88,270,o),
(83,55,o),
(83,42,c),
(82,20,o),
(99,1,o),
(122,0,c),
(123,0,ls),
(144,0,o),
(162,18,o),
(163,39,c),
(163,41,o),
(164,179,o),
(166,296,c),
(175,355,o),
(251,441,o),
(302,381,cs),
(317,364,o),
(345,368,o),
(359,385,cs),
(373,402,o),
(371,427,o),
(355,441,cs)
);
}
);
width = 406;
},
{
anchors = (
{
name = bottom;
pos = (116,0);
},
{
name = top;
pos = (197,480);
}
);
associatedMasterId = "24C63A81-7FC6-4EE9-AF2B-C1140AFD6C4B";
layerId = "2F5C52FC-D04A-4F32-838D-9961890C2BFA";
name = "Jan 2 19, 00:37";
shapes = (
{
closed = 1;
nodes = (
(330,471,o),
(249,471,cs),
(223,471,o),
(177,461,o),
(152,431,c),
(139,459,o),
(121,476,o),
(94,476,cs),
(71,476,o),
(48,463,o),
(48,437,cs),
(48,404,o),
(84,397,o),
(84,355,cs),
(84,263,o),
(80,65,o),
(79,44,cs),
(78,18,o),
(94,0,o),
(116,0,cs),
(140,-1,o),
(157,18,o),
(159,43,cs),
(160,58,o),
(162,160,o),
(162,276,cs),
(162,321,o),
(181,394,o),
(238,394,cs),
(255,394,o),
(273,388,o),
(278,371,cs),
(282,356,o),
(287,329,o),
(322,329,cs),
(356,329,o),
(361,355,o),
(361,372,cs),
(361,410,o)
);
}
);
width = 393;
},
{
anchors = (
{
name = bottom;
pos = (-591,-341);
},
{
name = top;
pos = (167,480);
}
);
associatedMasterId = "24C63A81-7FC6-4EE9-AF2B-C1140AFD6C4B";
layerId = "E0FE5156-19C4-433F-A915-BC3DA6048AB2";
name = "Jun 12 19, 12:30";
shapes = (
{
closed = 1;
nodes = (
(67,0,o),
(87,0,cs),
(108,0,o),
(129,15,o),
(129,43,cs),
(129,58,o),
(132,174,o),
(132,290,cs),
(132,332,o),
(132,373,o),
(146,392,cs),
(159,410,o),
(186,411,o),
(222,411,cs),
(258,411,o),
(276,428,o),
(276,450,cs),
(276,469,o),
(263,486,o),
(233,486,cs),
(167,486,o),
(115,478,o),
(86,448,cs),
(59,421,o),
(52,374,o),
(52,319,cs),
(52,271,o),
(48,64,o),
(48,42,cs),
(48,14,o)
);
}
);
width = 288;
},
{
anchors = (
{
name = bottom;
pos = (-593,-341);
},
{
name = top;
pos = (165,480);
}
);
associatedMasterId = "24C63A81-7FC6-4EE9-AF2B-C1140AFD6C4B";
layerId = "50CF797E-58A4-41D9-B6CC-6176639CE436";
name = "Jun 25 19, 13:14";
shapes = (
{
closed = 1;
nodes = (
(71,0,o),
(91,0,cs),
(112,0,o),
(132,15,o),
(132,43,cs),
(132,58,o),
(129,174,o),
(129,290,cs),
(129,377,o),
(153,409,o),
(195,409,cs),
(232,409,o),
(258,385,o),
(282,385,cs),
(302,385,o),
(319,401,o),
(319,420,cs),
(319,457,o),
(252,483,o),
(193,483,cs),
(104,483,o),
(48,425,o),
(48,319,cs),
(48,271,o),
(51,64,o),
(51,42,cs),
(51,14,o)
);
}
);
width = 331;
},
{
anchors = (
{
name = bottom;
pos = (-593,-341);
},
{
name = top;
pos = (165,480);
}
);
associatedMasterId = "24C63A81-7FC6-4EE9-AF2B-C1140AFD6C4B";
background = {
shapes = (
{
closed = 0;
nodes = (
(193,483,l)
);
},
{
closed = 0;
nodes = (
(197,483,ls)
);
}
);
};
layerId = "6853B007-181F-40DB-B31A-C18EC11957C1";
name = "Jun 25 19, 13:18";
shapes = (
{
closed = 1;
nodes = (
(112,0,o),
(132,15,o),
(132,43,cs),
(132,58,o),
(129,309,o),
(129,425,cs),
(129,467,o),
(106,480,o),
(88,480,cs),
(67,480,o),
(48,462,o),
(48,429,cs),
(48,381,o),
(51,64,o),
(51,42,cs),
(51,14,o),
(71,0,o),
(91,0,cs)
);
},
{
closed = 1;
nodes = (
(87,267,o),
(129,231,o),
(129,294,cs),
(129,350,o),
(223,405,o),
(295,415,cs),
(324,419,o),
(331,460,o),
(316,474,cs),
(300,489,o),
(264,481,o),
(242,475,cs),
(120,442,o),
(76,341,o),
(72,338,cs),
(60,328,o),
(58,296,o),
(72,282,cs)
);
}
);
width = 336;
},
{
anchors = (
{
name = bottom;
pos = (-648,-341);
},
{
name = top;
pos = (196,480);
}
);
background = {
shapes = (
{
closed = 0;
nodes = (
(181,483,l)
);
},
{
closed = 0;
nodes = (
(185,483,ls)
);
}
);
};
layerId = m002;
shapes = (
{
closed = 1;
nodes = (
(92,0,o),
(114,15,o),
(117,40,cs),
(117,36,o),
(155,438,o),
(155,436,cs),
(155,469,o),
(136,480,o),
(119,480,cs),
(97,480,o),
(77,460,o),
(74,429,cs),
(70,392,o),
(36,39,o),
(36,36,cs),
(36,12,o),
(54,0,o),
(72,0,cs)
);
},
{
closed = 1;
nodes = (
(95,268,o),
(134,231,o),
(141,294,cs),
(147,350,o),
(245,405,o),
(320,415,cs),
(349,419,o),
(360,461,o),
(347,474,cs),
(332,489,o),
(296,481,o),
(273,475,cs),
(147,442,o),
(97,345,o),
(88,338,cs),
(75,328,o),
(71,294,o),
(82,282,cs)
);
}
);
width = 352;
},
{
associatedMasterId = m002;
layerId = "2D1DE4B2-8343-4C2D-9F6A-F6E6D6D58042";
name = "Dec 24 18, 16:43";
shapes = (
{
closed = 1;
nodes = (
(290,497,o),
(214,494,o),
(164,422,c),
(142,496,o),
(52,484,o),
(52,425,cs),
(52,399,o),
(88,397,o),
(88,355,cs),
(88,270,o),
(83,55,o),
(83,42,c),
(82,20,o),
(99,1,o),
(122,0,c),
(123,0,ls),
(144,0,o),
(162,18,o),
(163,39,c),
(163,41,o),
(164,179,o),
(166,296,c),
(175,355,o),
(251,441,o),
(302,381,cs),
(317,364,o),
(345,368,o),
(359,385,cs),
(373,402,o),
(371,427,o),
(355,441,cs)
);
}
);
width = 406;
},
{
anchors = (
{
name = bottom;
pos = (116,0);
},
{
name = top;
pos = (197,480);
}
);
associatedMasterId = m002;
layerId = "C81E445A-B1AB-41DE-ADF5-79FA62904193";
name = "Jan 2 19, 00:37";
shapes = (
{
closed = 1;
nodes = (
(330,471,o),
(249,471,cs),
(223,471,o),
(177,461,o),
(152,431,c),
(139,459,o),
(121,476,o),
(94,476,cs),
(71,476,o),
(48,463,o),
(48,437,cs),
(48,404,o),
(84,397,o),
(84,355,cs),
(84,263,o),
(80,65,o),
(79,44,cs),
(78,18,o),
(94,0,o),
(116,0,cs),
(140,-1,o),
(157,18,o),
(159,43,cs),
(160,58,o),
(162,160,o),
(162,276,cs),
(162,321,o),
(181,394,o),
(238,394,cs),
(255,394,o),
(273,388,o),
(278,371,cs),
(282,356,o),
(287,329,o),
(322,329,cs),
(356,329,o),
(361,355,o),
(361,372,cs),
(361,410,o)
);
}
);
width = 393;
},
{
anchors = (
{
name = bottom;
pos = (-591,-341);
},
{
name = top;
pos = (167,480);
}
);
associatedMasterId = m002;
layerId = "00917556-4F78-4076-8D0D-2BCF58F9CF11";
name = "Jun 12 19, 12:30";
shapes = (
{
closed = 1;
nodes = (
(67,0,o),
(87,0,cs),
(108,0,o),
(129,15,o),
(129,43,cs),
(129,58,o),
(132,174,o),
(132,290,cs),
(132,332,o),
(132,373,o),
(146,392,cs),
(159,410,o),
(186,411,o),
(222,411,cs),
(258,411,o),
(276,428,o),
(276,450,cs),
(276,469,o),
(263,486,o),
(233,486,cs),
(167,486,o),
(115,478,o),
(86,448,cs),
(59,421,o),
(52,374,o),
(52,319,cs),
(52,271,o),
(48,64,o),
(48,42,cs),
(48,14,o)
);
}
);
width = 288;
},
{
anchors = (
{
name = bottom;
pos = (-593,-341);
},
{
name = top;
pos = (165,480);
}
);
associatedMasterId = m002;
layerId = "94258752-6E49-4163-93B9-ABE0FAA2D352";
name = "Jun 25 19, 13:14";
shapes = (
{
closed = 1;
nodes = (
(71,0,o),
(91,0,cs),
(112,0,o),
(132,15,o),
(132,43,cs),
(132,58,o),
(129,174,o),
(129,290,cs),
(129,377,o),
(153,409,o),
(195,409,cs),
(232,409,o),
(258,385,o),
(282,385,cs),
(302,385,o),
(319,401,o),
(319,420,cs),
(319,457,o),
(252,483,o),
(193,483,cs),
(104,483,o),
(48,425,o),
(48,319,cs),
(48,271,o),
(51,64,o),
(51,42,cs),
(51,14,o)
);
}
);
width = 331;
},
{
anchors = (
{
name = bottom;
pos = (-593,-341);
},
{
name = top;
pos = (165,480);
}
);
associatedMasterId = m002;
background = {
shapes = (
{
closed = 0;
nodes = (
(193,483,l)
);
},
{
closed = 0;
nodes = (
(197,483,ls)
);
}
);
};
layerId = "7E11421B-BFEF-4AE1-8CEE-6888BC048903";
name = "Jun 25 19, 13:18";
shapes = (
{
closed = 1;
nodes = (
(112,0,o),
(132,15,o),
(132,43,cs),
(132,58,o),
(129,309,o),
(129,425,cs),
(129,467,o),
(106,480,o),
(88,480,cs),
(67,480,o),
(48,462,o),
(48,429,cs),
(48,381,o),
(51,64,o),
(51,42,cs),
(51,14,o),
(71,0,o),
(91,0,cs)
);
},
{
closed = 1;
nodes = (
(87,267,o),
(129,231,o),
(129,294,cs),
(129,350,o),
(223,405,o),
(295,415,cs),
(324,419,o),
(331,460,o),
(316,474,cs),
(300,489,o),
(264,481,o),
(242,475,cs),
(120,442,o),
(76,341,o),
(72,338,cs),
(60,328,o),
(58,296,o),
(72,282,cs)
);
}
);
width = 336;
}
);
metricLeft = n;
unicode = 114;
},
{
glyphname = s;
kernLeft = downRounded;
kernRight = downRounded;
lastChange = "2021-10-04 10:50:56 +0000";
layers = (
{
anchors = (
{
name = bottom;
pos = (196,0);
},
{
name = top;
pos = (206,480);
}
);
layerId = "24C63A81-7FC6-4EE9-AF2B-C1140AFD6C4B";
shapes = (
{
closed = 1;
nodes = (
(108,486,o),
(44,437,o),
(44,354,cs),
(44,263,o),
(120,235,o),
(200,211,cs),
(262,193,o),
(303,178,o),
(303,136,cs),
(303,96,o),
(265,67,o),
(209,67,cs),
(160,67,o),
(124,100,o),
(114,117,cs),
(98,141,o),
(77,159,o),
(52,147,cs),
(18,132,o),
(33,95,o),
(41,80,cs),
(50,65,o),
(98,-7,o),
(206,-7,cs),
(307,-7,o),
(378,40,o),
(378,135,cs),
(378,215,o),
(326,253,o),
(229,281,cs),
(163,301,o),
(118,321,o),
(118,358,cs),
(118,391,o),
(152,415,o),
(194,415,cs),
(246,415,o),
(279,391,o),
(298,376,cs),
(313,364,o),
(339,357,o),
(356,374,cs),
(369,387,o),
(371,408,o),
(347,433,cs),
(334,447,o),
(292,486,o),
(202,486,cs)
);
}
);
width = 409;
},
{
associatedMasterId = "24C63A81-7FC6-4EE9-AF2B-C1140AFD6C4B";
layerId = "552E1A6F-82A3-49FB-BB64-1FD6FC2F23D2";
name = "Dec 24 18, 16:52";
shapes = (
{
closed = 1;
nodes = (
(191,487,o),
(75,428,o),
(60,361,cs),
(37,259,o),
(172,227,o),
(272,199,cs),
(330,184,o),
(343,164,o),
(333,127,cs),
(328,108,o),
(303,67,o),
(241,67,cs),
(214,67,o),
(133,75,o),
(133,116,cs),
(133,141,o),
(136,161,o),
(116,170,c),
(96,180,o),
(72,173,o),
(64,151,cs),
(35,70,o),
(94,-7,o),
(241,-7,cs),
(316,-7,o),
(394,29,o),
(411,112,cs),
(418,145,o),
(422,200,o),
(387,233,cs),
(365,254,o),
(333,263,o),
(294,274,cs),
(253,286,o),
(153,316,o),
(140,336,c),
(139,339,o),
(138,340,o),
(139,343,c),
(145,374,o),
(227,406,o),
(265,406,c),
(288,405,o),
(299,392,o),
(303,368,cs),
(307,346,o),
(327,331,o),
(349,334,c),
(371,338,o),
(386,358,o),
(382,380,cs),
(372,442,o),
(330,483,o),
(268,485,cs)
);
}
);
width = 474;
},
{
associatedMasterId = "24C63A81-7FC6-4EE9-AF2B-C1140AFD6C4B";
layerId = "D841F08F-42A5-46C6-9CF9-2E21D69E784F";
name = "Dec 26 18, 21:27";
shapes = (
{
closed = 1;
nodes = (
(148,486,o),
(80,437,o),
(80,351,cs),
(80,263,o),
(161,235,o),
(246,211,cs),
(312,193,o),
(355,178,o),
(355,136,cs),
(355,96,o),
(315,67,o),
(250,67,cs),
(203,67,o),
(154,90,o),
(135,109,cs),
(114,130,o),
(89,144,o),
(65,128,cs),
(33,106,o),
(54,73,o),
(66,60,cs),
(78,47,o),
(137,-7,o),
(260,-7,cs),
(359,-7,o),
(435,40,o),
(435,135,cs),
(435,215,o),
(380,253,o),
(277,281,cs),
(206,301,o),
(159,321,o),
(159,358,cs),
(159,391,o),
(195,415,o),
(237,415,cs),
(278,415,o),
(321,393,o),
(341,378,cs),
(357,366,o),
(384,362,o),
(401,379,cs),
(415,392,o),
(421,413,o),
(396,438,cs),
(382,452,o),
(338,486,o),
(234,486,cs)
);
}
);
width = 483;
},
{
anchors = (
{
name = bottom;
pos = (185,0);
},
{
name = top;
pos = (245,480);
}
);
layerId = m002;
shapes = (
{
closed = 1;
nodes = (
(139,486,o),
(69,427,o),
(69,338,cs),
(69,260,o),
(138,233,o),
(211,211,cs),
(268,194,o),
(306,179,o),
(306,142,cs),
(306,99,o),
(263,67,o),
(205,67,cs),
(157,67,o),
(123,100,o),
(115,116,cs),
(102,141,o),
(83,159,o),
(56,147,cs),
(21,132,o),
(31,95,o),
(38,80,cs),
(45,65,o),
(87,-7,o),
(194,-7,cs),
(309,-7,o),
(382,55,o),
(382,152,cs),
(382,220,o),
(334,255,o),
(248,281,cs),
(186,300,o),
(144,319,o),
(144,353,cs),
(144,387,o),
(181,415,o),
(226,415,cs),
(268,415,o),
(299,391,o),
(316,376,cs),
(330,364,o),
(355,357,o),
(374,374,cs),
(388,387,o),
(393,407,o),
(371,433,cs),
(357,450,o),
(324,486,o),
(242,486,cs)
);
}
);
width = 417;
},
{
associatedMasterId = m002;
layerId = "F5B1442B-52DA-4F60-8494-4C842CE28C92";
name = "Dec 24 18, 16:52";
shapes = (
{
closed = 1;
nodes = (
(191,487,o),
(75,428,o),
(60,361,cs),
(37,259,o),
(172,227,o),
(272,199,cs),
(330,184,o),
(343,164,o),
(333,127,cs),
(328,108,o),
(303,67,o),
(241,67,cs),
(214,67,o),
(133,75,o),
(133,116,cs),
(133,141,o),
(136,161,o),
(116,170,c),
(96,180,o),
(72,173,o),
(64,151,cs),
(35,70,o),
(94,-7,o),
(241,-7,cs),
(316,-7,o),
(394,29,o),
(411,112,cs),
(418,145,o),
(422,200,o),
(387,233,cs),
(365,254,o),
(333,263,o),
(294,274,cs),
(253,286,o),
(153,316,o),
(140,336,c),
(139,339,o),
(138,340,o),
(139,343,c),
(145,374,o),
(227,406,o),
(265,406,c),
(288,405,o),
(299,392,o),
(303,368,cs),
(307,346,o),
(327,331,o),
(349,334,c),
(371,338,o),
(386,358,o),
(382,380,cs),
(372,442,o),
(330,483,o),
(268,485,cs)
);
}
);
width = 474;
},
{
associatedMasterId = m002;
layerId = "B8D96030-78DF-4481-8F89-567E1025EC48";
name = "Dec 26 18, 21:27";
shapes = (
{
closed = 1;
nodes = (
(148,486,o),
(80,437,o),
(80,351,cs),
(80,263,o),
(161,235,o),
(246,211,cs),
(312,193,o),
(355,178,o),
(355,136,cs),
(355,96,o),
(315,67,o),
(250,67,cs),
(203,67,o),
(154,90,o),
(135,109,cs),
(114,130,o),
(89,144,o),
(65,128,cs),
(33,106,o),
(54,73,o),
(66,60,cs),
(78,47,o),
(137,-7,o),
(260,-7,cs),
(359,-7,o),
(435,40,o),
(435,135,cs),
(435,215,o),
(380,253,o),
(277,281,cs),
(206,301,o),
(159,321,o),
(159,358,cs),
(159,391,o),
(195,415,o),
(237,415,cs),
(278,415,o),
(321,393,o),
(341,378,cs),
(357,366,o),
(384,362,o),
(401,379,cs),
(415,392,o),
(421,413,o),
(396,438,cs),
(382,452,o),
(338,486,o),
(234,486,cs)
);
}
);
width = 483;
},
{
anchors = (
{
name = bottom;
pos = (196,0);
},
{
name = top;
pos = (206,480);
}
);
associatedMasterId = "24C63A81-7FC6-4EE9-AF2B-C1140AFD6C4B";
layerId = "D4C16F8F-4C22-49D6-A9B2-93B3B305F379";
name = "4 Oct 21, 12:50";
shapes = (
{
closed = 1;
nodes = (
(108,486,o),
(44,437,o),
(44,354,cs),
(44,263,o),
(120,235,o),
(200,211,cs),
(262,193,o),
(303,178,o),
(303,136,cs),
(303,96,o),
(265,67,o),
(209,67,cs),
(160,67,o),
(124,100,o),
(114,117,cs),
(98,141,o),
(77,159,o),
(52,147,cs),
(18,132,o),
(33,95,o),
(41,80,cs),
(50,65,o),
(98,-7,o),
(206,-7,cs),
(307,-7,o),
(378,40,o),
(378,135,cs),
(378,215,o),
(326,253,o),
(229,281,cs),
(163,301,o),
(118,321,o),
(118,358,cs),
(118,391,o),
(152,415,o),
(194,415,cs),
(236,415,o),
(269,391,o),
(288,376,cs),
(303,364,o),
(329,357,o),
(346,374,cs),
(359,387,o),
(361,408,o),
(337,433,cs),
(324,447,o),
(287,486,o),
(202,486,cs)
);
}
);
width = 409;
}
);
metricLeft = o;
metricRight = o;
unicode = 115;
},
{
glyphname = t;
lastChange = "2021-09-30 17:36:13 +0000";
layers = (
{
anchors = (
{
name = bottom;
pos = (235,0);
},
{
name = center;
pos = (143,270);
},
{
name = top;
pos = (149,700);
},
{
name = topright;
pos = (345,480);
}
);
layerId = "24C63A81-7FC6-4EE9-AF2B-C1140AFD6C4B";
shapes = (
{
closed = 1;
nodes = (
(325,4,o),
(325,43,cs),
(325,62,o),
(312,79,o),
(288,79,cs),
(273,79,o),
(258,73,o),
(244,73,cs),
(188,73,o),
(183,132,o),
(183,209,cs),
(183,262,o),
(184,346,o),
(185,405,c),
(200,405,o),
(209,404,o),
(262,407,cs),
(283,408,o),
(299,426,o),
(299,446,cs),
(299,465,o),
(280,482,o),
(259,482,cs),
(226,482,o),
(202,481,o),
(187,479,c),
(189,566,o),
(191,592,o),
(191,609,c),
(192,632,o),
(174,650,o),
(150,650,cs),
(129,650,o),
(112,632,o),
(111,611,c),
(111,587,o),
(109,559,o),
(106,474,c),
(48,473,ls),
(27,473,o),
(12,456,o),
(12,436,cs),
(12,413,o),
(30,396,o),
(52,396,cs),
(53,396,o),
(54,396,o),
(55,396,c),
(105,397,l),
(104,345,o),
(103,269,o),
(103,222,cs),
(103,98,o),
(114,-6,o),
(232,-6,cs),
(272,-6,o)
);
}
);
width = 337;
},
{
anchors = (
{
name = bottom;
pos = (235,0);
},
{
name = center;
pos = (143,270);
},
{
name = top;
pos = (149,700);
},
{
name = topright;
pos = (345,480);
}
);
associatedMasterId = "24C63A81-7FC6-4EE9-AF2B-C1140AFD6C4B";
layerId = "70656095-FDD8-4406-871D-9BDBA53B0A94";
name = "Jun 12 19, 12:34";
shapes = (
{
closed = 1;
nodes = (
(266,1,o),
(283,22,o),
(283,43,cs),
(283,63,o),
(267,83,o),
(233,83,cs),
(189,83,o),
(183,158,o),
(183,237,cs),
(183,290,o),
(184,346,o),
(185,405,c),
(200,409,o),
(209,404,o),
(262,407,cs),
(283,408,o),
(299,426,o),
(299,446,cs),
(299,465,o),
(280,482,o),
(259,482,cs),
(226,482,o),
(202,481,o),
(187,479,c),
(189,566,o),
(191,592,o),
(191,609,c),
(192,632,o),
(174,650,o),
(150,650,cs),
(129,650,o),
(112,632,o),
(111,611,c),
(111,587,o),
(109,559,o),
(106,474,c),
(48,469,ls),
(27,467,o),
(12,452,o),
(12,432,cs),
(12,409,o),
(30,392,o),
(52,392,cs),
(53,392,o),
(54,392,o),
(55,392,c),
(105,397,l),
(104,345,o),
(103,297,o),
(103,250,cs),
(103,113,o),
(117,1,o),
(233,1,cs)
);
}
);
width = 311;
},
{
anchors = (
{
name = bottom;
pos = (228,0);
},
{
name = center;
pos = (165,270);
},
{
name = top;
pos = (216,700);
},
{
name = topright;
pos = (389,480);
}
);
layerId = m002;
shapes = (
{
closed = 1;
nodes = (
(323,7,o),
(323,47,cs),
(323,64,o),
(312,79,o),
(290,79,cs),
(275,79,o),
(259,73,o),
(245,73,cs),
(205,73,o),
(194,104,o),
(194,148,cs),
(194,187,o),
(214,346,o),
(221,405,c),
(237,405,o),
(245,404,o),
(298,407,cs),
(320,408,o),
(339,428,o),
(339,449,cs),
(339,466,o),
(323,482,o),
(303,482,cs),
(270,482,o),
(246,481,o),
(231,479,c),
(242,566,o),
(247,592,o),
(248,609,c),
(252,630,o),
(237,650,o),
(212,650,cs),
(191,650,o),
(172,632,o),
(169,611,c),
(166,587,o),
(161,559,o),
(149,474,c),
(91,474,ls),
(69,474,o),
(51,454,o),
(51,432,cs),
(51,411,o),
(67,396,o),
(87,396,cs),
(88,396,o),
(89,396,o),
(90,396,c),
(140,397,l),
(134,345,o),
(114,187,o),
(114,134,cs),
(114,53,o),
(136,-6,o),
(225,-6,cs),
(270,-6,o)
);
}
);
width = 370;
},
{
anchors = (
{
name = bottom;
pos = (235,0);
},
{
name = center;
pos = (143,270);
},
{
name = top;
pos = (149,700);
},
{
name = topright;
pos = (345,480);
}
);
associatedMasterId = m002;
layerId = "15E00327-611C-46B6-B813-C6489E395BBB";
name = "Jun 12 19, 12:34";
shapes = (
{
closed = 1;
nodes = (
(266,1,o),
(283,22,o),
(283,43,cs),
(283,63,o),
(267,83,o),
(233,83,cs),
(189,83,o),
(183,158,o),
(183,237,cs),
(183,290,o),
(184,346,o),
(185,405,c),
(200,409,o),
(209,404,o),
(262,407,cs),
(283,408,o),
(299,426,o),
(299,446,cs),
(299,465,o),
(280,482,o),
(259,482,cs),
(226,482,o),
(202,481,o),
(187,479,c),
(189,566,o),
(191,592,o),
(191,609,c),
(192,632,o),
(174,650,o),
(150,650,cs),
(129,650,o),
(112,632,o),
(111,611,c),
(111,587,o),
(109,559,o),
(106,474,c),
(48,469,ls),
(27,467,o),
(12,452,o),
(12,432,cs),
(12,409,o),
(30,392,o),
(52,392,cs),
(53,392,o),
(54,392,o),
(55,392,c),
(105,397,l),
(104,345,o),
(103,297,o),
(103,250,cs),
(103,113,o),
(117,1,o),
(233,1,cs)
);
}
);
width = 311;
}
);
metricLeft = v;
unicode = 116;
},
{
glyphname = u;
lastChange = "2021-09-30 18:24:00 +0000";
layers = (
{
anchors = (
{
name = bottom;
pos = (257,0);
},
{
name = ogonek;
pos = (431,47);
},
{
name = top;
pos = (258,480);
},
{
name = topright;
pos = (553,571);
}
);
layerId = "24C63A81-7FC6-4EE9-AF2B-C1140AFD6C4B";
shapes = (
{
closed = 1;
nodes = (
(75,483,o),
(54,470,o),
(53,439,cs),
(49,302,ls),
(43,125,o),
(68,0,o),
(231,0,cs),
(293,0,o),
(342,18,o),
(369,66,cs),
(375,76,o),
(381,75,o),
(381,66,cs),
(383,26,l),
(388,-25,o),
(471,-16,o),
(459,43,cs),
(457,53,o),
(442,100,o),
(453,228,cs),
(461,306,o),
(459,379,o),
(465,432,cs),
(468,460,o),
(450,479,o),
(425,479,cs),
(402,479,o),
(386,463,o),
(385,434,cs),
(384,403,o),
(383,315,o),
(378,242,cs),
(372,155,o),
(324,78,o),
(234,78,cs),
(136,78,o),
(122,169,o),
(129,298,cs),
(136,434,ls),
(138,466,o),
(121,483,o),
(96,483,cs)
);
}
);
width = 513;
},
{
anchors = (
{
name = bottom;
pos = (222,0);
},
{
name = ogonek;
pos = (401,47);
},
{
name = top;
pos = (274,480);
},
{
name = topright;
pos = (578,571);
}
);
layerId = m002;
shapes = (
{
closed = 1;
nodes = (
(91,483,o),
(68,470,o),
(64,439,cs),
(46,302,ls),
(22,125,o),
(33,0,o),
(196,0,cs),
(259,0,o),
(309,18,o),
(341,66,cs),
(348,76,o),
(354,75,o),
(353,66,cs),
(351,26,l),
(351,-26,o),
(434,-14,o),
(429,41,cs),
(428,53,o),
(417,100,o),
(442,225,cs),
(458,304,o),
(463,373,o),
(476,433,cs),
(482,460,o),
(464,479,o),
(441,479,cs),
(418,479,o),
(400,463,o),
(396,435,cs),
(392,403,o),
(378,295,o),
(369,243,cs),
(354,156,o),
(298,78,o),
(207,78,cs),
(110,78,o),
(104,169,o),
(125,298,cs),
(147,434,ls),
(152,466,o),
(137,483,o),
(112,483,cs)
);
}
);
width = 513;
}
);
metricLeft = n;
metricRight = n;
unicode = 117;
},
{
color = 5;
glyphname = v;
lastChange = "2021-09-30 17:35:23 +0000";
layers = (
{
layerId = "24C63A81-7FC6-4EE9-AF2B-C1140AFD6C4B";
shapes = (
{
closed = 1;
nodes = (
(374,487,o),
(352,475,o),
(345,454,cs),
(325,399,o),
(306,343,o),
(296,315,cs),
(277,263,o),
(231,153,o),
(206,98,cs),
(202,90,o),
(196,91,o),
(193,99,cs),
(180,141,o),
(160,192,o),
(139,271,cs),
(90,452,ls),
(84,473,o),
(63,486,o),
(42,481,cs),
(20,476,o),
(8,454,o),
(13,433,cs),
(14,429,o),
(38,323,o),
(69,223,cs),
(90,158,o),
(121,63,o),
(149,26,cs),
(167,2,o),
(186,-5,o),
(201,-5,cs),
(213,-5,o),
(225,-1,o),
(236,11,cs),
(261,38,o),
(327,164,o),
(360,257,cs),
(422,431,ls),
(429,452,o),
(416,474,o),
(395,481,c)
);
}
);
width = 436;
},
{
layerId = m002;
shapes = (
{
closed = 1;
nodes = (
(418,487,o),
(395,475,o),
(385,454,cs),
(359,398,o),
(333,340,o),
(322,316,cs),
(297,263,o),
(233,141,o),
(209,98,cs),
(205,90,o),
(198,90,o),
(196,99,cs),
(187,142,o),
(173,192,o),
(160,271,cs),
(130,452,ls),
(127,472,o),
(107,486,o),
(85,481,cs),
(62,476,o),
(48,453,o),
(51,433,cs),
(52,429,o),
(64,322,o),
(85,223,cs),
(99,158,o),
(119,65,o),
(145,25,cs),
(160,2,o),
(178,-5,o),
(193,-5,cs),
(207,-5,o),
(217,-1,o),
(229,11,cs),
(260,41,o),
(337,164,o),
(380,257,cs),
(460,431,ls),
(470,453,o),
(457,475,o),
(438,481,c)
);
}
);
width = 464;
}
);
unicode = 118;
},
{
glyphname = w;
lastChange = "2021-09-30 17:35:26 +0000";
layers = (
{
anchors = (
{
name = bottom;
pos = (320,0);
},
{
name = top;
pos = (320,480);
}
);
layerId = "24C63A81-7FC6-4EE9-AF2B-C1140AFD6C4B";
shapes = (
{
closed = 1;
nodes = (
(565,485,o),
(548,473,o),
(542,452,cs),
(438,82,ls),
(437,78,o),
(434,75,o),
(432,75,cs),
(430,75,o),
(428,78,o),
(427,82,cs),
(403,167,o),
(373,344,o),
(357,398,cs),
(352,415,o),
(335,428,o),
(314,428,cs),
(295,428,o),
(277,419,o),
(270,402,cs),
(243,337,o),
(208,161,o),
(190,82,cs),
(189,77,o),
(188,74,o),
(186,74,cs),
(185,74,o),
(183,77,o),
(182,81,cs),
(159,162,o),
(125,349,o),
(98,454,cs),
(93,473,o),
(77,486,o),
(57,486,cs),
(31,486,o),
(12,467,o),
(12,446,cs),
(12,443,o),
(12,440,o),
(13,437,c),
(71,227,ls),
(105,101,o),
(121,-8,o),
(186,-8,cs),
(252,-8,o),
(267,106,o),
(290,206,cs),
(294,222,o),
(303,276,o),
(305,310,cs),
(306,319,o),
(313,318,o),
(314,309,cs),
(318,274,o),
(326,220,o),
(328,206,cs),
(359,34,o),
(386,-8,o),
(428,-8,cs),
(487,-8,o),
(500,78,o),
(536,182,cs),
(571,282,o),
(618,401,o),
(626,436,c),
(627,439,o),
(627,442,o),
(627,445,cs),
(627,466,o),
(608,485,o),
(584,485,cs)
);
}
);
width = 639;
},
{
anchors = (
{
name = bottom;
pos = (320,0);
},
{
name = top;
pos = (320,480);
}
);
associatedMasterId = "24C63A81-7FC6-4EE9-AF2B-C1140AFD6C4B";
layerId = "C6341176-38DA-4A8E-93E3-F2A8518AE726";
name = "Jun 12 19, 00:03";
shapes = (
{
closed = 1;
nodes = (
(574,491,o),
(550,478,o),
(542,452,cs),
(430,93,l),
(424,154,o),
(375,338,o),
(357,398,cs),
(352,415,o),
(335,428,o),
(314,428,cs),
(295,428,o),
(277,419,o),
(270,402,cs),
(240,329,o),
(192,141,o),
(187,100,c),
(98,454,ls),
(92,476,o),
(73,489,o),
(49,485,cs),
(24,481,o),
(7,459,o),
(13,437,cs),
(71,227,l),
(105,101,o),
(136,-8,o),
(186,-8,cs),
(237,-8,o),
(267,106,o),
(290,206,cs),
(295,228,o),
(305,285,o),
(311,306,c),
(313,280,o),
(325,225,o),
(328,206,cs),
(359,34,o),
(394,-8,o),
(424,-8,cs),
(468,-8,o),
(500,78,o),
(536,182,cs),
(571,282,o),
(618,401,o),
(626,436,cs),
(631,457,o),
(618,476,o),
(598,483,cs)
);
}
);
width = 639;
},
{
anchors = (
{
name = bottom;
pos = (312,0);
},
{
name = top;
pos = (363,480);
}
);
layerId = m002;
shapes = (
{
closed = 1;
nodes = (
(609,485,o),
(590,473,o),
(582,452,cs),
(439,82,ls),
(438,79,o),
(434,75,o),
(432,75,cs),
(429,75,o),
(429,78,o),
(428,82,cs),
(414,161,o),
(401,345,o),
(391,398,cs),
(388,414,o),
(373,428,o),
(351,428,cs),
(335,428,o),
(315,422,o),
(304,401,cs),
(271,338,o),
(208,134,o),
(191,83,cs),
(189,77,o),
(188,74,o),
(186,74,cs),
(184,74,o),
(184,76,o),
(183,81,cs),
(168,168,o),
(155,345,o),
(138,453,cs),
(135,473,o),
(120,486,o),
(100,486,cs),
(75,486,o),
(53,467,o),
(51,447,cs),
(51,444,o),
(50,440,o),
(51,437,c),
(87,227,ls),
(108,101,o),
(113,-8,o),
(177,-8,cs),
(243,-8,o),
(270,106,o),
(304,206,cs),
(310,223,o),
(326,286,o),
(330,310,cs),
(331,319,o),
(339,318,o),
(339,309,cs),
(339,277,o),
(341,220,o),
(342,206,cs),
(354,43,o),
(374,-8,o),
(419,-8,cs),
(479,-8,o),
(500,78,o),
(547,182,cs),
(594,286,o),
(652,401,o),
(664,436,c),
(665,438,o),
(666,444,o),
(666,449,cs),
(666,468,o),
(649,485,o),
(627,485,cs)
);
}
);
width = 667;
},
{
anchors = (
{
name = bottom;
pos = (320,0);
},
{
name = top;
pos = (320,480);
}
);
associatedMasterId = m002;
layerId = "1AB9E26B-91EE-48B2-BABA-A7D629228774";
name = "Jun 12 19, 00:03";
shapes = (
{
closed = 1;
nodes = (
(574,491,o),
(550,478,o),
(542,452,cs),
(430,93,l),
(424,154,o),
(375,338,o),
(357,398,cs),
(352,415,o),
(335,428,o),
(314,428,cs),
(295,428,o),
(277,419,o),
(270,402,cs),
(240,329,o),
(192,141,o),
(187,100,c),
(98,454,ls),
(92,476,o),
(73,489,o),
(49,485,cs),
(24,481,o),
(7,459,o),
(13,437,cs),
(71,227,l),
(105,101,o),
(136,-8,o),
(186,-8,cs),
(237,-8,o),
(267,106,o),
(290,206,cs),
(295,228,o),
(305,285,o),
(311,306,c),
(313,280,o),
(325,225,o),
(328,206,cs),
(359,34,o),
(394,-8,o),
(424,-8,cs),
(468,-8,o),
(500,78,o),
(536,182,cs),
(571,282,o),
(618,401,o),
(626,436,cs),
(631,457,o),
(618,476,o),
(598,483,cs)
);
}
);
width = 639;
}
);
metricLeft = v;
metricRight = v;
unicode = 119;
},
{
glyphname = x;
lastChange = "2021-09-30 18:39:19 +0000";
layers = (
{
layerId = "24C63A81-7FC6-4EE9-AF2B-C1140AFD6C4B";
shapes = (
{
closed = 1;
nodes = (
(369,137,o),
(329,176,o),
(283,236,cs),
(280,241,o),
(280,245,o),
(283,250,cs),
(322,302,o),
(360,353,o),
(403,412,cs),
(410,422,o),
(414,435,o),
(414,445,cs),
(414,468,o),
(395,485,o),
(373,485,cs),
(363,485,o),
(350,480,o),
(342,467,c),
(312,422,o),
(278,366,o),
(243,304,cs),
(239,297,o),
(233,297,o),
(229,304,cs),
(202,355,o),
(170,403,o),
(132,465,cs),
(122,481,o),
(110,487,o),
(99,487,cs),
(79,487,o),
(58,472,o),
(58,449,cs),
(58,438,o),
(64,423,o),
(71,413,cs),
(191,254,ls),
(194,250,o),
(194,245,o),
(191,240,cs),
(150,188,o),
(109,135,o),
(61,76,cs),
(52,65,o),
(48,53,o),
(48,41,cs),
(48,17,o),
(63,-4,o),
(85,-4,cs),
(97,-4,o),
(115,2,o),
(138,31,cs),
(172,75,o),
(200,128,o),
(232,182,cs),
(236,189,o),
(242,189,o),
(246,183,cs),
(284,123,o),
(322,71,o),
(360,11,cs),
(365,3,o),
(375,1,o),
(384,1,cs),
(403,1,o),
(424,14,o),
(424,39,cs),
(424,49,o),
(422,60,o),
(413,73,cs)
);
}
);
width = 472;
},
{
layerId = m002;
shapes = (
{
closed = 1;
nodes = (
(350,139,o),
(318,171,o),
(276,236,cs),
(274,240,o),
(273,246,o),
(277,250,cs),
(325,307,o),
(365,353,o),
(415,413,cs),
(422,422,o),
(429,436,o),
(429,449,cs),
(429,470,o),
(412,485,o),
(392,485,cs),
(384,485,o),
(369,481,o),
(359,467,c),
(324,422,o),
(280,359,o),
(243,304,cs),
(238,297,o),
(232,297,o),
(229,304,cs),
(207,355,o),
(151,461,o),
(149,465,cs),
(141,481,o),
(128,487,o),
(118,487,cs),
(96,487,o),
(73,469,o),
(73,445,cs),
(73,436,o),
(76,422,o),
(82,413,cs),
(186,254,ls),
(189,249,o),
(187,243,o),
(184,240,cs),
(143,193,o),
(63,104,o),
(37,76,cs),
(26,64,o),
(20,50,o),
(20,35,cs),
(20,15,o),
(32,-4,o),
(53,-4,cs),
(66,-4,o),
(83,2,o),
(110,32,cs),
(148,75,o),
(170,111,o),
(219,182,cs),
(223,188,o),
(229,190,o),
(233,183,cs),
(265,123,o),
(297,71,o),
(329,11,cs),
(333,3,o),
(344,1,o),
(352,1,cs),
(371,1,o),
(396,14,o),
(396,46,cs),
(396,53,o),
(395,63,o),
(388,74,cs)
);
}
);
width = 460;
}
);
unicode = 120;
},
{
glyphname = y;
lastChange = "2021-09-30 18:24:00 +0000";
layers = (
{
anchors = (
{
name = bottom;
pos = (231,-200);
},
{
name = top;
pos = (231,500);
}
);
layerId = "24C63A81-7FC6-4EE9-AF2B-C1140AFD6C4B";
shapes = (
{
closed = 1;
nodes = (
(50,-121,cs),
(50,-143,o),
(62,-162,o),
(109,-171,cs),
(124,-174,o),
(165,-181,o),
(205,-181,cs),
(415,-181,o),
(409,-43,o),
(411,174,cs),
(414,447,ls),
(414,469,o),
(397,488,o),
(375,488,c),
(353,489,o),
(334,472,o),
(334,450,cs),
(331,176,ls),
(331,137,o),
(299,74,o),
(225,74,cs),
(84,74,o),
(129,313,o),
(129,450,c),
(128,472,o),
(109,489,o),
(87,487,c),
(65,486,o),
(48,467,o),
(49,445,c),
(49,200,o),
(25,-6,o),
(205,-6,cs),
(255,-6,o),
(291,4,o),
(321,46,cs),
(326,54,o),
(334,52,o),
(334,42,cs),
(330,-54,o),
(315,-105,o),
(199,-105,cs),
(178,-105,o),
(147,-102,o),
(109,-94,cs),
(77,-87,o),
(50,-96,o)
);
}
);
width = 462;
},
{
anchors = (
{
name = bottom;
pos = (209,-200);
},
{
name = top;
pos = (283,500);
}
);
layerId = m002;
shapes = (
{
closed = 1;
nodes = (
(36,-127,cs),
(36,-146,o),
(48,-163,o),
(90,-171,cs),
(105,-174,o),
(145,-181,o),
(185,-181,cs),
(394,-181,o),
(403,-43,o),
(428,174,cs),
(460,447,ls),
(463,470,o),
(446,488,o),
(425,488,c),
(406,489,o),
(383,474,o),
(380,450,cs),
(349,176,ls),
(345,137,o),
(305,74,o),
(232,74,cs),
(91,74,o),
(161,313,o),
(175,450,c),
(177,472,o),
(159,489,o),
(137,487,c),
(115,486,o),
(96,467,o),
(95,445,c),
(69,200,o),
(23,-6,o),
(203,-6,cs),
(259,-6,o),
(294,8,o),
(325,46,cs),
(331,54,o),
(339,53,o),
(337,40,cs),
(324,-54,o),
(302,-105,o),
(187,-105,cs),
(167,-105,o),
(135,-102,o),
(98,-94,cs),
(67,-87,o),
(36,-95,o)
);
}
);
width = 496;
}
);
metricLeft = n;
metricRight = n;
unicode = 121;
},
{
glyphname = z;
lastChange = "2021-09-30 18:24:00 +0000";
layers = (
{
anchors = (
{
name = bottom;
pos = (257,0);
},
{
name = center;
pos = (257,240);
},
{
name = top;
pos = (257,500);
}
);
layerId = "24C63A81-7FC6-4EE9-AF2B-C1140AFD6C4B";
shapes = (
{
closed = 1;
nodes = (
(86,490,o),
(60,476,o),
(60,450,cs),
(60,429,o),
(77,423,o),
(110,419,cs),
(162,413,o),
(313,410,o),
(361,414,cs),
(370,415,o),
(374,410,o),
(367,403,cs),
(295,331,o),
(152,152,o),
(59,59,cs),
(47,47,o),
(44,28,o),
(52,13,cs),
(60,-2,o),
(71,-8,o),
(95,-8,c),
(95,-8,o),
(155,4,o),
(226,8,cs),
(405,18,o),
(441,-30,o),
(462,13,cs),
(472,33,o),
(463,53,o),
(444,63,cs),
(402,85,o),
(256,84,o),
(177,68,cs),
(167,66,o),
(165,70,o),
(172,77,cs),
(248,153,o),
(404,340,o),
(445,399,cs),
(454,412,o),
(469,442,o),
(453,468,c),
(448,475,o),
(432,489,o),
(392,485,cs),
(319,478,o),
(195,480,o),
(107,488,cs)
);
}
);
width = 514;
},
{
anchors = (
{
name = bottom;
pos = (243,0);
},
{
name = center;
pos = (268,240);
},
{
name = top;
pos = (295,500);
}
);
layerId = m002;
shapes = (
{
closed = 1;
nodes = (
(119,490,o),
(93,472,o),
(93,446,cs),
(93,428,o),
(109,423,o),
(140,419,cs),
(191,413,o),
(344,410,o),
(390,414,cs),
(399,415,o),
(403,410,o),
(395,403,cs),
(393,401,o),
(154,152,o),
(52,60,cs),
(38,47,o),
(32,29,o),
(39,13,cs),
(45,-2,o),
(57,-8,o),
(80,-8,c),
(80,-8,o),
(141,4,o),
(212,8,cs),
(393,18,o),
(423,-30,o),
(449,13,cs),
(462,34,o),
(453,54,o),
(436,63,cs),
(397,85,o),
(251,84,o),
(170,68,cs),
(161,66,o),
(159,71,o),
(166,77,cs),
(250,153,o),
(432,348,o),
(472,398,cs),
(483,412,o),
(501,442,o),
(488,468,c),
(484,475,o),
(469,489,o),
(428,485,cs),
(355,478,o),
(230,480,o),
(144,488,cs)
);
}
);
width = 529;
}
);
metricLeft = n;
metricRight = n;
unicode = 122;
},
{
glyphname = d_o_g_e;
lastChange = "2021-09-30 17:19:03 +0000";
layers = (
{
layerId = "24C63A81-7FC6-4EE9-AF2B-C1140AFD6C4B";
shapes = (
{
closed = 1;
nodes = (
(414,-60,o),
(585,-44,o),
(585,-7,cs),
(585,1,o),
(576,7,o),
(558,7,cs),
(498,7,o),
(429,-48,o),
(364,-48,cs),
(290,-48,o),
(112,64,o),
(68,64,cs),
(55,64,o),
(48,59,o),
(48,49,cs),
(48,-11,o),
(239,-60,o),
(360,-60,cs)
);
},
{
closed = 1;
nodes = (
(199,142,o),
(285,245,o),
(285,305,cs),
(285,362,o),
(228,378,o),
(138,378,cs),
(74,378,o),
(31,338,o),
(31,302,cs),
(31,281,o),
(45,260,o),
(78,251,cs),
(85,249,o),
(87,247,o),
(87,245,cs),
(87,244,o),
(86,238,o),
(72,238,cs),
(62,238,o),
(49,244,o),
(45,244,cs),
(24,244,o),
(79,142,o),
(134,142,cs)
);
},
{
closed = 1;
nodes = (
(249,538,o),
(298,578,o),
(298,604,cs),
(298,610,o),
(297,615,o),
(292,618,cs),
(282,624,o),
(281,637,o),
(269,652,c),
(256,667,o),
(225,673,o),
(214,673,cs),
(174,673,o),
(151,638,o),
(151,621,cs),
(151,617,o),
(153,613,o),
(156,613,cs),
(175,613,o),
(182,652,o),
(208,652,c),
(191,637,o),
(170,606,o),
(173,582,cs),
(176,559,o),
(189,544,o),
(208,525,c)
);
},
{
closed = 1;
nodes = (
(200,625,o),
(203,638,o),
(210,638,cs),
(215,638,o),
(222,632,o),
(221,630,cs),
(217,621,o),
(204,618,o),
(200,618,c)
);
},
{
closed = 1;
nodes = (
(249,600,o),
(248,604,o),
(248,608,cs),
(248,616,o),
(252,628,o),
(258,628,cs),
(263,628,o),
(268,620,o),
(268,615,cs),
(268,608,o),
(260,600,o),
(253,600,cs)
);
},
{
closed = 1;
nodes = (
(657,455,o),
(630,461,o),
(630,483,cs),
(630,515,o),
(673,563,o),
(719,559,c),
(717,557,o),
(711,549,o),
(708,547,c),
(724,546,o),
(735,537,o),
(735,531,cs),
(735,527,o),
(732,524,o),
(727,524,cs),
(722,524,o),
(713,527,o),
(702,537,c),
(691,525,o),
(685,510,o),
(685,495,cs),
(685,475,o),
(695,467,o),
(710,455,c)
);
},
{
closed = 1;
nodes = (
(770,439,o),
(857,471,o),
(857,498,cs),
(857,523,o),
(775,579,o),
(728,579,cs),
(634,579,o),
(602,496,o),
(602,470,cs),
(602,449,o),
(660,439,o),
(724,439,cs)
);
}
);
width = 888;
},
{
associatedMasterId = "24C63A81-7FC6-4EE9-AF2B-C1140AFD6C4B";
attr = {
coordinates = (
0,
40
);
};
layerId = "6F599977-0455-44E6-82F1-D9953C6C43EE";
name = "30 Sep 21, 11:59";
shapes = (
{
closed = 1;
nodes = (
(414,-60,o),
(585,-44,o),
(585,-7,cs),
(585,1,o),
(576,7,o),
(558,7,cs),
(498,7,o),
(429,-48,o),
(364,-48,cs),
(290,-48,o),
(112,64,o),
(68,64,cs),
(55,64,o),
(48,59,o),
(48,49,cs),
(48,-11,o),
(239,-60,o),
(360,-60,cs)
);
},
{
closed = 1;
nodes = (
(199,142,o),
(285,245,o),
(285,305,cs),
(285,362,o),
(228,378,o),
(138,378,cs),
(74,378,o),
(31,338,o),
(31,302,cs),
(31,281,o),
(45,260,o),
(78,251,cs),
(85,249,o),
(87,247,o),
(87,245,cs),
(87,244,o),
(86,238,o),
(72,238,cs),
(62,238,o),
(49,244,o),
(45,244,cs),
(24,244,o),
(79,142,o),
(134,142,cs)
);
},
{
closed = 1;
nodes = (
(249,538,o),
(298,596,o),
(298,622,cs),
(298,628,o),
(297,633,o),
(292,636,cs),
(282,642,o),
(281,655,o),
(269,670,c),
(256,685,o),
(225,691,o),
(214,691,cs),
(174,691,o),
(151,656,o),
(151,639,cs),
(151,635,o),
(153,631,o),
(156,631,cs),
(175,631,o),
(174,661,o),
(200,661,c),
(183,646,o),
(173,624,o),
(173,600,cs),
(176,567,o),
(189,544,o),
(208,525,c)
);
},
{
closed = 1;
nodes = (
(199,633,o),
(202,646,o),
(209,646,cs),
(214,646,o),
(221,640,o),
(220,638,cs),
(216,629,o),
(203,626,o),
(199,626,c)
);
},
{
closed = 1;
nodes = (
(249,612,o),
(248,616,o),
(248,620,cs),
(248,628,o),
(252,640,o),
(258,640,cs),
(263,640,o),
(268,632,o),
(268,627,cs),
(268,620,o),
(260,612,o),
(253,612,cs)
);
},
{
closed = 1;
nodes = (
(657,434,o),
(635,455,o),
(635,482,cs),
(635,520,o),
(673,565,o),
(719,560,c),
(717,558,o),
(715,556,o),
(712,554,c),
(728,553,o),
(735,543,o),
(735,536,cs),
(735,531,o),
(732,528,o),
(727,528,cs),
(722,528,o),
(713,532,o),
(702,543,c),
(691,529,o),
(685,512,o),
(685,493,cs),
(685,470,o),
(695,449,o),
(710,434,c)
);
},
{
closed = 1;
nodes = (
(770,411,o),
(857,465,o),
(857,497,cs),
(857,527,o),
(775,593,o),
(728,593,cs),
(654,593,o),
(602,500,o),
(602,469,cs),
(602,444,o),
(660,411,o),
(724,411,cs)
);
}
);
width = 888;
},
{
associatedMasterId = "24C63A81-7FC6-4EE9-AF2B-C1140AFD6C4B";
backgroundImage = {
imagePath = "../../Desktop/Screenshot 2021-09-30 at 11.58.38.png";
pos = (-536,795);
scale = (5.3422,5.4107);
};
layerId = "BCF3F138-EE11-4BF4-AA36-1446E47AE9AF";
name = "30 Sep 21, 12:23";
shapes = (
{
closed = 1;
nodes = (
(414,-60,o),
(585,-44,o),
(585,-7,cs),
(585,1,o),
(576,7,o),
(558,7,cs),
(498,7,o),
(429,-48,o),
(364,-48,cs),
(290,-48,o),
(112,64,o),
(68,64,cs),
(55,64,o),
(48,59,o),
(48,49,cs),
(48,-11,o),
(239,-60,o),
(360,-60,cs)
);
},
{
closed = 1;
nodes = (
(199,142,o),
(285,245,o),
(285,305,cs),
(285,362,o),
(228,378,o),
(138,378,cs),
(74,378,o),
(31,338,o),
(31,302,cs),
(31,281,o),
(45,260,o),
(78,251,cs),
(85,249,o),
(87,247,o),
(87,245,cs),
(87,244,o),
(86,238,o),
(72,238,cs),
(62,238,o),
(49,244,o),
(45,244,cs),
(24,244,o),
(79,142,o),
(134,142,cs)
);
},
{
closed = 1;
nodes = (
(249,538,o),
(298,596,o),
(298,622,cs),
(298,628,o),
(297,633,o),
(292,636,cs),
(282,642,o),
(281,655,o),
(269,670,c),
(256,685,o),
(225,691,o),
(214,691,cs),
(174,691,o),
(151,656,o),
(151,639,cs),
(151,635,o),
(153,631,o),
(156,631,cs),
(175,631,o),
(174,661,o),
(200,661,c),
(183,646,o),
(173,624,o),
(173,600,cs),
(176,567,o),
(189,544,o),
(208,525,c)
);
},
{
closed = 1;
nodes = (
(199,633,o),
(202,646,o),
(209,646,cs),
(214,646,o),
(221,640,o),
(220,638,cs),
(216,629,o),
(203,626,o),
(199,626,c)
);
},
{
closed = 1;
nodes = (
(249,612,o),
(248,616,o),
(248,620,cs),
(248,628,o),
(252,640,o),
(258,640,cs),
(263,640,o),
(268,632,o),
(268,627,cs),
(268,620,o),
(260,612,o),
(253,612,cs)
);
},
{
closed = 1;
nodes = (
(770,411,o),
(857,465,o),
(857,497,cs),
(857,527,o),
(775,593,o),
(728,593,cs),
(654,593,o),
(602,500,o),
(602,469,cs),
(602,444,o),
(660,411,o),
(724,411,cs)
);
}
);
width = 888;
},
{
associatedMasterId = m002;
layerId = "19FEC52E-AFE2-45F9-8A7E-54C82601BA77";
name = "30 Sep 21, 12:25";
shapes = (
{
closed = 1;
nodes = (
(414,-60,o),
(585,-44,o),
(585,-7,cs),
(585,1,o),
(576,7,o),
(558,7,cs),
(498,7,o),
(429,-48,o),
(364,-48,cs),
(290,-48,o),
(112,64,o),
(68,64,cs),
(55,64,o),
(48,59,o),
(48,49,cs),
(48,-11,o),
(239,-60,o),
(360,-60,cs)
);
},
{
closed = 1;
nodes = (
(199,142,o),
(285,245,o),
(285,305,cs),
(285,362,o),
(228,378,o),
(138,378,cs),
(74,378,o),
(31,338,o),
(31,302,cs),
(31,281,o),
(45,260,o),
(78,251,cs),
(85,249,o),
(87,247,o),
(87,245,cs),
(87,244,o),
(86,238,o),
(72,238,cs),
(62,238,o),
(49,244,o),
(45,244,cs),
(24,244,o),
(79,142,o),
(134,142,cs)
);
},
{
closed = 1;
nodes = (
(249,538,o),
(298,578,o),
(298,604,cs),
(298,610,o),
(297,615,o),
(292,618,cs),
(282,624,o),
(281,637,o),
(269,652,c),
(256,667,o),
(225,673,o),
(214,673,cs),
(174,673,o),
(151,638,o),
(151,621,cs),
(151,617,o),
(153,613,o),
(156,613,cs),
(175,613,o),
(182,652,o),
(208,652,c),
(191,637,o),
(170,606,o),
(173,582,cs),
(176,559,o),
(189,544,o),
(208,525,c)
);
},
{
closed = 1;
nodes = (
(200,625,o),
(203,638,o),
(210,638,cs),
(215,638,o),
(222,632,o),
(221,630,cs),
(217,621,o),
(204,618,o),
(200,618,c)
);
},
{
closed = 1;
nodes = (
(249,600,o),
(248,604,o),
(248,608,cs),
(248,616,o),
(252,628,o),
(258,628,cs),
(263,628,o),
(268,620,o),
(268,615,cs),
(268,608,o),
(260,600,o),
(253,600,cs)
);
},
{
closed = 1;
nodes = (
(657,455,o),
(630,461,o),
(630,483,cs),
(630,515,o),
(673,563,o),
(719,559,c),
(717,557,o),
(711,549,o),
(708,547,c),
(724,546,o),
(735,537,o),
(735,531,cs),
(735,527,o),
(732,524,o),
(727,524,cs),
(722,524,o),
(713,527,o),
(702,537,c),
(691,525,o),
(685,510,o),
(685,495,cs),
(685,475,o),
(695,467,o),
(710,455,c)
);
},
{
closed = 1;
nodes = (
(770,439,o),
(857,471,o),
(857,498,cs),
(857,523,o),
(775,579,o),
(728,579,cs),
(634,579,o),
(602,496,o),
(602,470,cs),
(602,449,o),
(660,439,o),
(724,439,cs)
);
}
);
width = 888;
},
{
layerId = m002;
name = flop;
shapes = (
{
closed = 1;
nodes = (
(414,-60,o),
(585,-44,o),
(585,-7,cs),
(585,1,o),
(576,7,o),
(558,7,cs),
(498,7,o),
(429,-48,o),
(364,-48,cs),
(290,-48,o),
(112,64,o),
(68,64,cs),
(55,64,o),
(48,59,o),
(48,49,cs),
(48,-11,o),
(239,-60,o),
(360,-60,cs)
);
},
{
closed = 1;
nodes = (
(199,142,o),
(285,245,o),
(285,305,cs),
(285,362,o),
(228,378,o),
(138,378,cs),
(74,378,o),
(31,338,o),
(31,302,cs),
(31,281,o),
(45,260,o),
(78,251,cs),
(85,249,o),
(87,247,o),
(87,245,cs),
(87,244,o),
(86,238,o),
(72,238,cs),
(62,238,o),
(49,244,o),
(45,244,cs),
(24,244,o),
(79,142,o),
(134,142,cs)
);
},
{
closed = 1;
nodes = (
(249,538,o),
(298,578,o),
(298,604,cs),
(298,610,o),
(297,615,o),
(292,618,cs),
(282,624,o),
(281,637,o),
(269,652,c),
(256,667,o),
(225,673,o),
(214,673,cs),
(174,673,o),
(151,638,o),
(151,621,cs),
(151,617,o),
(153,613,o),
(156,613,cs),
(175,613,o),
(182,652,o),
(208,652,c),
(191,637,o),
(170,606,o),
(173,582,cs),
(176,559,o),
(189,544,o),
(208,525,c)
);
},
{
closed = 1;
nodes = (
(200,625,o),
(203,638,o),
(210,638,cs),
(215,638,o),
(222,632,o),
(221,630,cs),
(217,621,o),
(204,618,o),
(200,618,c)
);
},
{
closed = 1;
nodes = (
(249,600,o),
(248,604,o),
(248,608,cs),
(248,616,o),
(252,628,o),
(258,628,cs),
(263,628,o),
(268,620,o),
(268,615,cs),
(268,608,o),
(260,600,o),
(253,600,cs)
);
},
{
closed = 1;
nodes = (
(657,455,o),
(630,461,o),
(630,483,cs),
(630,515,o),
(673,563,o),
(719,559,c),
(717,557,o),
(711,549,o),
(708,547,c),
(724,546,o),
(735,537,o),
(735,531,cs),
(735,527,o),
(732,524,o),
(727,524,cs),
(722,524,o),
(713,527,o),
(702,537,c),
(691,525,o),
(685,510,o),
(685,495,cs),
(685,475,o),
(695,467,o),
(710,455,c)
);
},
{
closed = 1;
nodes = (
(770,439,o),
(857,471,o),
(857,498,cs),
(857,523,o),
(775,579,o),
(728,579,cs),
(634,579,o),
(602,496,o),
(602,470,cs),
(602,449,o),
(660,439,o),
(724,439,cs)
);
}
);
width = 888;
},
{
associatedMasterId = m002;
backgroundImage = {
imagePath = "../../Desktop/Screenshot 2021-09-30 at 11.58.38.png";
pos = (-612,995);
scale = (5.3422,5.4107);
};
layerId = "A337C09A-8E6E-4223-9756-BDC36DFC2213";
name = old;
shapes = (
{
closed = 1;
nodes = (
(458,-70,o),
(585,-34,o),
(585,3,cs),
(585,11,o),
(576,17,o),
(558,17,cs),
(498,17,o),
(482,-48,o),
(344,-48,cs),
(270,-48,o),
(112,64,o),
(68,64,cs),
(55,64,o),
(48,59,o),
(48,49,cs),
(48,-11,o),
(239,-70,o),
(360,-70,cs)
);
},
{
closed = 1;
nodes = (
(199,145,o),
(285,248,o),
(285,308,cs),
(285,365,o),
(228,381,o),
(138,381,cs),
(74,381,o),
(31,341,o),
(31,305,cs),
(31,284,o),
(45,261,o),
(78,252,cs),
(85,250,o),
(87,248,o),
(87,246,cs),
(87,245,o),
(86,239,o),
(72,239,cs),
(62,239,o),
(49,247,o),
(45,247,cs),
(24,247,o),
(79,145,o),
(134,145,cs)
);
},
{
closed = 1;
nodes = (
(249,538,o),
(298,578,o),
(298,604,cs),
(298,610,o),
(297,615,o),
(292,618,cs),
(282,624,o),
(281,637,o),
(269,652,c),
(256,667,o),
(225,673,o),
(214,673,cs),
(174,673,o),
(151,638,o),
(151,621,cs),
(151,617,o),
(153,613,o),
(156,613,cs),
(175,613,o),
(182,652,o),
(208,652,c),
(191,637,o),
(170,606,o),
(173,582,cs),
(176,559,o),
(189,544,o),
(208,525,c)
);
},
{
closed = 1;
nodes = (
(200,625,o),
(203,638,o),
(210,638,cs),
(215,638,o),
(222,632,o),
(221,630,cs),
(217,621,o),
(204,618,o),
(200,618,c)
);
},
{
closed = 1;
nodes = (
(249,600,o),
(248,604,o),
(248,608,cs),
(248,616,o),
(252,628,o),
(258,628,cs),
(263,628,o),
(268,620,o),
(268,615,cs),
(268,608,o),
(260,600,o),
(253,600,cs)
);
},
{
closed = 1;
nodes = (
(827,489,o),
(857,458,o),
(857,488,cs),
(857,502,o),
(790,538,o),
(727,538,cs),
(637,538,o),
(602,471,o),
(602,454,cs),
(602,431,o),
(625,489,o),
(703,489,cs)
);
}
);
width = 888;
},
{
associatedMasterId = "24C63A81-7FC6-4EE9-AF2B-C1140AFD6C4B";
layerId = "14C1DC91-DC73-476F-9BBF-62148D4129D5";
name = "30 Sep 21, 17:48";
shapes = (
{
closed = 1;
nodes = (
(414,-60,o),
(585,-44,o),
(585,-7,cs),
(585,1,o),
(576,7,o),
(558,7,cs),
(498,7,o),
(429,-48,o),
(364,-48,cs),
(290,-48,o),
(112,64,o),
(68,64,cs),
(55,64,o),
(48,59,o),
(48,49,cs),
(48,-11,o),
(239,-60,o),
(360,-60,cs)
);
},
{
closed = 1;
nodes = (
(199,142,o),
(285,245,o),
(285,305,cs),
(285,362,o),
(228,378,o),
(138,378,cs),
(74,378,o),
(31,338,o),
(31,302,cs),
(31,281,o),
(45,260,o),
(78,251,cs),
(85,249,o),
(87,247,o),
(87,245,cs),
(87,244,o),
(86,238,o),
(72,238,cs),
(62,238,o),
(49,244,o),
(45,244,cs),
(24,244,o),
(79,142,o),
(134,142,cs)
);
},
{
closed = 1;
nodes = (
(249,538,o),
(298,596,o),
(298,622,cs),
(298,628,o),
(297,633,o),
(292,636,cs),
(282,642,o),
(281,655,o),
(269,670,c),
(256,685,o),
(225,691,o),
(214,691,cs),
(174,691,o),
(151,656,o),
(151,639,cs),
(151,635,o),
(153,631,o),
(156,631,cs),
(175,631,o),
(174,661,o),
(200,661,c),
(183,646,o),
(173,624,o),
(173,600,cs),
(176,567,o),
(189,544,o),
(208,525,c)
);
},
{
closed = 1;
nodes = (
(199,633,o),
(202,646,o),
(209,646,cs),
(214,646,o),
(221,640,o),
(220,638,cs),
(216,629,o),
(203,626,o),
(199,626,c)
);
},
{
closed = 1;
nodes = (
(249,612,o),
(248,616,o),
(248,620,cs),
(248,628,o),
(252,640,o),
(258,640,cs),
(263,640,o),
(268,632,o),
(268,627,cs),
(268,620,o),
(260,612,o),
(253,612,cs)
);
},
{
closed = 1;
nodes = (
(657,434,o),
(635,455,o),
(635,482,cs),
(635,520,o),
(673,565,o),
(719,560,c),
(717,558,o),
(715,556,o),
(712,554,c),
(728,553,o),
(735,543,o),
(735,536,cs),
(735,531,o),
(732,528,o),
(727,528,cs),
(722,528,o),
(713,532,o),
(702,543,c),
(691,529,o),
(685,512,o),
(685,493,cs),
(685,470,o),
(695,449,o),
(710,434,c)
);
},
{
closed = 1;
nodes = (
(770,411,o),
(857,465,o),
(857,497,cs),
(857,527,o),
(775,593,o),
(728,593,cs),
(654,593,o),
(602,500,o),
(602,469,cs),
(602,444,o),
(660,411,o),
(724,411,cs)
);
}
);
width = 888;
}
);
metricLeft = d;
metricRight = e;
},
{
glyphname = m_u_c_h;
lastChange = "2021-10-04 13:30:15 +0000";
layers = (
{
anchors = (
{
name = bottom;
pos = (311,10);
},
{
name = top;
pos = (311,480);
}
);
layerId = "24C63A81-7FC6-4EE9-AF2B-C1140AFD6C4B";
shapes = (
{
closed = 1;
nodes = (
(121,0,o),
(138,16,o),
(140,37,cs),
(140,87,o),
(140,190,o),
(140,273,cs),
(140,301,o),
(139,329,o),
(137,355,c),
(168,393,o),
(207,411,o),
(231,411,cs),
(255,411,o),
(271,394,o),
(271,329,cs),
(271,235,o),
(271,140,o),
(271,46,cs),
(271,14,o),
(287,1,o),
(311,1,cs),
(334,1,o),
(348,16,o),
(348,45,cs),
(348,133,o),
(353,233,o),
(353,299,cs),
(353,321,o),
(353,341,o),
(351,360,c),
(380,391,o),
(409,400,o),
(428,400,cs),
(454,400,o),
(470,383,o),
(470,329,cs),
(470,46,ls),
(470,14,o),
(486,1,o),
(510,1,cs),
(533,1,o),
(547,16,o),
(547,45,cs),
(547,128,o),
(551,221,o),
(551,286,cs),
(551,381,o),
(549,487,o),
(454,487,cs),
(405,487,o),
(360,460,o),
(336,432,c),
(331,468,o),
(290,486,o),
(247,486,cs),
(200,486,o),
(160,466,o),
(133,431,c),
(128,451,ls),
(124,468,o),
(107,480,o),
(88,480,cs),
(67,480,o),
(48,464,o),
(48,435,cs),
(48,405,o),
(60,344,o),
(60,252,cs),
(60,177,o),
(63,81,o),
(60,43,cs),
(58,21,o),
(75,0,o),
(99,0,cs)
);
},
{
pos = (599,0);
ref = u;
},
{
pos = (1112,0);
ref = c;
},
{
pos = (1555,0);
ref = h;
}
);
width = 2044;
},
{
anchors = (
{
name = bottom;
pos = (285,10);
},
{
name = top;
pos = (334,480);
}
);
layerId = m002;
shapes = (
{
closed = 1;
nodes = (
(94,0,o),
(113,16,o),
(116,38,cs),
(121,76,o),
(133,198,o),
(141,272,cs),
(144,298,o),
(146,327,o),
(147,355,c),
(182,393,o),
(223,411,o),
(247,411,cs),
(270,411,o),
(285,394,o),
(278,329,cs),
(268,235,o),
(258,140,o),
(248,46,cs),
(245,14,o),
(259,1,o),
(284,1,cs),
(307,1,o),
(322,16,o),
(325,45,cs),
(335,139,o),
(350,233,o),
(357,299,cs),
(359,321,o),
(361,339,o),
(361,360,c),
(394,391,o),
(423,400,o),
(443,400,cs),
(468,400,o),
(483,383,o),
(477,329,cs),
(447,46,ls),
(444,14,o),
(458,1,o),
(483,1,cs),
(506,1,o),
(521,16,o),
(524,45,cs),
(555,341,o),
(560,220,o),
(560,372,cs),
(560,435,o),
(544,487,o),
(478,487,cs),
(429,487,o),
(381,460,o),
(354,432,c),
(353,468,o),
(313,486,o),
(271,486,cs),
(220,486,o),
(179,463,o),
(151,431,c),
(148,451,ls),
(145,469,o),
(129,480,o),
(111,480,cs),
(77,480,o),
(65,457,o),
(65,395,cs),
(65,365,o),
(65,311,o),
(59,252,cs),
(51,177,o),
(44,80,o),
(37,43,cs),
(33,21,o),
(47,0,o),
(71,0,cs)
);
},
{
pos = (596,0);
ref = u;
},
{
pos = (1109,0);
ref = c;
},
{
pos = (1558,0);
ref = h;
}
);
width = 2052;
},
{
anchors = (
{
name = bottom;
pos = (315,10);
},
{
name = top;
pos = (315,480);
}
);
associatedMasterId = "24C63A81-7FC6-4EE9-AF2B-C1140AFD6C4B";
attr = {
coordinates = (
0,
50
);
};
layerId = "46B92A9C-C630-497F-9B2C-AC334B14C6CD";
name = "4 Oct 21, 12:53";
shapes = (
{
closed = 1;
nodes = (
(109,0,o),
(126,16,o),
(128,37,cs),
(128,87,o),
(154,190,o),
(154,273,cs),
(154,301,o),
(153,329,o),
(151,355,c),
(182,393,o),
(221,411,o),
(245,411,cs),
(269,411,o),
(290,394,o),
(290,332,cs),
(290,247,o),
(290,177,o),
(250,78,cs),
(238,48,o),
(239,32,o),
(260,19,cs),
(279,6,o),
(299,12,o),
(314,36,cs),
(350,130,o),
(364,230,o),
(369,295,cs),
(367,321,o),
(367,341,o),
(365,360,c),
(394,391,o),
(423,400,o),
(442,400,cs),
(468,400,o),
(478,383,o),
(484,329,cs),
(516,46,ls),
(520,14,o),
(532,1,o),
(556,1,cs),
(579,1,o),
(593,16,o),
(593,45,cs),
(593,128,o),
(565,221,o),
(565,286,cs),
(565,381,o),
(563,487,o),
(468,487,cs),
(419,487,o),
(374,460,o),
(350,432,c),
(345,468,o),
(304,486,o),
(261,486,cs),
(214,486,o),
(174,466,o),
(147,431,c),
(142,451,ls),
(138,468,o),
(121,480,o),
(102,480,cs),
(81,480,o),
(62,464,o),
(62,435,cs),
(62,405,o),
(74,344,o),
(74,252,cs),
(74,177,o),
(51,81,o),
(48,43,cs),
(46,21,o),
(63,0,o),
(87,0,cs)
);
},
{
pos = (623,0);
ref = u;
},
{
pos = (1126,0);
ref = c;
},
{
pos = (1559,0);
ref = h;
}
);
width = 2048;
}
);
metricLeft = m;
metricRight = h;
},
{
glyphname = s_o;
lastChange = "2021-09-30 19:49:12 +0000";
layers = (
{
anchors = (
{
name = bottom;
pos = (662,0);
},
{
name = center;
pos = (662,240);
},
{
name = ogonek;
pos = (761,66);
},
{
name = top;
pos = (672,490);
},
{
name = topright;
pos = (921,545);
},
{
name = wagger;
pos = (773,66);
}
);
layerId = "24C63A81-7FC6-4EE9-AF2B-C1140AFD6C4B";
shapes = (
{
ref = s;
},
{
closed = 1;
nodes = (
(788,-9,o),
(898,98,o),
(898,240,cs),
(898,372,o),
(810,471,o),
(673,471,cs),
(535,471,o),
(430,366,o),
(430,211,cs),
(430,81,o),
(522,-9,o),
(646,-9,cs)
);
},
{
closed = 1;
nodes = (
(562,65,o),
(505,131,o),
(505,221,cs),
(505,334,o),
(576,396,o),
(667,396,cs),
(754,396,o),
(823,345,o),
(823,236,cs),
(823,137,o),
(748,65,o),
(651,65,cs)
);
}
);
width = 929;
},
{
anchors = (
{
name = bottom;
pos = (662,0);
},
{
name = center;
pos = (663,240);
},
{
name = ogonek;
pos = (761,66);
},
{
name = top;
pos = (672,490);
},
{
name = topright;
pos = (922,545);
},
{
name = wagger;
pos = (773,66);
}
);
layerId = m002;
shapes = (
{
ref = s;
},
{
closed = 1;
nodes = (
(763,-9,o),
(884,98,o),
(899,240,cs),
(913,372,o),
(835,471,o),
(698,471,cs),
(560,471,o),
(444,366,o),
(428,211,cs),
(414,81,o),
(497,-9,o),
(621,-9,cs)
);
},
{
closed = 1;
nodes = (
(545,65,o),
(494,131,o),
(504,221,cs),
(516,334,o),
(593,396,o),
(684,396,cs),
(771,396,o),
(835,345,o),
(824,236,cs),
(813,137,o),
(731,65,o),
(634,65,cs)
);
}
);
width = 932;
},
{
anchors = (
{
name = bottom;
pos = (662,0);
},
{
name = center;
pos = (662,240);
},
{
name = ogonek;
pos = (761,66);
},
{
name = top;
pos = (672,490);
},
{
name = topright;
pos = (921,545);
},
{
name = wagger;
pos = (773,66);
}
);
associatedMasterId = m002;
layerId = "7C0C0D67-E68F-4F06-A4B4-8332F111CACA";
name = "30 Sep 21, 17:51";
shapes = (
{
ref = s;
},
{
closed = 1;
nodes = (
(788,-9,o),
(898,98,o),
(898,240,cs),
(898,372,o),
(810,471,o),
(673,471,cs),
(535,471,o),
(430,366,o),
(430,211,cs),
(430,81,o),
(522,-9,o),
(646,-9,cs)
);
},
{
closed = 1;
nodes = (
(562,65,o),
(505,131,o),
(505,221,cs),
(505,334,o),
(576,396,o),
(667,396,cs),
(754,396,o),
(823,345,o),
(823,236,cs),
(823,137,o),
(748,65,o),
(651,65,cs)
);
}
);
width = 919;
},
{
anchors = (
{
name = bottom;
pos = (662,0);
},
{
name = center;
pos = (662,240);
},
{
name = ogonek;
pos = (761,66);
},
{
name = top;
pos = (672,490);
},
{
name = topright;
pos = (921,545);
},
{
name = wagger;
pos = (773,66);
}
);
associatedMasterId = "24C63A81-7FC6-4EE9-AF2B-C1140AFD6C4B";
attr = {
coordinates = (
0,
50
);
};
layerId = "E98617ED-853E-4F61-909B-41AEBB3B7B91";
name = "30 Sep 21, 17:51";
shapes = (
{
ref = s;
},
{
closed = 1;
nodes = (
(788,-9,o),
(888,108,o),
(888,250,cs),
(888,382,o),
(810,491,o),
(673,491,cs),
(535,491,o),
(440,376,o),
(440,221,cs),
(440,91,o),
(522,-9,o),
(646,-9,cs)
);
},
{
closed = 1;
nodes = (
(562,65,o),
(515,141,o),
(515,231,cs),
(515,344,o),
(576,416,o),
(667,416,cs),
(754,416,o),
(813,355,o),
(813,246,cs),
(813,147,o),
(748,65,o),
(651,65,cs)
);
}
);
width = 919;
}
);
metricLeft = s;
metricRight = o;
},
{
glyphname = s_u_c_h;
lastChange = "2021-10-04 13:30:57 +0000";
layers = (
{
anchors = (
{
name = bottom;
pos = (666,0);
},
{
name = ogonek;
pos = (840,47);
},
{
name = top;
pos = (667,480);
},
{
name = topright;
pos = (962,571);
}
);
layerId = "24C63A81-7FC6-4EE9-AF2B-C1140AFD6C4B";
shapes = (
{
ref = s;
},
{
closed = 1;
nodes = (
(484,483,o),
(463,470,o),
(462,439,cs),
(458,302,ls),
(452,125,o),
(477,0,o),
(640,0,cs),
(702,0,o),
(751,18,o),
(778,66,cs),
(784,76,o),
(790,75,o),
(790,66,cs),
(792,26,l),
(797,-25,o),
(880,-16,o),
(868,43,cs),
(866,53,o),
(851,100,o),
(862,228,cs),
(870,306,o),
(868,379,o),
(874,432,cs),
(877,460,o),
(859,479,o),
(834,479,cs),
(811,479,o),
(795,463,o),
(794,434,cs),
(793,403,o),
(792,315,o),
(787,242,cs),
(781,155,o),
(733,78,o),
(643,78,cs),
(545,78,o),
(531,169,o),
(538,298,cs),
(545,434,ls),
(547,466,o),
(530,483,o),
(505,483,cs)
);
},
{
closed = 1;
nodes = (
(1330,388,o),
(1330,408,cs),
(1330,447,o),
(1269,491,o),
(1185,491,cs),
(1045,491,o),
(953,382,o),
(953,241,c),
(953,153,o),
(992,-8,o),
(1176,-8,cs),
(1268,-8,o),
(1344,29,o),
(1344,76,cs),
(1344,98,o),
(1327,114,o),
(1305,114,cs),
(1271,114,o),
(1256,72,o),
(1178,72,cs),
(1066,72,o),
(1033,171,o),
(1033,241,cs),
(1033,318,o),
(1073,414,o),
(1176,414,cs),
(1240,414,o),
(1262,377,o),
(1294,377,cs),
(1312,377,o)
);
},
{
pos = (1365,0);
ref = h;
}
);
width = 1854;
},
{
anchors = (
{
name = bottom;
pos = (666,0);
},
{
name = ogonek;
pos = (840,47);
},
{
name = top;
pos = (667,480);
},
{
name = topright;
pos = (962,571);
}
);
layerId = m002;
shapes = (
{
ref = s;
},
{
closed = 1;
nodes = (
(510,483,o),
(487,470,o),
(483,439,cs),
(465,302,ls),
(440,125,o),
(452,0,o),
(615,0,cs),
(677,0,o),
(728,18,o),
(760,66,cs),
(767,76,o),
(773,75,o),
(772,66,cs),
(770,26,l),
(769,-25,o),
(853,-16,o),
(848,43,cs),
(847,53,o),
(837,100,o),
(861,228,cs),
(877,306,o),
(883,379,o),
(894,432,cs),
(900,460,o),
(884,479,o),
(859,479,cs),
(836,479,o),
(819,463,o),
(815,434,cs),
(810,403,o),
(800,315,o),
(787,242,cs),
(772,155,o),
(716,78,o),
(626,78,cs),
(528,78,o),
(524,169,o),
(544,298,cs),
(566,434,ls),
(571,466,o),
(556,483,o),
(531,483,cs)
);
},
{
closed = 1;
nodes = (
(1345,388,o),
(1347,408,cs),
(1352,447,o),
(1295,491,o),
(1211,491,cs),
(1071,491,o),
(968,382,o),
(953,241,c),
(944,153,o),
(966,-8,o),
(1150,-8,cs),
(1242,-8,o),
(1322,29,o),
(1327,76,cs),
(1329,98,o),
(1314,114,o),
(1292,114,cs),
(1258,114,o),
(1238,72,o),
(1160,72,cs),
(1048,72,o),
(1026,171,o),
(1033,241,cs),
(1041,318,o),
(1091,414,o),
(1194,414,cs),
(1258,414,o),
(1276,377,o),
(1308,377,cs),
(1326,377,o)
);
},
{
pos = (1365,0);
ref = h;
}
);
width = 1859;
},
{
anchors = (
{
name = bottom;
pos = (666,0);
},
{
name = ogonek;
pos = (840,47);
},
{
name = top;
pos = (667,480);
},
{
name = topright;
pos = (962,571);
}
);
associatedMasterId = "24C63A81-7FC6-4EE9-AF2B-C1140AFD6C4B";
attr = {
coordinates = (
0,
50
);
};
layerId = "8E52FBFC-350F-439C-AD42-D23314DA5C1C";
name = "30 Sep 21, 17:53";
shapes = (
{
ref = s;
},
{
closed = 1;
nodes = (
(484,483,o),
(463,470,o),
(462,439,cs),
(458,302,ls),
(453,125,o),
(477,0,o),
(640,0,cs),
(702,0,o),
(751,18,o),
(778,66,cs),
(783,71,o),
(789,72,o),
(792,63,cs),
(806,25,l),
(832,-35,o),
(914,7,o),
(873,64,cs),
(863,78,o),
(851,100,o),
(862,228,cs),
(870,306,o),
(868,379,o),
(874,432,cs),
(877,460,o),
(859,479,o),
(834,479,cs),
(811,479,o),
(795,463,o),
(794,434,cs),
(793,403,o),
(792,315,o),
(787,242,cs),
(781,155,o),
(733,78,o),
(643,78,cs),
(545,78,o),
(531,169,o),
(538,298,cs),
(545,434,ls),
(547,466,o),
(530,483,o),
(505,483,cs)
);
},
{
closed = 1;
nodes = (
(1345,413,o),
(1339,432,cs),
(1328,469,o),
(1269,491,o),
(1185,491,cs),
(1045,491,o),
(953,382,o),
(953,241,c),
(953,153,o),
(992,-8,o),
(1176,-8,cs),
(1268,-8,o),
(1324,59,o),
(1324,106,cs),
(1324,128,o),
(1307,144,o),
(1285,144,cs),
(1251,144,o),
(1256,72,o),
(1178,72,cs),
(1066,72,o),
(1033,171,o),
(1033,241,cs),
(1033,318,o),
(1073,414,o),
(1176,414,cs),
(1251,413,o),
(1282,383,o),
(1313,392,cs),
(1330,397,o)
);
},
{
pos = (1365,0);
ref = h;
}
);
width = 1854;
}
);
metricLeft = s;
metricRight = h;
},
{
glyphname = v_e_r_y;
lastChange = "2021-09-30 18:24:00 +0000";
layers = (
{
anchors = (
{
name = bottom;
pos = (1478,-200);
},
{
name = top;
pos = (1478,480);
}
);
layerId = "24C63A81-7FC6-4EE9-AF2B-C1140AFD6C4B";
shapes = (
{
ref = v;
},
{
pos = (436,0);
ref = e;
},
{
pos = (911,0);
ref = r;
},
{
closed = 1;
nodes = (
(1297,-121,cs),
(1297,-143,o),
(1309,-162,o),
(1356,-171,cs),
(1371,-174,o),
(1412,-181,o),
(1452,-181,cs),
(1662,-181,o),
(1656,-43,o),
(1658,174,cs),
(1661,447,ls),
(1661,469,o),
(1644,488,o),
(1622,488,c),
(1600,489,o),
(1581,472,o),
(1581,450,cs),
(1578,176,ls),
(1578,137,o),
(1546,74,o),
(1472,74,cs),
(1331,74,o),
(1376,313,o),
(1376,450,c),
(1375,472,o),
(1356,489,o),
(1334,487,c),
(1312,486,o),
(1295,467,o),
(1296,445,c),
(1296,200,o),
(1272,-6,o),
(1452,-6,cs),
(1502,-6,o),
(1538,4,o),
(1568,46,cs),
(1573,54,o),
(1581,52,o),
(1581,42,cs),
(1577,-54,o),
(1562,-105,o),
(1446,-105,cs),
(1425,-105,o),
(1394,-102,o),
(1356,-94,cs),
(1324,-87,o),
(1297,-96,o)
);
}
);
width = 1709;
},
{
anchors = (
{
name = bottom;
pos = (1468,-200);
},
{
name = top;
pos = (1528,480);
}
);
layerId = m002;
shapes = (
{
ref = v;
},
{
pos = (444,0);
ref = e;
},
{
pos = (915,0);
ref = r;
},
{
closed = 1;
nodes = (
(1276,-127,cs),
(1276,-146,o),
(1288,-163,o),
(1330,-171,cs),
(1345,-174,o),
(1385,-181,o),
(1425,-181,cs),
(1634,-181,o),
(1643,-43,o),
(1668,174,cs),
(1700,447,ls),
(1703,470,o),
(1686,488,o),
(1665,488,c),
(1646,489,o),
(1623,474,o),
(1620,450,cs),
(1589,176,ls),
(1585,137,o),
(1545,74,o),
(1472,74,cs),
(1331,74,o),
(1401,313,o),
(1415,450,c),
(1417,472,o),
(1399,489,o),
(1377,487,c),
(1355,486,o),
(1336,467,o),
(1335,445,c),
(1309,200,o),
(1263,-6,o),
(1443,-6,cs),
(1499,-6,o),
(1534,8,o),
(1565,46,cs),
(1571,54,o),
(1579,53,o),
(1577,40,cs),
(1564,-54,o),
(1542,-105,o),
(1427,-105,cs),
(1407,-105,o),
(1375,-102,o),
(1338,-94,cs),
(1307,-87,o),
(1276,-95,o)
);
}
);
width = 1736;
},
{
anchors = (
{
name = bottom;
pos = (1478,-200);
},
{
name = top;
pos = (1478,480);
}
);
associatedMasterId = "24C63A81-7FC6-4EE9-AF2B-C1140AFD6C4B";
attr = {
coordinates = (
0,
50
);
};
layerId = "DF1855D1-9975-4B24-B8A3-B84B304B99A1";
name = "30 Sep 21, 17:53";
shapes = (
{
ref = v;
},
{
pos = (436,0);
ref = e;
},
{
pos = (911,0);
ref = r;
},
{
closed = 1;
nodes = (
(1298,-143,cs),
(1300,-165,o),
(1315,-183,o),
(1362,-186,cs),
(1378,-187,o),
(1419,-189,o),
(1459,-184,cs),
(1662,-181,o),
(1656,-43,o),
(1658,174,cs),
(1661,447,ls),
(1661,469,o),
(1644,488,o),
(1622,488,c),
(1600,489,o),
(1581,472,o),
(1581,450,cs),
(1578,176,ls),
(1578,137,o),
(1546,74,o),
(1472,74,cs),
(1331,74,o),
(1376,313,o),
(1376,450,c),
(1375,472,o),
(1356,489,o),
(1334,487,c),
(1312,486,o),
(1295,467,o),
(1296,445,c),
(1296,200,o),
(1272,-6,o),
(1452,-6,cs),
(1502,-6,o),
(1538,4,o),
(1568,46,cs),
(1573,54,o),
(1581,52,o),
(1581,42,cs),
(1577,-54,o),
(1562,-105,o),
(1444,-110,cs),
(1423,-112,o),
(1392,-113,o),
(1353,-109,cs),
(1320,-106,o),
(1295,-118,o)
);
}
);
width = 1709;
}
);
metricLeft = v;
metricRight = y;
},
